<?xml version="1.0" encoding="UTF-8"?>
<!DOCTYPE svg PUBLIC "-//W3C//DTD SVG 1.1//EN" "http://www.w3.org/Graphics/SVG/1.1/DTD/svg11.dtd">
<!-- Creator: CorelDRAW X7 -->
<svg xmlns="http://www.w3.org/2000/svg" xml:space="preserve" width="20.2436mm" height="32.0955mm" version="1.1" style="shape-rendering:geometricPrecision; text-rendering:geometricPrecision; image-rendering:optimizeQuality; fill-rule:evenodd; clip-rule:evenodd"
viewBox="0 0 595 944"
 xmlns:xlink="http://www.w3.org/1999/xlink">
 <defs>
  <style type="text/css">
   <![CDATA[
    .str0 {stroke:#84716B;stroke-width:2.24033}
    .fil1 {fill:none}
    .fil0 {fill:#C8BBA7}
    .fil2 {fill:#C8BBA7;fill-rule:nonzero}
   ]]>
  </style>
 </defs>
 <g id="Layer_x0020_1">
  <metadata id="CorelCorpID_0Corel-Layer"/>
  <g id="_521150296">
   <path class="fil0" d="M99 298c22,2 75,-34 101,-59 27,-24 25,-37 38,-19 13,19 40,68 73,91 34,23 74,20 114,25 39,5 78,19 85,-8 6,-27 -19,-94 -42,-139 -22,-45 -43,-66 -71,-88 -29,-22 -65,-44 -99,-45 -33,-2 -63,18 -87,33 -24,16 -42,27 -60,48 -18,20 -36,50 -50,84 -14,35 -24,75 -2,77z"/>
   <path class="fil0" d="M242 65c7,0 20,-4 35,-6 14,-2 30,-3 38,-4 8,0 8,0 7,-6 -1,-5 -4,-14 -7,-22 -4,-7 -9,-13 -15,-16 -6,-3 -12,-5 -18,-6 -5,-1 -9,-1 -14,0 -5,0 -10,1 -14,3 -4,1 -7,3 -10,6 -3,3 -5,8 -7,13 -2,5 -2,11 -3,16 0,5 0,10 0,14 0,4 1,8 8,8z"/>
   <path class="fil1 str0" d="M295 51c116,0 209,127 209,283 -3,134 -44,187 -144,269 -66,54 -80,40 -148,-18 -93,-78 -123,-126 -126,-251 0,-156 94,-283 209,-283z"/>
   <path class="fil1 str0" d="M1 900c73,-47 146,-94 183,-140 36,-45 37,-89 37,-111 1,-22 1,-23 1,-23"/>
   <path class="fil1 str0" d="M595 914c-77,-49 -154,-99 -193,-146 -39,-48 -40,-94 -40,-118 0,-23 0,-24 0,-24"/>
   <g>
    <path class="fil2" d="M578 344c3,4 -11,27 -15,31 -3,3 -6,5 -10,7 -4,2 -7,3 -12,3 -17,-1 -37,-12 -53,-19 -38,-16 -47,-30 -78,-52 -9,-5 -16,-8 -26,-9 -12,0 -21,3 -32,6 -10,4 -15,-3 -19,-12 -4,-10 -4,-18 8,-22 15,-5 29,-7 45,-6 18,2 29,8 42,18 27,23 36,39 69,57 12,6 34,20 45,23 2,0 4,0 6,0 3,-1 5,-2 7,-3 5,-2 21,-23 23,-22z"/>
   </g>
   <path class="fil1" d="M333 299c88,-36 89,25 160,57 44,20 58,39 85,-12"/>
   <path class="fil1 str0" d="M238 214c19,40 38,80 65,93 28,13 63,0 102,11 39,12 81,49 110,61 29,12 44,-1 59,-14"/>
   <g>
    <path class="fil2" d="M57 298l1 0c1,-1 12,4 14,3 12,1 19,-2 30,-9 0,0 26,-19 29,-21 26,-18 34,-39 60,-58 6,-3 9,-8 13,-11 5,-3 9,-4 15,-4 0,0 4,0 5,0 10,0 10,10 10,18 -1,6 -2,17 -11,16 -1,0 -2,0 -3,0 -2,0 1,0 3,-1 3,-3 -14,10 -15,10 -25,15 -35,34 -66,51 -10,5 -21,12 -32,16 -14,6 -25,7 -40,3 -4,-2 -10,-6 -13,-10 -1,0 -1,-2 -1,-3z"/>
   </g>
   <path class="fil1" d="M234 216c-28,-2 -15,0 -34,11 -25,15 -35,38 -63,54 -22,13 -39,31 -66,25 -4,-1 -10,-5 -13,-7 -1,0 -1,-1 -2,-1"/>
   <path class="fil1 str0" d="M238 214c-32,35 -63,70 -93,84 -30,14 -58,8 -87,1"/>
   <path class="fil1 str0" d="M231 70c-1,-25 -2,-49 12,-61 14,-11 43,-10 59,0 16,10 18,27 20,45"/>
   <g>
    <path class="fil2" d="M73 754c1,0 1,2 2,2 0,1 2,2 3,2 0,0 0,0 0,0 0,0 3,3 3,3 0,0 1,0 1,0 1,0 2,0 3,0 1,0 1,0 2,0 1,-1 3,-5 4,-5l0 0c0,0 4,-7 4,-7 0,0 0,0 0,0 0,0 20,-39 21,-42 13,-25 21,-49 26,-77 2,-14 3,-25 1,-39 0,-6 -5,-18 -7,-24 -4,-7 6,-13 11,-17 8,-5 17,-9 22,2 5,12 7,23 8,35 1,18 -1,32 -5,49 -8,31 -19,57 -37,83 -10,13 -18,26 -28,38 0,0 0,1 0,1 0,0 -5,5 -6,6 0,0 -1,1 -1,1 -3,3 -6,5 -10,6 -2,1 -5,0 -6,0 -1,0 -4,-2 -6,-3 -1,0 -1,-1 -2,-2 -1,0 -2,-2 -2,-3 0,0 -1,-1 -1,-1 -1,-1 -1,-2 -1,-4 -1,-1 0,-4 1,-4z"/>
   </g>
   <path class="fil1" d="M147 550c29,46 5,121 -22,163 -8,14 -15,27 -24,40l-5 7c-6,7 -9,8 -17,4l-3 -4c-2,-2 -3,-3 -3,-6"/>
   <path class="fil1 str0" d="M138 521c-2,21 -4,43 -1,65 3,22 11,43 8,62 -3,18 -17,33 -26,52 -9,20 -14,45 -22,55 -8,9 -20,3 -26,1 -7,-3 -8,-2 -2,2 6,4 20,12 31,6 11,-5 20,-24 30,-41 10,-17 23,-33 31,-48 8,-15 11,-30 14,-46 3,-17 6,-36 7,-45 2,-10 2,-10 2,-10"/>
   <path class="fil1 str0" d="M126 814c10,14 21,28 27,48 7,20 10,45 11,58 2,13 2,13 2,13"/>
   <path class="fil1 str0" d="M110 826c12,16 24,32 30,49 5,17 5,36 5,45 0,9 1,9 3,8"/>
   <path class="fil1 str0" d="M466 825c-10,14 -21,28 -27,47 -7,20 -10,46 -11,59 -1,12 -1,12 -1,12"/>
   <path class="fil1 str0" d="M482 836c-12,16 -24,32 -29,49 -6,18 -6,36 -6,46 0,9 -1,8 -2,8"/>
  </g>
 </g>
</svg>
