<?xml version="1.0" encoding="UTF-8"?>
<!DOCTYPE svg PUBLIC "-//W3C//DTD SVG 1.1//EN" "http://www.w3.org/Graphics/SVG/1.1/DTD/svg11.dtd">
<!-- Creator: CorelDRAW X7 -->
<svg xmlns="http://www.w3.org/2000/svg" xml:space="preserve" width="13.3037mm" height="26.0064mm" version="1.1" style="shape-rendering:geometricPrecision; text-rendering:geometricPrecision; image-rendering:optimizeQuality; fill-rule:evenodd; clip-rule:evenodd"
viewBox="0 0 125 245"
 xmlns:xlink="http://www.w3.org/1999/xlink">
 <defs>
  <style type="text/css">
   <![CDATA[
    .str0 {stroke:#84716B;stroke-width:0.940713}
    .fil0 {fill:none}
    .fil2 {fill:#84716B}
    .fil1 {fill:#CEC5B5}
   ]]>
  </style>
 </defs>
 <g id="Layer_x0020_1">
  <metadata id="CorelCorpID_0Corel-Layer"/>
  <g id="_566843928">
   <g>
    <path class="fil0 str0" d="M31 73c2,6 5,13 5,19 0,7 -2,13 -8,24 -7,10 -19,25 -24,41 -5,17 -5,37 3,52 7,15 21,26 35,31 14,6 29,6 41,0 12,-5 22,-16 27,-32 5,-16 5,-37 1,-54 -5,-16 -14,-28 -19,-38 -5,-10 -6,-17 -5,-24 0,-7 3,-14 4,-17 2,-3 3,-3 4,-3"/>
    <ellipse class="fil1 str0" cx="62" cy="71" rx="31" ry="2"/>
    <path class="fil1 str0" d="M41 77c8,-2 28,-2 37,-2 10,0 10,0 10,2 -1,2 -2,6 -3,9 -1,3 -2,7 -2,12 1,4 3,11 6,18 3,6 7,12 11,18 4,7 7,13 9,20 3,7 4,14 4,21 1,7 0,14 -1,21 -2,7 -4,14 -8,20 -3,6 -8,11 -13,15 -6,4 -11,6 -17,7 -5,2 -9,3 -15,1 -7,-1 -16,-4 -23,-7 -7,-3 -13,-7 -17,-12 -4,-5 -7,-10 -10,-17 -3,-7 -5,-14 -5,-21 0,-8 1,-14 5,-22 3,-8 8,-16 13,-25 5,-8 9,-16 12,-23 4,-7 6,-13 6,-17 0,-4 -2,-7 -4,-10 -2,-4 -4,-7 5,-8z"/>
   </g>
   <path class="fil0 str0" d="M56 208c-2,-23 -4,-46 1,-73 4,-27 15,-57 23,-75 8,-18 14,-23 16,-26 2,-2 1,-3 0,-3"/>
   <path class="fil1 str0" d="M92 17c0,-1 -3,-2 -3,-5 0,-2 2,-6 5,-8 3,-1 6,0 8,3 3,2 3,5 4,4 0,-1 -1,-6 2,-8 2,-2 6,-1 9,1 3,2 5,6 6,9 0,3 0,6 -1,7 -2,2 -5,2 -6,2 -2,1 -2,1 0,1 2,1 7,3 8,5 2,3 0,7 -2,9 -2,2 -5,2 -7,1 -1,-1 -2,-4 -3,-6 0,-2 -1,-3 -1,-1 -1,1 -1,4 -2,6 -1,2 -4,3 -6,2 -2,0 -4,-2 -5,-4 -1,-1 -1,-2 -1,-4 1,-1 2,-2 1,-2 -2,0 -5,1 -8,0 -3,-1 -5,-5 -4,-7 1,-3 5,-4 6,-5z"/>
   <ellipse class="fil2 str0" cx="106" cy="22" rx="8" ry="7"/>
   <path class="fil1 str0" d="M91 16c0,-1 -3,-2 -3,-5 -1,-2 2,-6 5,-8 3,-1 6,0 9,2 2,3 3,6 3,5 0,-1 0,-6 2,-8 2,-3 7,-1 10,1 3,2 5,6 5,9 1,3 1,6 0,7 -2,2 -5,2 -7,3 -1,0 -1,0 1,1 2,1 7,2 8,5 1,3 0,6 -2,8 -2,2 -5,3 -7,2 -2,-2 -2,-5 -3,-7 -1,-2 -2,-2 -2,-1 0,2 0,5 -1,7 -2,2 -4,3 -7,2 -2,0 -4,-3 -5,-4 -1,-2 -1,-3 -1,-4 1,-1 2,-3 1,-3 -1,0 -5,1 -8,0 -3,-1 -5,-5 -4,-7 1,-2 5,-3 6,-5z"/>
   <ellipse class="fil2 str0" cx="106" cy="22" rx="8" ry="7"/>
  </g>
 </g>
</svg>
