<?xml version="1.0" encoding="UTF-8"?>
<!DOCTYPE svg PUBLIC "-//W3C//DTD SVG 1.1//EN" "http://www.w3.org/Graphics/SVG/1.1/DTD/svg11.dtd">
<!-- Creator: CorelDRAW X7 -->
<svg xmlns="http://www.w3.org/2000/svg" xml:space="preserve" width="56.9011mm" height="41.0647mm" version="1.1" style="shape-rendering:geometricPrecision; text-rendering:geometricPrecision; image-rendering:optimizeQuality; fill-rule:evenodd; clip-rule:evenodd"
viewBox="0 0 5577436 4025155"
 xmlns:xlink="http://www.w3.org/1999/xlink">
 <defs>
  <style type="text/css">
   <![CDATA[
    .fil0 {fill:#D7D4C8;fill-opacity:0.388235}
   ]]>
  </style>
 </defs>
 <g id="Layer_x0020_1">
  <metadata id="CorelCorpID_0Corel-Layer"/>
  <path class="fil0" d="M4587093 354057c59,-23485 4675,-39355 4666,-55890 3352,-99549 -37219,-211106 -77426,-298167l-1524101 1706c-8224,25073 -13742,67437 -19663,97118 -24014,120495 -54724,345167 -58008,470024l-4479 167849c0,18634 59,37268 -39,55901 -108,19153 4616,40845 4626,51588 49,133013 -735,322632 12968,447284l29357 248353c27230,231464 115516,532816 115350,754762 -49079,-9 -51608,-13673 -85885,-30641 -56901,-28180 -79416,-86473 -142894,-59625 -31895,13487 -39129,36522 -62566,45824 -19643,-24720 -38296,-71584 -54322,-100980 -18830,-34503 -35905,-63987 -54744,-95716 -107557,-181307 -116173,-192942 -208586,-393089 -94893,-205508 -192717,-436845 -267771,-635629 -40129,-106273 -138169,-349333 -139159,-455704 -206,-94805 13821,-93031 40090,-164301 14880,-40335 -13075,-114928 -41638,-147324 -154225,45609 -93649,141590 -51265,220672 23741,44285 72907,220858 88287,276965 13605,49637 27563,90345 42687,141178 101892,342618 170604,597137 349255,926140 47167,86846 86639,160224 131062,236257 22584,38650 116487,201863 100382,252647 -19398,-3745 -7057,88 -19751,-12929 -32474,-33278 -75299,-54244 -120339,-73799l-249000 -95040 -264153 -79553c-128142,-35640 -245942,-63654 -379455,-81327 -69937,-9273 -134767,-16644 -206282,-25427 -54401,-6685 -107499,-13977 -161606,-14742 -23897,-343 -31082,-4264 -51538,-4274l-426318 12772c-21653,-9 -67153,-9664 -89394,-12605 -23701,-3156 -64448,-8645 -88620,-8665 -35267,-19 -31876,6499 -50186,34474 -33013,50460 -40286,88218 -15389,143432 34816,2313 96638,-14017 121838,-24348 90071,-36914 66546,-77269 197285,-89237l271142 -9047c12498,0 35209,4322 56176,4283 65604,-108 51754,274 111497,9292l262762 33837c214350,22848 559997,117173 750969,187237 93864,34435 275240,147324 335022,114527 17977,142021 187492,213154 203960,270770 -29122,18251 -63762,22632 -103892,27945 -64203,8479 -184953,19888 -248568,20594 -35963,392 -85895,5303 -121633,9135 -153215,16458 -280503,54617 -422230,95991 -199421,58204 -369878,126201 -568917,203911 -233042,90982 -645735,282797 -862761,416192 -140001,86052 -338805,205352 -446813,316732 -71055,73260 -180592,206890 -96903,339393 68271,7999 1803173,2059 2027374,2059 26671,0 31327,-16085 45216,-33229 78681,-97128 153009,-201441 223946,-301519 40296,-56861 81259,-114977 121986,-176504 41462,-62654 84238,-117340 123035,-175113 88560,-131895 263771,-411487 384482,-515388 22692,-19535 59724,-66830 86650,-60527 30631,7185 55322,58910 55322,91364 0,67281 -91521,217839 -128896,286836l-134983 275984c-9714,22417 -19741,53313 -33111,72378 -8498,12125 -9312,24848 -14458,38630l-39884 113840c-18663,52901 -20006,19918 -35189,66438 -21457,65712 -90581,256214 -91169,316114 98550,3774 1094784,4607 1140843,-1078 294,-62518 -15653,-131563 -27925,-188385 -31906,-147823 -55597,-322554 -123280,-453753 -43472,-84268 -251989,-459145 -246765,-548000 77671,-68 164046,54117 208959,84033 60233,40119 110703,78494 168280,120564 52010,37993 113242,81082 174025,115752 46696,26651 95794,49921 126759,89953 20496,26504 11213,43118 47461,51186 18830,4195 36581,11889 56038,9341 22270,-2911 54499,-15752 71986,-24319 28416,-13938 33336,-20133 52685,-41943 17017,-19172 34895,-27269 50206,-43932 -16104,-63958 -66546,-83631 -66624,-179974 -25132,12517 -19427,27700 -40619,40472 -15154,-7724 -28524,-20712 -43433,-31454 -16673,-11998 -28249,-18281 -45873,-30906 -33817,-24201 -64713,-32405 -100176,-54215 -32161,-19771 -62125,-40286 -94629,-59165 -79376,-46118 -352156,-186943 -404861,-251920 -13909,-17144 -26573,-47854 -39571,-63507 75142,-38071 107146,-23888 172437,-7460 60400,15203 129710,22202 191903,29788 67957,8283 136552,18428 204832,17850 30818,-265 43913,4205 70359,4215l145226 0c23515,-138 38483,-4401 65536,-4313 51960,157 226661,-628 269006,-6264 22319,-2979 44079,-578 67741,-2529l205322 -21917c150471,-19663 291913,-50764 425759,-115947 65340,-31818 135326,-75172 182268,-124819 24848,-26279 47265,-50147 62949,-88100 56675,-137071 22770,-291207 -15468,-428435 -41551,-149186 -172093,-420123 -299637,-494667 -253842,-148333 -851518,294403 -1082374,478494l-74681 60596c-26083,21966 -47275,38070 -75035,60213l-398117 339756c-10527,8881 -25103,18320 -36630,26652 -41815,30249 -163693,128465 -233277,73172 -21173,-16820 -39277,-55440 -56646,-77024 -11949,-14830 -25848,-17399 -32601,-30122 64732,-31944 73750,-36747 110556,-96549 50500,-82062 218545,-270486 290080,-369800 33180,-46088 179406,-224847 210821,-245020 28622,-18369 31494,-17741 54195,-49490l177926 -227690c140560,-177465 307174,-404283 403244,-606008 25034,-52558 96892,-238286 97412,-301421z"/>
 </g>
</svg>
