<?xml version="1.0" encoding="UTF-8"?>
<!DOCTYPE svg PUBLIC "-//W3C//DTD SVG 1.1//EN" "http://www.w3.org/Graphics/SVG/1.1/DTD/svg11.dtd">
<!-- Creator: CorelDRAW X7 -->
<svg xmlns="http://www.w3.org/2000/svg" xml:space="preserve" width="23.422mm" height="24.5993mm" version="1.1" style="shape-rendering:geometricPrecision; text-rendering:geometricPrecision; image-rendering:optimizeQuality; fill-rule:evenodd; clip-rule:evenodd"
viewBox="0 0 302 317"
 xmlns:xlink="http://www.w3.org/1999/xlink">
 <defs>
  <style type="text/css">
   <![CDATA[
    .str0 {stroke:#84716B;stroke-width:0.983101}
    .fil2 {fill:none}
    .fil0 {fill:#C8BBA7}
    .fil1 {fill:#CEC5B5}
    .fil3 {fill:#84716B;fill-rule:nonzero}
   ]]>
  </style>
 </defs>
 <g id="Layer_x0020_1">
  <metadata id="CorelCorpID_0Corel-Layer"/>
  <path class="fil0" d="M50 64c49,4 147,4 198,4 50,-1 53,-1 54,-6 1,-5 0,-15 -1,-22 0,-7 -2,-12 -4,-15 -1,-4 -3,-6 -6,-8 -2,-2 -6,-4 -8,-6 -3,-1 -5,-1 -47,-2 -43,0 -124,1 -168,1 -43,1 -49,2 -52,3 -4,2 -6,3 -8,5 -2,1 -4,3 -5,5 -1,3 -2,6 -2,9 -1,3 -1,6 -1,12 0,6 0,15 50,20z"/>
  <path class="fil1" d="M49 79c50,-19 148,-19 199,-17 50,1 52,5 53,26 1,21 1,59 0,89 -1,29 -2,50 -4,65 -2,15 -4,24 -6,33 -3,9 -6,18 -9,23 -2,6 -5,8 -47,9 -42,0 -124,-1 -167,-4 -44,-3 -49,-8 -53,-13 -3,-6 -5,-12 -7,-18 -2,-7 -4,-14 -5,-24 -2,-10 -2,-24 -3,-36 0,-13 0,-25 0,-50 0,-25 0,-64 49,-83z"/>
  <rect class="fil2 str0" width="298" height="316" rx="36" ry="36"/>
  <line class="fil2 str0" x1="6" y1="68" x2="292" y2= "68" />
  <path class="fil3" d="M128 33c0,3 -1,5 -2,8 -2,2 -4,5 -8,8 -2,2 -4,4 -7,5 -2,2 -4,3 -5,4 0,0 0,1 -1,1 0,0 0,0 -1,0 0,0 0,0 0,0 0,0 -1,-1 -1,-1 0,0 1,-1 1,-2 0,-2 0,-4 0,-6 0,-3 0,-7 0,-9 0,-4 0,-6 0,-7 0,-2 0,-4 0,-5 1,-1 1,-2 2,-2 0,0 1,0 1,1 0,0 0,0 0,0 0,0 0,1 0,2 -1,1 -1,2 -1,3 0,2 0,5 0,8 0,4 0,7 0,9 0,2 0,4 0,4 2,0 3,-1 5,-3 3,-1 4,-3 6,-4 3,-3 5,-5 6,-7 2,-2 3,-5 3,-7 0,-3 -2,-5 -6,-6 -3,-1 -8,-1 -14,-1 -1,0 -4,0 -7,0 0,0 -1,1 -2,1 -1,0 -1,0 -1,0 -1,0 -1,0 -1,-1 0,0 -1,0 -1,-1 0,0 1,0 1,0 0,-1 0,-1 1,-1 2,0 4,0 5,0 2,-1 3,-1 5,-1 7,0 12,1 16,3 4,1 6,3 6,7z"/>
  <path id="1" class="fil3" d="M154 54c0,0 0,0 0,1 0,0 1,0 1,0 0,1 -1,1 -1,2 0,0 -1,1 -1,1 -1,0 -1,-1 -1,-2 -1,0 -1,-1 -1,-2 0,-1 0,-4 0,-8l0 -2c0,0 0,-1 0,-1 -2,2 -3,5 -5,6 -1,2 -3,4 -5,6 -2,2 -4,3 -7,3 -1,0 -2,-1 -2,-1 -1,-1 -1,-2 -1,-3 0,-2 1,-3 2,-6 1,-2 3,-5 5,-7 2,-3 4,-5 6,-6 1,-1 2,-2 3,-3 0,0 1,0 2,0 0,0 1,0 1,0 1,1 2,1 2,2 0,1 1,1 1,2 0,1 -1,2 -1,3l1 0c0,0 0,0 0,1 0,1 0,2 0,4 0,1 0,3 1,4 0,1 0,2 0,3 0,1 0,2 0,3zm-19 1c2,0 4,-1 6,-2 1,-2 3,-3 4,-5 2,-2 3,-5 5,-7 0,-2 1,-3 1,-4 0,-1 -1,-1 -1,-2 -1,0 -1,-1 -2,-1 -1,0 -2,1 -3,2 -2,2 -3,3 -5,6 -2,2 -3,4 -5,6 -1,2 -1,4 -1,5 0,1 0,2 1,2z"/>
  <path id="2" class="fil3" d="M183 36c0,0 0,1 -1,1 0,0 -1,0 -3,1 -3,0 -5,0 -5,1l-3 0c0,2 0,4 0,6 0,2 0,4 0,5 0,2 0,4 1,5 0,1 0,1 0,2 0,0 0,0 0,1 -1,0 -1,0 -2,0 0,0 0,0 0,0 0,0 0,-1 -1,-1 0,0 0,-1 0,-3 0,-1 0,-2 -1,-4 0,-1 0,-3 0,-5 0,-2 0,-4 0,-5 -2,0 -4,0 -6,1 -2,0 -3,0 -3,0 -1,0 -1,0 -1,0 -1,0 -1,-1 -1,-1 0,-1 0,-1 1,-1 0,0 0,0 1,0 1,0 1,0 2,0 1,-1 2,-1 2,-1 3,0 4,-1 5,-1 0,-1 0,-1 0,-3 0,-1 0,-2 0,-3 0,-2 0,-3 0,-3 0,-1 0,-2 1,-3 0,0 0,-1 1,-1 0,0 1,0 1,1 0,0 0,0 0,0 0,0 0,1 0,2 -1,1 -1,2 -1,4 0,1 0,3 0,4l1 2c1,0 4,-1 9,-2 0,0 0,0 1,-1 0,0 0,0 0,0 1,0 1,0 1,0 1,1 1,1 1,2z"/>
  <path id="3" class="fil3" d="M205 44c1,0 1,0 1,1 0,0 -1,2 -2,4 0,2 -2,4 -4,6 -2,2 -4,2 -7,2 -2,0 -4,0 -5,-2 -2,-1 -3,-3 -3,-6 0,-3 1,-6 2,-8 2,-3 3,-5 5,-7 2,-1 4,-2 7,-2 1,0 2,0 3,1 1,0 1,1 1,2 0,1 0,2 -2,4 -1,1 -3,2 -5,3 -2,1 -5,1 -7,2 0,1 -1,3 -1,4 0,2 1,4 2,5 1,1 2,2 4,2 3,0 5,-1 6,-3 2,-2 3,-4 5,-7 0,0 0,0 0,-1 0,0 0,0 0,0zm-4 -8c0,-1 0,-1 -1,-2 -1,0 -1,0 -2,0 -1,0 -3,0 -4,1 -1,1 -2,2 -3,3 -1,2 -1,3 -2,4 2,-1 4,-1 6,-2 1,-1 3,-1 4,-2 1,-1 2,-2 2,-2z"/>
  <path class="fil3" d="M73 160c0,1 0,2 -1,2 -1,1 -3,1 -5,2 -6,1 -10,1 -11,1l-6 1c0,4 0,8 0,11 0,4 0,8 0,10 1,4 1,7 2,9 1,2 1,4 1,4 0,0 0,1 -1,2 -1,0 -2,1 -3,1 0,0 0,-1 -1,-1 0,0 0,0 0,-1 -1,-1 -1,-3 -1,-5 -1,-3 -1,-6 -1,-9 -1,-2 -1,-6 -1,-9 0,-4 0,-7 0,-11 -4,1 -8,2 -11,2 -4,1 -6,2 -7,2 -1,0 -1,-1 -2,-1 -1,-1 -1,-1 -1,-2 0,-1 0,-1 1,-2 0,0 1,0 3,0 1,0 2,0 4,-1 2,0 3,0 4,0 4,-1 7,-2 9,-2 0,-2 0,-3 0,-6 0,-3 0,-5 0,-7 0,-2 0,-4 0,-6 0,-1 0,-2 1,-4 0,-1 1,-2 3,-2 0,0 1,0 1,1 0,0 0,0 0,1 0,0 0,1 0,3 0,2 -1,5 -1,8 0,2 0,5 1,8l0 3c3,0 9,-2 18,-4 0,0 1,0 1,-1 0,-1 1,-1 1,-1 1,0 2,0 2,1 1,1 1,2 1,3z"/>
  <path id="1" class="fil3" d="M113 180c0,3 -1,6 -3,9 -2,4 -4,7 -8,9 -3,3 -7,4 -12,4 -4,0 -8,-2 -10,-4 -2,-2 -3,-6 -3,-9 0,-3 1,-7 2,-12 1,-5 3,-9 5,-13 0,0 0,-1 1,-3 1,-2 2,-3 4,-4 1,-1 2,-1 3,-1 1,0 2,0 2,0 1,1 1,1 1,2 0,0 0,0 -1,0 0,1 0,1 -1,2 -2,2 -4,5 -5,8 -2,3 -3,7 -4,10 -2,3 -2,7 -2,11 0,5 3,8 10,8 3,0 5,-1 8,-3 3,-2 5,-4 6,-6 2,-3 2,-5 2,-7 0,-2 0,-4 -2,-6 -1,-2 -4,-4 -6,-6 -2,-1 -3,-2 -4,-3 -1,-1 -1,-1 -1,-2 0,-1 0,-1 1,-2 2,0 3,-1 4,-1 1,0 2,0 2,1 0,0 1,0 1,0 0,0 -1,0 -1,1 0,0 0,0 0,1 0,0 1,0 2,2 3,2 5,4 7,6 1,3 2,5 2,8z"/>
  <path id="2" class="fil3" d="M157 132c0,2 0,4 0,8 0,4 0,8 0,12 0,8 0,15 0,23 1,8 1,14 1,16 0,0 0,1 0,1 0,1 0,1 1,2 0,1 0,3 0,3 0,1 -1,1 -2,2 0,1 -1,1 -2,1 -1,0 -1,0 -1,-1 0,-1 -1,-1 -1,-2 0,-4 1,-8 1,-12l0 -6c0,-1 0,-4 0,-7 0,-3 0,-5 -1,-8 -3,11 -7,20 -11,28 -4,7 -9,10 -14,10 -2,0 -4,-1 -6,-3 -1,-2 -2,-5 -2,-9 0,-5 2,-11 5,-17 4,-6 8,-12 12,-16 5,-5 8,-7 11,-7 2,0 3,1 3,2 0,1 -1,2 -1,3 -1,2 -2,3 -2,4 -1,1 -2,1 -2,1 0,0 0,0 0,0 0,0 0,0 0,0 0,-1 0,-1 0,-2 0,-1 1,-1 1,-2 0,0 0,0 0,0 -1,0 -1,0 -1,0 -1,0 -4,1 -8,5 -3,4 -7,9 -9,14 -3,5 -5,10 -5,15 0,1 1,3 1,4 1,2 2,2 4,2 4,0 9,-4 13,-12 4,-8 8,-18 11,-28l0 -9c0,-7 0,-11 0,-11 0,-4 0,-7 0,-9 0,-1 0,-1 0,-1 1,-1 1,-1 2,-1 0,0 1,0 2,1 0,0 1,1 1,2l-1 4z"/>
  <path id="3" class="fil3" d="M211 195c0,0 0,1 0,1 1,1 1,1 1,1 0,1 0,2 -1,3 -1,1 -1,2 -2,2 -1,0 -2,-1 -3,-2 0,-2 0,-4 0,-5 0,-2 0,-7 0,-15l0 -4c0,-1 0,-2 -1,-3 -3,5 -6,10 -9,13 -2,4 -6,8 -10,11 -4,3 -8,5 -12,5 -2,0 -4,-1 -5,-2 -1,-2 -2,-3 -2,-5 0,-3 1,-7 4,-11 2,-5 5,-10 9,-14 4,-5 7,-9 11,-12 3,-2 5,-4 6,-4 1,-1 3,-1 4,-1 1,0 2,0 3,1 1,0 2,1 3,2 1,2 1,3 1,5 0,2 0,4 -1,5l1 0c1,0 2,1 2,3 0,1 0,3 0,6 0,3 0,6 0,8 0,2 0,5 0,7 0,2 0,3 1,5zm-36 1c4,0 7,-1 11,-4 3,-2 6,-5 9,-9 2,-4 5,-8 8,-14 1,-2 2,-4 2,-6 0,-2 -1,-3 -2,-4 -1,-1 -2,-2 -3,-2 -2,0 -4,2 -6,4 -3,2 -7,6 -10,10 -3,4 -6,8 -8,13 -3,4 -4,7 -4,9 0,2 1,3 3,3z"/>
  <path id="4" class="fil3" d="M255 157c0,1 0,5 -1,10 -1,6 -1,9 -1,10 -1,8 -2,14 -2,18 0,5 -1,9 -1,12 0,3 1,5 1,7 1,2 1,3 2,4 0,1 0,1 0,2 0,0 0,1 -1,1 -1,1 -3,1 -4,1 -1,0 -1,-1 -2,-4 0,-2 0,-6 0,-10 0,-4 0,-9 1,-16l1 -13c-2,3 -4,6 -7,10 -2,3 -5,4 -8,4 -2,0 -5,-2 -7,-7 -2,-4 -3,-9 -5,-15 -1,-6 -1,-10 -1,-13 0,-1 0,-2 1,-2 2,0 3,1 3,4 3,19 6,28 11,28 1,0 3,-1 4,-2 2,-2 3,-4 5,-7 1,-1 2,-3 3,-6 1,-2 2,-4 2,-5l1 -10c0,-2 0,-3 1,-4 0,0 0,-1 1,-1 1,0 2,1 2,1 1,1 1,2 1,3z"/>
 </g>
</svg>
