<?xml version="1.0" encoding="iso-8859-1"?>
<!-- Generator: Adobe Illustrator 19.0.0, SVG Export Plug-In . SVG Version: 6.00 Build 0)  -->
<svg version="1.1" id="Layer_1" xmlns="http://www.w3.org/2000/svg" xmlns:xlink="http://www.w3.org/1999/xlink" x="0px" y="0px"
	 viewBox="0 0 479.997 479.997" style="enable-background:new 0 0 479.997 479.997;" xml:space="preserve">
<g>
	<g>
		<path d="M479.99,326.606c-0.003-0.181-0.006-0.361-0.02-0.54c-0.012-0.159-0.032-0.315-0.052-0.473
			c-0.02-0.162-0.038-0.323-0.065-0.483c-0.029-0.167-0.066-0.331-0.104-0.495c-0.034-0.148-0.065-0.296-0.105-0.443
			c-0.046-0.166-0.1-0.328-0.153-0.491c-0.047-0.143-0.092-0.285-0.146-0.425c-0.06-0.156-0.127-0.309-0.194-0.462
			c-0.063-0.143-0.123-0.285-0.192-0.424c-0.07-0.142-0.148-0.279-0.224-0.417c-0.081-0.145-0.16-0.29-0.248-0.43
			c-0.078-0.126-0.162-0.247-0.246-0.37c-0.099-0.144-0.197-0.287-0.303-0.426c-0.087-0.113-0.18-0.222-0.271-0.331
			c-0.114-0.138-0.229-0.274-0.352-0.406c-0.098-0.105-0.2-0.204-0.303-0.305c-0.126-0.124-0.252-0.248-0.385-0.367
			c-0.115-0.102-0.236-0.198-0.356-0.294c-0.129-0.104-0.258-0.21-0.393-0.308c-0.139-0.101-0.284-0.194-0.429-0.288
			c-0.127-0.083-0.253-0.168-0.385-0.245c-0.163-0.096-0.333-0.182-0.503-0.27c-0.124-0.064-0.246-0.129-0.373-0.189
			c-0.18-0.082-0.365-0.154-0.551-0.226c-0.102-0.04-0.199-0.088-0.303-0.125l-33.602-11.889
			c-5.207-1.841-10.921,0.885-12.764,6.092c-1.842,5.206,0.886,10.92,6.092,12.763l14.472,5.121l-30.447,11.68V179.473
			c0-0.232-0.018-0.459-0.034-0.687c0.021-0.275,0.035-0.552,0.034-0.832c-0.009-4.183-2.62-7.918-6.546-9.363l-151.406-55.727
			v-48.82l8.224,8.231c1.953,1.955,4.514,2.932,7.074,2.932c2.558,0,5.115-0.975,7.068-2.926c3.906-3.903,3.909-10.235,0.006-14.142
			l-23.922-23.943c-0.14-0.158-0.275-0.319-0.426-0.471c-1.958-1.957-4.525-2.931-7.09-2.925c-2.565-0.006-5.132,0.969-7.091,2.925
			c-0.154,0.154-0.292,0.319-0.435,0.48l-23.907,23.934c-3.903,3.907-3.9,10.239,0.007,14.142c1.952,1.951,4.51,2.926,7.067,2.926
			c2.561,0,5.121-0.978,7.074-2.932l6.354-6.359v47.754L95.119,168.632c-0.051,0.02-0.099,0.044-0.149,0.064
			c-0.125,0.05-0.248,0.104-0.371,0.158c-0.156,0.07-0.31,0.145-0.462,0.223c-0.105,0.054-0.212,0.106-0.314,0.164
			c-0.229,0.127-0.452,0.262-0.668,0.405c-0.028,0.019-0.058,0.037-0.086,0.056c-0.234,0.159-0.459,0.33-0.678,0.507
			c-0.066,0.054-0.13,0.111-0.194,0.167c-0.162,0.138-0.318,0.279-0.47,0.427c-0.067,0.065-0.134,0.129-0.198,0.196
			c-0.155,0.159-0.304,0.324-0.447,0.493c-0.048,0.055-0.098,0.108-0.144,0.164c-0.179,0.22-0.349,0.447-0.509,0.681
			c-0.052,0.075-0.097,0.153-0.146,0.229c-0.106,0.165-0.209,0.332-0.306,0.504c-0.06,0.104-0.115,0.21-0.17,0.316
			c-0.081,0.156-0.157,0.315-0.229,0.476c-0.049,0.108-0.1,0.215-0.145,0.325c-0.104,0.253-0.199,0.51-0.283,0.772
			c-0.025,0.084-0.045,0.17-0.069,0.254c-0.059,0.202-0.112,0.406-0.157,0.612c-0.024,0.109-0.044,0.219-0.064,0.329
			c-0.037,0.201-0.068,0.403-0.093,0.607c-0.012,0.098-0.025,0.194-0.034,0.292c-0.027,0.298-0.046,0.598-0.047,0.901
			c0,0.004,0,0.008,0,0.013c0,0.003,0,0.006,0,0.009v171.179l-50.727-16.263l17.434-7.23c5.102-2.116,7.521-7.966,5.406-13.068
			c-2.117-5.102-7.965-7.521-13.068-5.407L8.012,323.659c-0.923,0.383-1.755,0.891-2.491,1.492
			c-4.651,2.33-6.781,7.886-4.755,12.765l16.509,39.741c1.599,3.846,5.318,6.166,9.239,6.166c1.278,0,2.578-0.247,3.832-0.768
			c5.101-2.119,7.518-7.971,5.399-13.071l-8.051-19.38l69.143,22.167c0.621,0.199,1.247,0.327,1.871,0.402l119.432,38.259
			c-0.394,1.988-0.605,4.04-0.605,6.142c0,17.436,14.186,31.622,31.622,31.622c17.408,0,31.57-14.185,31.57-31.622
			c0-0.703-0.031-1.399-0.076-2.091l96.825-37.734c0.059-0.021,0.118-0.036,0.176-0.058l77.479-29.724l-1.907,8.711
			c-1.181,5.395,2.235,10.726,7.63,11.907c0.721,0.158,1.44,0.233,2.148,0.233c4.597,0,8.735-3.189,9.759-7.864l7.008-32.015
			c0.022-0.1,0.031-0.199,0.05-0.299c0.039-0.207,0.077-0.413,0.104-0.619c0.015-0.128,0.022-0.256,0.033-0.385
			c0.018-0.2,0.034-0.4,0.039-0.6C479.999,326.892,479.993,326.749,479.99,326.606z M239.135,387.617
			c-3.973,1.33-7.594,3.426-10.691,6.115l-119.761-38.365V192.562h0.001l130.451,50.432V387.617z M239.136,221.551l-112.563-43.516
			l112.563-42.959V221.551z M259.136,134.176l119.165,43.86l-119.165,44.429V134.176z M397.088,348.641l-124.024,48.333
			c-3.678-4.268-8.472-7.542-13.928-9.366V243.809l137.952-51.433V348.641z"/>
	</g>
</g>
<g>
</g>
<g>
</g>
<g>
</g>
<g>
</g>
<g>
</g>
<g>
</g>
<g>
</g>
<g>
</g>
<g>
</g>
<g>
</g>
<g>
</g>
<g>
</g>
<g>
</g>
<g>
</g>
<g>
</g>
</svg>
