<?xml version="1.0" encoding="UTF-8"?>
<!DOCTYPE svg PUBLIC "-//W3C//DTD SVG 1.1//EN" "http://www.w3.org/Graphics/SVG/1.1/DTD/svg11.dtd">
<!-- Creator: CorelDRAW X7 -->
<svg xmlns="http://www.w3.org/2000/svg" xml:space="preserve" width="1.9128mm" height="5.2499mm" version="1.1" style="shape-rendering:geometricPrecision; text-rendering:geometricPrecision; image-rendering:optimizeQuality; fill-rule:evenodd; clip-rule:evenodd"
viewBox="0 0 2042 5606"
 xmlns:xlink="http://www.w3.org/1999/xlink">
 <defs>
  <style type="text/css">
   <![CDATA[
    .str0 {stroke:#84716B;stroke-width:266.939}
    .fil0 {fill:none}
   ]]>
  </style>
 </defs>
 <g id="Layer_x0020_1">
  <metadata id="CorelCorpID_0Corel-Layer"/>
  <g id="_534460224">
   <path class="fil0 str0" d="M1238 5089c34,193 68,387 211,383 144,-3 396,-204 413,-454 17,-250 -201,-551 -441,-821 -240,-269 -502,-508 -724,-736 -222,-228 -404,-444 -495,-552 -91,-108 -91,-108 -91,-108"/>
   <path class="fil0 str0" d="M1283 517c35,-193 69,-387 212,-384 143,4 396,204 413,455 17,250 -201,551 -441,820 -241,270 -502,509 -724,737 -222,227 -404,444 -495,552 -91,108 -91,108 -91,108"/>
  </g>
 </g>
</svg>
