<?xml version="1.0" encoding="UTF-8"?>
<!DOCTYPE svg PUBLIC "-//W3C//DTD SVG 1.1//EN" "http://www.w3.org/Graphics/SVG/1.1/DTD/svg11.dtd">
<!-- Creator: CorelDRAW X7 -->
<svg xmlns="http://www.w3.org/2000/svg" xml:space="preserve" width="4.9611mm" height="6.0866mm" version="1.1" style="shape-rendering:geometricPrecision; text-rendering:geometricPrecision; image-rendering:optimizeQuality; fill-rule:evenodd; clip-rule:evenodd"
viewBox="0 0 14010 17189"
 xmlns:xlink="http://www.w3.org/1999/xlink">
 <defs>
  <style type="text/css">
   <![CDATA[
    .str0 {stroke:#84716B;stroke-width:282.403}
    .fil0 {fill:#87746F}
   ]]>
  </style>
 </defs>
 <g id="Layer_x0020_1">
  <metadata id="CorelCorpID_0Corel-Layer"/>
  <path class="fil0 str0" d="M3075 7133c61,-285 59,-140 179,-380 199,94 521,172 719,246 -243,69 -114,-54 -437,100 -140,66 -302,68 -461,34zm-2919 4915l123 -262c39,-54 88,-108 147,-163 333,-308 525,-334 809,-472 118,-57 139,-76 271,-124 948,-338 1355,-461 2350,-666 1071,-220 2660,-466 3747,-379l1041 174c150,23 199,6 328,34 -48,-246 -355,-390 -378,-875 -225,2 -422,-262 -615,-410 -234,-180 -372,-258 -639,-433 -423,-278 -996,-562 -1509,-785 -191,-83 -207,-54 -397,-138 -139,-61 -269,-140 -414,-185 -1724,-539 -1297,24 -2037,-135 39,-218 -95,-145 195,-512l-287 -181c155,73 227,79 392,124 517,141 127,107 1122,310 418,85 1079,275 1534,491 199,95 242,85 400,143l1093 614c503,304 794,557 1214,889 32,-149 -7,-283 -46,-425 -310,-1133 -431,-1583 -534,-2776 -12,-146 -7,-278 -12,-438l-66 -1239c-30,-1027 -339,-1343 305,-1373 44,80 83,275 67,389 -22,166 -132,201 -217,421 -74,193 -50,640 -36,836 74,1063 278,2040 439,3063 42,267 124,493 186,753 40,169 210,538 176,727 116,-18 232,-46 355,-65 22,51 -6,2 42,80l113 148c71,79 113,120 212,177 84,-226 179,-1866 219,-2352 133,-1636 671,-3498 1488,-5019 192,-358 513,-787 749,-1078 226,-280 178,-144 404,-457 184,-254 246,-180 458,-308 185,147 328,338 471,494 140,153 272,367 416,482l-63 135c-218,-297 -520,-726 -840,-979 -308,47 -263,150 -486,403 -100,113 -144,130 -235,227 -586,625 -1325,2094 -1579,2913 -212,685 -549,1979 -626,2657 -48,419 -113,831 -130,1246 -105,2517 -184,1739 -705,1327 -102,34 -176,58 -259,157l-76 -36c22,-121 -29,-318 -85,-412 -32,175 50,253 20,404 -32,161 -199,185 145,705 99,150 165,149 132,332 -241,131 -1013,-79 -1340,-127 -1081,-157 -3215,205 -4376,472l-890 248c-462,149 -926,268 -1420,529 -1471,778 -553,1389 128,1940 184,148 359,273 559,430 331,258 861,748 1189,833 1794,465 3097,-1000 4387,-2203 426,-397 1577,-1575 2000,-1639 505,399 -456,1128 -1052,1993l-844 1340c-331,709 -640,1407 -509,1952 63,265 215,534 561,656 1410,497 2642,542 2848,-1219l105 -922c17,-298 35,-618 30,-895 -6,-356 -29,-510 -98,-849 -175,-858 -255,-803 -261,-1642 716,337 706,613 1205,1145 442,472 242,209 486,616 172,288 525,111 660,-50 -14,-93 -43,-283 -111,-353l-825 -825c-435,-439 -884,-778 -905,-1222 183,33 138,-51 358,28l1099 427 576 257c-11,3 -26,2 -34,2l-454 -104c-641,-187 -1103,-515 -1411,-500 -46,255 583,785 738,934 171,164 287,305 430,445l435 444c97,-123 78,-112 203,-136 -141,300 -19,427 16,657 -71,83 -263,180 -366,213 -515,164 -401,-195 -729,-514 -147,-143 -295,-310 -409,-453 -207,-259 -504,-702 -884,-881 60,1291 451,1139 362,2964 -74,1503 -117,3036 -2076,2808 -605,-71 -1476,-330 -1628,-908 -321,-1229 1229,-3455 2105,-4442 476,-536 357,-417 439,-799l-152 -71c-90,114 -162,137 -274,205 -389,237 -1356,1218 -1715,1552 -885,825 -1922,1884 -3115,2137 -833,177 -1339,-12 -1970,-528 -187,-153 -357,-286 -549,-434 -534,-410 -1563,-1029 -1414,-1689zm3873 -5069c27,-9 206,122 59,53 0,0 -5,-4 -5,-4 -30,-24 -148,-15 -54,-49zm4617 2128l0 0zm-4447 -2094c60,-22 116,128 33,39 0,0 -126,-5 -33,-39zm170 33c61,-21 181,155 53,49 -29,-24 -147,-15 -53,-49zm304 143l-152 -71c93,-12 -64,-83 91,4 79,45 32,19 61,67zm74 -57l190 89 -18 38 -190 -90 18 -37zm228 107l18 -38c457,215 907,334 1480,604 625,294 1352,759 1895,1181l186 218c-319,-151 -452,-351 -748,-553 -471,-321 -1311,-817 -1828,-993l-1003 -419zm3776 1546l-20 -56 20 56zm-20 -56l-20 -56 20 56zm-42 -205c55,95 47,29 22,149 -55,-95 -47,-29 -22,-149zm0 0l-20 -56 20 56zm-20 -56l-20 -56 20 56zm-20 -56l-21 -56 21 56zm-21 -56l-20 -56 20 56zm-20 -56l-20 -56 20 56zm-20 -56l0 0zm-22 -150l0 0zm0 0l-20 -56 20 56zm-20 -56l-20 -56 20 56zm-20 -56l-21 -55 21 55zm-21 -55l0 0zm-22 -150l0 0zm0 0l-20 -56 20 56zm-20 -56l-20 -56 20 56zm-22 -150l2 94 -2 -94zm0 0l-20 -56 20 56zm-20 -56l-20 -56 20 56zm-22 -150l2 94 -2 -94zm0 0l-21 -56 21 56zm-43 -206c55,96 47,29 22,150 -55,-95 -47,-29 -22,-150zm0 0l-20 -56 20 56zm-42 -206c55,96 47,30 22,150 -55,-95 -47,-29 -22,-150zm-23 -149c55,95 48,29 23,149 -55,-95 -48,-29 -23,-149zm-44 -300c50,92 66,180 44,300 -75,-126 -80,-134 -44,-300zm-23 -150c56,96 48,29 23,150 -55,-95 -47,-29 -23,-150zm0 0l-20 -56 20 56zm-22 -150l2 94 -2 -94zm0 0l0 0zm-22 -150l6 17c0,-1 -12,-15 -6,-17zm-182 -2965c30,-65 118,-118 166,-155 230,195 32,438 -99,604 -52,-86 -120,-338 -67,-449z"/>
 </g>
</svg>
