<?xml version="1.0" encoding="UTF-8"?>
<!DOCTYPE svg PUBLIC "-//W3C//DTD SVG 1.1//EN" "http://www.w3.org/Graphics/SVG/1.1/DTD/svg11.dtd">
<!-- Creator: CorelDRAW X7 -->
<svg xmlns="http://www.w3.org/2000/svg" xml:space="preserve" width="19.8732mm" height="28.2568mm" version="1.1" style="shape-rendering:geometricPrecision; text-rendering:geometricPrecision; image-rendering:optimizeQuality; fill-rule:evenodd; clip-rule:evenodd"
viewBox="0 0 278644 396191"
 xmlns:xlink="http://www.w3.org/1999/xlink">
 <defs>
  <style type="text/css">
   <![CDATA[
    .fil0 {fill:#D7D4C8}
   ]]>
  </style>
 </defs>
 <g id="Layer_x0020_1">
  <metadata id="CorelCorpID_0Corel-Layer"/>
  <g id="_533430056">
   <path class="fil0" d="M272539 109917c-1069,-965 -2030,-1594 -3628,-2441 -1334,4635 -93,1467 -282,3798 -91,1467 -407,1658 -1132,3507 7765,2361 1083,2168 4906,2878 -2633,1795 323,411 -3283,373 -2586,6604 -1327,5237 -49,5675 2236,1067 3386,-637 5295,-581 -2299,3406 -3697,1429 -6507,6757l-2864 -83c-2076,4682 -1035,2642 -4301,4818 -3582,2367 -10849,7365 -15421,6099 -444,-1950 85,-2068 -673,-3826 -2390,-5611 -2147,-2532 4653,-11886 944,-1175 1990,-2613 3249,-3979 2310,-2204 2425,-1266 3685,-2632 3248,-3980 154,-5939 5956,-9043 3058,-1648 4955,-2796 7790,-5718 2566,2076 2151,3133 2606,6284z"/>
   <path class="fil0" d="M192043 97912c-862,-1494 -438,-1349 -979,-2433 -1305,-3443 -3556,-5712 -5482,-7571 -1398,-1977 -1307,-3442 -2595,-5083 -3653,-4847 -3745,-3380 -6461,-10002 -2497,-5949 -577,-4692 -267,-5484 1358,-2231 494,-3725 -162,-5747 -6,-602 -985,-3034 -985,-3034 -218,-673 -218,-673 -120,-1540l723 -1848c6045,-26 7898,5103 9952,9101 1295,2242 5586,7307 7003,11088 1531,4718 -1467,1894 2710,6021 1604,1448 2151,3134 3342,5639 2711,6022 -3924,10638 -6679,10893z"/>
   <path class="fil0" d="M203438 145853l2254 2870c-1033,2640 -1574,1557 -1964,5018 -195,1731 953,27 -719,2450 0,0 -103,263 -103,263 -317,193 -317,193 -420,456 -2092,2879 -724,1850 -2621,2996 -213,-72 -2110,1074 -2640,1194 -8756,4488 -5234,-3891 -14836,907 -2110,1074 -2001,1410 -5071,1856 -1697,18 -3497,300 -5625,-429 -985,-3034 -1548,-6522 1814,-9564 1363,-1630 -6,-601 2323,-1001l5285 -1785c2432,-663 5077,-1255 8136,-2903 2427,-1265 2209,-1940 5272,-2985 2019,391 2548,273 3072,-446 0,0 310,-793 833,-1512l1575 -1558c2141,1931 1829,2725 3435,4173z"/>
   <path class="fil0" d="M108320 6014l-2817 4726c-2870,-684 -3606,-38 -5826,700 -1057,237 -1689,618 -2748,855l-2323 1001c-2110,1074 -8678,1820 -11116,1883 -5192,319 -2535,928 -4669,-402 -1387,-774 -1507,-2314 -3751,-3981 -1921,-1257 -1168,-101 -2456,-1740 -2042,-2797 -1750,-5392 21,-8680 14088,-1464 20058,1780 27063,2383 5515,93 3325,3835 8622,3255z"/>
   <path class="fil0" d="M132713 156966l-4226 1548c-2220,738 -3497,300 -5516,-92 -2127,-729 -219,-675 -2127,-729 -530,117 -523,719 -2537,928 -1696,18 -949,573 -1811,-920 -645,-820 -213,-73 -115,-938 0,0 102,-265 102,-265l98 -865c-5746,-1969 -9915,-5495 -16604,-6289 -4779,-739 -2864,-82 -5532,-1895 -6402,-3992 -7029,-3008 -6317,-6060 1059,-236 7443,1952 11687,2208 1166,100 2231,464 3399,565 5940,239 6906,1468 10190,1095 3922,-154 3082,757 6481,1322 2019,393 3923,-152 6798,1132 1065,364 3095,1959 4590,3071 2779,2150 2571,2678 1440,6184z"/>
   <path class="fil0" d="M165191 385883c-39,6877 3380,-1238 -562,7597 -2074,4680 -3260,2776 -4152,-1723 -1434,-5584 -2347,-1404 -3396,-11050 -704,-6832 -2758,-10830 -708,-17917 926,-2978 -1761,-6595 3609,-10447 3508,903 4146,1122 4833,6150l-189 2332c-86,2068 3031,6431 -216,10412 3756,4582 1209,4307 1256,9118l-475 5528z"/>
   <path class="fil0" d="M170441 208540c-559,-2888 535,482 92,-1467 -554,-2286 0,0 -1611,-2049 4320,-13499 5834,-10584 7891,-17068 924,-2978 966,1229 2293,-4008 919,-3579 68,-3871 4932,-5200 -272,-6084 1339,-4034 2398,-4271 2139,1932 1075,1568 472,4955 -603,3389 24,2405 473,4955l-1613 8435 -6661 12695c-2563,9009 -3158,2514 -8666,3023z"/>
   <path class="fil0" d="M44248 35883c-1006,5648 -3954,7631 -4997,20157 -190,2331 -907,4781 -1522,6967 -5814,1902 -1047,1438 -4756,1665 -1512,-2915 -133,-2741 -466,-4353 103,-265 -110,-338 -110,-338l-765 -2358c-1216,-4911 -2123,-129 -2279,-5275 -127,-2141 86,-2068 2298,-3406 -2163,-4337 -443,-1950 -1225,-6112 -773,-2961 -1728,-2989 353,-7069 3017,-5855 8885,-2347 13469,122z"/>
   <path class="fil0" d="M55567 119147c2134,1331 1702,583 2571,2680 -1995,2012 -6762,2474 -9011,207 -109,-338 -2048,-3399 -2158,-3735 -2267,-4073 -1877,-7534 -5737,-11852 -6328,-7262 -4631,-7279 -1742,-15276 6178,2716 5242,4492 10201,12781 1294,2242 3222,4100 4625,6679 2906,4290 2043,2797 1251,8516z"/>
   <path class="fil0" d="M154836 24050l-3719 -975c-306,1393 437,1348 1093,3370 656,2022 -305,1394 1094,3371 -1376,428 -2440,63 -4239,345 -1241,3169 -1320,5838 2807,5155 5188,-918 4676,1004 7851,293 2427,-1264 913,-4179 677,-6657 1495,1112 851,292 1817,1521 2249,2269 -627,983 2911,4892 -2816,4727 -3339,5446 -6003,4235 -1173,-703 -1811,-921 -3300,-1432 -7765,-2361 -4014,1621 -10865,-4921 -645,-819 -747,-555 -1070,-965l-645 -820c-1288,-1641 -5,-602 -1086,-2769l-2481 -4146c-1192,-2504 -2996,-2824 -4498,-4536l-2048 -3399c-438,-1349 -467,-4353 256,-6203 7661,2625 8542,5923 16324,10087 2237,1067 3940,1650 5124,3554z"/>
   <path class="fil0" d="M203438 145853c-1606,-1448 -1294,-2242 -3435,-4173l-1575 1558c-523,719 -833,1512 -833,1512 -524,719 -1053,837 -3072,446 1059,-237 1272,-165 2214,-1340 -2054,-3998 -6936,-4474 -5571,-16588 470,-6130 -2651,-10 209,-11012 505,-2522 -18,-1803 592,-4591 4899,2279 4797,2542 5872,4110 4954,7689 1179,1303 3385,9847l848 10775c-269,5002 48,4810 1366,9456z"/>
   <path class="fil0" d="M120377 271669c-2019,-393 -3406,-1167 -4993,-812l-1580 956c-1733,-3589 -11613,-5478 -14592,-6499 -1277,-437 -4250,-856 -6591,-1658 1982,-3215 1357,-2233 4214,-2750 -1921,-1258 -2675,-2414 -5234,-3891 529,-119 -92,1467 937,-1776 104,-264 97,-865 512,-1923 3495,-298 7216,676 11247,860 213,73 427,146 323,409 109,338 322,411 322,411 3135,6167 -189,2332 9193,7343 3732,2179 4680,1605 5895,6514 334,1613 438,1349 347,2816z"/>
   <path class="fil0" d="M4326 267251c1585,-355 2219,-738 4018,-1020 1070,966 869,2095 1094,3371 3934,1047 4986,210 10921,-153 4980,-390 9523,-2128 9886,2489 346,2815 -281,3798 -1534,5765 -10673,3832 -9614,3597 -25367,-2401l982 -8051z"/>
   <path class="fil0" d="M118457 259927c-1283,-1039 -2204,-8544 -2204,-8544 718,-2451 6070,-8106 8382,-10310 0,0 315,-190 315,-190 2209,-1940 3375,-1840 5578,-4381 2621,-2996 3114,-6721 7900,-5381 674,3826 -2022,10092 -4541,12824 -838,911 -315,192 -1160,500 -4325,2413 -3765,5302 -6381,8898 -1150,1704 213,73 -943,1175 -5997,4836 -4294,5419 -6946,5409z"/>
   <path class="fil0" d="M143129 299237l-2451 -1140c-109,-336 -547,-1685 -547,-1685 -120,-1540 -638,-219 98,-865 -2110,1074 -2542,328 -3905,1957l5610 9711c1398,1977 232,1877 2249,2269l-1321 5838 2974 421c121,1538 -200,1128 30,3004 3940,1651 432,748 3812,-490 1617,2651 139,3342 4262,2059l190 -2331c2455,1740 1392,1375 680,4426l4279 3864c-1035,2640 -1350,2832 -3242,4581l-2835 2923c-2236,-1067 -213,-73 -3118,-4364 0,0 -109,-337 -109,-337 -2583,-3881 -2657,-611 -6024,-8655 -109,-337 -109,-337 -322,-410l-1087 -2769c-5179,-8963 -904,-5702 -3920,-10331 -431,-745 -1076,-1566 -1610,-2049 -973,-1832 -437,-1348 -984,-3033 -766,-2360 -2705,-5421 -2832,-7562l1058 -235c5187,-920 9868,685 9065,5203z"/>
   <path class="fil0" d="M65931 245522c-1787,1485 -3161,1913 -6031,1228 -8719,-2387 1301,2844 -12744,-1970 2068,-5281 2766,948 -3154,-7971 5589,-3177 5169,-2721 13353,-816 5952,1440 7898,5103 8576,9529z"/>
   <path class="fil0" d="M15593 237860c1691,-619 3801,-1694 5607,-1375 -822,2715 -1046,1439 -1363,1631l-1758 4490c-724,1849 -609,2787 -1862,4754 -2092,2877 -516,1321 -3691,2031 -3600,563 -4415,3879 -7170,4133 -4025,418 -2772,-1549 -2991,-2224 -1301,-2842 -541,-1084 -2365,-3206 2057,-6485 9889,-7995 15593,-10234z"/>
   <path class="fil0" d="M85188 273390c-3399,-565 -7827,2112 -10666,4434l-8506 -2315 1763 -3889c6045,-27 226,1274 5752,2570 1259,-1366 311,-793 1891,-1749 184,-2933 243,3079 -224,-1276 -115,-938 -627,985 -128,-2139l3060 -1649c3265,-2176 4956,-2795 9195,-3140 213,73 425,146 425,146 741,-46 2329,-401 4273,3262 -1775,2686 0,0 -1891,1748 -1155,1102 0,0 -1052,838 -2512,3333 -395,2859 -3892,3159z"/>
   <path class="fil0" d="M143129 299237c2662,1211 753,1157 2260,3470 1835,3326 5057,7426 6260,11133 1848,4527 2561,1476 2481,4145l-190 2331c-4123,1283 -2645,592 -4262,-2059 -3380,1238 128,2141 -3812,490 -230,-1876 91,-1466 -30,-3004l-2974 -421 1321 -5838c-2017,-392 -851,-292 -2249,-2269l-5610 -9711c1363,-1629 1795,-883 3905,-1957 -736,646 -218,-675 -98,865 0,0 438,1349 547,1685l2451 1140z"/>
   <path class="fil0" d="M85188 273390c-2403,3671 -2748,856 -8751,5090 -3053,2249 -408,1657 -2627,2395 -2014,209 -1491,-510 -3497,300 -3065,1047 -1241,3169 -9121,-130 1132,-3506 2143,-8552 6582,-10027 6130,-2093 7383,-4060 10356,-3641l-3060 1649c-499,3124 13,1201 128,2139 467,4355 408,-1657 224,1276 -1580,956 -632,383 -1891,1749 -5526,-1296 293,-2597 -5752,-2570l-1763 3889 8506 2315c2839,-2322 7267,-4999 10666,-4434z"/>
   <path class="fil0" d="M272539 109917c1623,3253 1951,4264 6104,5987 -1137,2905 -1430,5501 -2580,7204l-1697 18c-1909,-56 -3059,1648 -5295,581 -1278,-438 -2537,929 49,-5675 3606,38 650,1422 3283,-373 -3823,-710 2859,-517 -4906,-2878 725,-1849 1041,-2040 1132,-3507 189,-2331 -1052,837 282,-3798 1598,847 2559,1476 3628,2441z"/>
   <path class="fil0" d="M160400 28952c236,2478 1750,5393 -677,6657 -3175,711 -2663,-1211 -7851,-293 -4127,683 -4048,-1986 -2807,-5155 1799,-282 2863,83 4239,-345 -1399,-1977 -438,-1349 -1094,-3371 -656,-2022 -1399,-1977 -1093,-3370l3719 975 5564 4902z"/>
  </g>
 </g>
</svg>
