<?xml version="1.0" encoding="UTF-8"?>
<!DOCTYPE svg PUBLIC "-//W3C//DTD SVG 1.1//EN" "http://www.w3.org/Graphics/SVG/1.1/DTD/svg11.dtd">
<!-- Creator: CorelDRAW X7 -->
<svg xmlns="http://www.w3.org/2000/svg" xml:space="preserve" width="22.541mm" height="28.4451mm" version="1.1" style="shape-rendering:geometricPrecision; text-rendering:geometricPrecision; image-rendering:optimizeQuality; fill-rule:evenodd; clip-rule:evenodd"
viewBox="0 0 335419 423275"
 xmlns:xlink="http://www.w3.org/1999/xlink">
 <defs>
  <style type="text/css">
   <![CDATA[
    .fil0 {fill:#D7D4C8}
   ]]>
  </style>
 </defs>
 <g id="Layer_x0020_1">
  <metadata id="CorelCorpID_0Corel-Layer"/>
  <g id="_400356096">
   <path class="fil0" d="M3402 191309c632,-1393 1300,-2413 2497,-3914 3261,3945 709,1387 1882,3576 711,1388 1100,1440 2588,2933 -6554,5587 -134,2567 -3554,4880 3323,630 -140,536 3353,-1029 5315,5328 3512,4534 2454,5501 -1725,1985 -3566,815 -5399,1679 3680,2339 4202,-178 9195,3815l2751 -1293c4003,3675 2126,2131 6226,2864 4489,784 13679,2569 17590,-602 -394,-2085 -960,-1975 -966,-4008 -53,-6473 1015,-3373 -9566,-9592 -1415,-744 -3043,-1700 -4847,-2495 -3183,-1165 -2897,-204 -4701,-999 -4846,-2495 -2666,-5714 -9627,-6275 -3674,-308 -6007,-619 -10004,-2261 -1615,3108 -765,3961 128,7220z"/>
   <path class="fil0" d="M76636 145510c206,-1819 -146,-1497 -79,-2782 -189,-3903 1038,-7063 2126,-9688 522,-2516 -189,-3905 371,-6046 1500,-6265 2209,-4876 2046,-12471 -91,-6847 -1427,-4810 -2066,-5448 -2264,-1597 -2058,-3417 -2276,-5662 -250,-588 -329,-3369 -329,-3369 -73,-748 -73,-748 -534,-1549l-1488 -1491c-5892,2536 -5521,8311 -5825,13072 -311,2731 -2339,9478 -2114,13756 510,5241 2229,1222 -85,7007 -948,2091 -765,3961 -863,6905 -85,7007 8327,8687 11116,7766z"/>
   <path class="fil0" d="M85867 196985l-977 3749c2125,2131 2192,848 4038,4050 924,1601 -916,432 1738,2079 0,0 212,213 212,213 390,52 390,52 602,266 3255,1912 1488,1491 3820,1804 176,-161 2509,150 3073,41 10424,657 3445,-6004 14821,-5406 2509,152 2544,526 5721,-342 1658,-701 3530,-1190 5290,-2802 -327,-3367 -1257,-7001 -5818,-8535 -2016,-1009 -248,-588 -2684,10l-5899 503c-2647,385 -5471,930 -9147,624 -2897,-203 -2970,-951 -6396,-672 -1797,1238 -2363,1347 -3176,868 0,0 -637,-638 -1451,-1118l-2194 -846c-1263,2785 -625,3425 -1573,5514z"/>
   <path class="fil0" d="M119147 20609l4744 3407c2503,-1883 3493,-1564 5966,-1789 1129,-217 1906,-113 3036,-332l2685 -10c2508,151 9214,-1908 11613,-2880 5187,-1891 2862,-171 4373,-2370 1021,-1341 487,-2890 1962,-5463 1336,-2037 1093,-592 1653,-2735 802,-3586 -583,-5988 -3699,-8437 -14329,4547 -18763,10235 -25322,13790 -5328,2428 -1610,5141 -7011,6819z"/>
   <path class="fil0" d="M159392 177824l4769 -286c2471,-223 3528,-1190 5325,-2427 1762,-1611 -71,-748 1762,-1611 566,-109 814,479 2862,-171 1657,-703 1165,156 1372,-1664 279,-1070 177,-161 -286,-961 0,0 -211,-213 -211,-213l-463 -801c4756,-4351 7320,-9550 13491,-13157 4337,-2744 2751,-1295 4580,-4189 4537,-6596 5564,-5906 3577,-8572 -1129,218 -6413,5051 -10436,7101 -1092,592 -1973,1397 -3067,1991 -5678,2748 -6097,4355 -9450,5383 -3881,1514 -2679,2043 -5747,4034 -1797,1237 -3881,1512 -6134,3982 -880,805 -2181,3217 -3165,4933 -1791,3269 -1366,3696 1221,6628z"/>
   <path class="fil0" d="M224812 414321c2952,6676 -3814,229 3766,7153 4003,3676 4350,1322 3311,-3436 -972,-6040 1687,-2360 -1379,-12190 -2212,-6944 -1908,-11706 -6906,-17733 -2163,-2505 -1081,-7163 -7939,-8635 -3031,2366 -3560,2850 -2095,8033l1172 2189c960,1974 -224,7543 4622,10038 -1713,6050 650,4704 2643,9403l2805 5178z"/>
   <path class="fil0" d="M144541 243994c-680,-3046 -316,697 -711,-1388 -430,-2458 0,0 699,-2677 -9925,-11302 -10162,-7824 -14912,-13262 -2162,-2505 -419,1606 -3930,-2927 -2410,-3093 -1706,-3738 -7002,-2970 -2314,-6035 -3014,-3357 -4143,-3139 -1263,2787 -382,1980 1640,5022 2022,3041 997,2349 1640,5022l5144 7522 11862 9529c6311,7679 4137,1107 9713,-732z"/>
   <path class="fil0" d="M194149 22519c3371,5068 7082,5749 13405,17493 1172,2189 2909,4268 4434,6134 6462,-613 1628,956 5333,-395 237,-3477 -1033,-2724 -1391,-4434 -213,-213 -38,-375 -38,-375l-254 -2619c-899,-5293 2010,-1024 -18,-6098 -784,-2137 -960,-1976 -3681,-2339 268,-5137 -395,-2085 -1398,-6467 -502,-3208 414,-3640 -3340,-6728 -5417,-4419 -9638,1481 -13052,5828z"/>
   <path class="fil0" d="M218425 108331c-1512,2198 -1409,1289 -1366,3695 2793,1113 7628,-457 8855,-3618 -37,-373 553,-4174 517,-4547 479,-4924 -1366,-8126 559,-13964 3079,-9747 1421,-9046 -4781,-15601 -4858,5261 -3195,6592 -4507,16760 -310,2729 -1396,5354 -1670,8458 -1009,5406 -802,3586 2393,8817z"/>
   <path class="fil0" d="M81531 57876l3208 -2527c887,1226 146,1497 365,3743 217,2245 885,1227 363,3742 1519,-165 2400,-972 4271,-1460 2550,2558 3760,5121 -546,6207 -5438,1305 -4125,2958 -7515,3613 -2897,-204 -2661,-3682 -3480,-6192 -984,1716 -704,644 -1124,2252 -1226,3160 1027,690 -759,5992 4744,3406 5558,3884 7635,1576 844,-1180 1372,-1662 2606,-2792 6553,-5587 4592,-123 8485,-9392 279,-1070 492,-857 632,-1393l280 -1072c558,-2141 -250,-586 -116,-3154l656 -5085c97,-2942 1719,-4018 2454,-6321l553 -4174c-145,-1497 -1391,-4434 -2879,-5927 -6342,5802 -5800,9384 -11608,16733 -1725,1987 -3134,3275 -3481,5631z"/>
   <path class="fil0" d="M85867 196985c948,-2089 310,-2729 1573,-5514l2194 846c814,480 1451,1118 1451,1118 813,479 1379,370 3176,-868 -1129,219 -1306,380 -2721,-363 305,-4763 4854,-7294 -1609,-18502 -3055,-5765 2576,-1132 -4872,-10626 -1561,-2241 -747,-1762 -2520,-4216 -3802,4293 -3589,4508 -3972,6488 -1561,9580 -595,1766 881,11015l3741 10845c2381,4751 1992,4699 2678,9777z"/>
   <path class="fil0" d="M220008 284200c1799,-1239 2819,-2579 4514,-2907l1943 261c165,-4226 8977,-10251 11445,-12507 1056,-967 3770,-2636 5709,-4408 -3293,-2288 -2266,-1596 -5266,-890 1336,-2037 1579,-3482 3443,-6004 -565,110 712,1388 -1663,-1330 -213,-213 -463,-801 -1313,-1653 -3529,1190 -6736,3715 -10581,5602 -176,162 -351,323 -140,536 37,375 -138,535 -138,535 -438,7331 1171,2189 -5832,11042 -2710,3701 -3875,3544 -2976,8837 358,1710 146,1497 855,2886z"/>
   <path class="fil0" d="M331052 230715c-1693,327 -2472,223 -4342,711 -633,1393 43,2408 364,3744 -3383,2686 -4761,2317 -10690,4479 -5011,1732 -10167,1964 -8565,6613 857,2885 1884,3576 3936,4960 12009,-795 10879,-578 23664,-13089l-4367 -7418z"/>
   <path class="fil0" d="M216900 271962c806,-1555 -1476,-9248 -1476,-9248 -1738,-2081 -9342,-5314 -12525,-6479 0,0 -388,-52 -388,-52 -2971,-951 -4064,-359 -7283,-1898 -3821,-1803 -5879,-5220 -9968,-1888 965,4009 6245,8963 9852,10555 1202,530 388,52 1342,-6 5231,515 5911,3561 9980,5953 1840,1170 -177,161 1416,743 7883,2164 6474,3452 9050,2320z"/>
   <path class="fil0" d="M209555 320665l1902 -2147c-38,-373 -182,-1872 -182,-1872 -536,-1549 528,-482 -463,-800 2509,151 2612,-758 4630,250l-1344 11827c-522,2516 571,1924 -1226,3160l3760 5121 -2716 1668c535,1550 674,1015 1246,2937 -3135,3275 -104,911 -3918,1138 -450,3265 1281,3313 -3274,3811l-1172 -2189c-1652,2735 -771,1929 1214,4595l-2527 5573c2127,2133 2515,2185 5097,3083l3997 1643c1724,-1985 175,-160 1184,-5567 0,0 -37,-375 -37,-375 869,-4870 2327,-1720 2193,-10972 -37,-375 -37,-375 140,-536l-116 -3156c1240,-10916 -1536,-5932 -564,-11713 103,-909 382,-1980 698,-2677 170,-2193 -146,-1497 -327,-3368 -256,-2619 333,-6420 -450,-8557l-1131 219c-5436,1304 -9310,4850 -6614,8904z"/>
   <path class="fil0" d="M261901 235685c2369,686 3887,519 6390,-1362 7471,-6019 -61,3317 11565,-7318 -4251,-4263 -2290,2094 -310,-9093 -6785,-722 -6184,-457 -13338,4866 -5182,3924 -5521,8312 -4307,12907z"/>
   <path class="fil0" d="M307632 206894c-1908,113 -4415,-37 -6037,1039 1949,2293 1628,957 2016,1009l3614 3623c1489,1493 1774,2454 3826,3836 3256,1914 1063,1067 4452,413 3743,-978 5941,1901 8729,982 4094,-1299 2040,-2682 1968,-3430 61,-3317 66,-1284 941,-4124 -4749,-5437 -13010,-3587 -19509,-3348z"/>
   <path class="fil0" d="M254976 270960c3068,-1991 8510,-1261 12258,-206l7295 -5859 -3365 -3035c-5892,2537 322,1336 -4507,4938 -1803,-796 -638,-639 -2582,-900 -1421,-2777 1069,3098 -321,-1336 -286,-961 1027,692 -784,-2137l-3674 -307c-4101,-733 -6008,-619 -10278,843 -176,160 -351,321 -351,321 -741,271 -2436,598 -2777,4985 2867,1862 0,0 2582,900 1590,582 0,0 1378,369 3857,2179 1598,2615 5126,1424z"/>
   <path class="fil0" d="M209555 320665c-2077,2308 -243,1445 -729,4335 -377,4013 -1772,9369 -1372,13485 122,5189 -1865,2522 -656,5084l1172 2189c4555,-498 2824,-546 3274,-3811 3814,-227 783,2137 3918,-1138 -572,-1922 -711,-1387 -1246,-2937l2716 -1668 -3760 -5121c1797,-1236 704,-644 1226,-3160l1344 -11827c-2018,-1008 -2121,-99 -4630,-250 991,318 -73,-749 463,800 0,0 144,1499 182,1872l-1902 2147z"/>
   <path class="fil0" d="M254976 270960c3894,2554 3037,-331 10672,1244 3924,895 1100,1439 3571,1216 2048,-649 1234,-1128 3530,-1189 3426,-281 2551,2557 8820,-3992 -2588,-2932 -5710,-7414 -10655,-6967 -6851,561 -8904,-822 -11618,846l3674 307c1811,2829 498,1176 784,2137 1390,4434 -1100,-1441 321,1336 1944,261 779,104 2582,900 4829,-3602 -1385,-2401 4507,-4938l3365 3035 -7295 5859c-3748,-1055 -9190,-1785 -12258,206z"/>
   <path class="fil0" d="M3402 191309c-201,3852 -91,4974 -3402,8410 2339,2345 3723,4747 5564,5916l1659 -700c1833,-864 3674,306 5399,-1679 1058,-967 2861,-173 -2454,-5501 -3493,1565 -30,1659 -3353,1029 3420,-2313 -3000,707 3554,-4880 -1488,-1493 -1877,-1545 -2588,-2933 -1173,-2189 1379,369 -1882,-3576 -1197,1501 -1865,2521 -2497,3914z"/>
   <path class="fil0" d="M78197 65002c819,2510 583,5988 3480,6192 3390,-655 2077,-2308 7515,-3613 4306,-1086 3096,-3649 546,-6207 -1871,488 -2752,1295 -4271,1460 522,-2515 -146,-1497 -363,-3742 -219,-2246 522,-2517 -365,-3743l-3208 2527 -3334 7126z"/>
  </g>
 </g>
</svg>
