<?xml version="1.0" encoding="UTF-8"?>
<!DOCTYPE svg PUBLIC "-//W3C//DTD SVG 1.1//EN" "http://www.w3.org/Graphics/SVG/1.1/DTD/svg11.dtd">
<!-- Creator: CorelDRAW X7 -->
<svg xmlns="http://www.w3.org/2000/svg" xml:space="preserve" width="4.4794mm" height="5.0555mm" version="1.1" style="shape-rendering:geometricPrecision; text-rendering:geometricPrecision; image-rendering:optimizeQuality; fill-rule:evenodd; clip-rule:evenodd"
viewBox="0 0 10 11"
 xmlns:xlink="http://www.w3.org/1999/xlink">
 <defs>
  <style type="text/css">
   <![CDATA[
    .fil1 {fill:#CBC2B3}
    .fil2 {fill:#A88D73}
    .fil0 {fill:#85726C}
   ]]>
  </style>
 </defs>
 <g id="Layer_x0020_1">
  <metadata id="CorelCorpID_0Corel-Layer"/>
  <g id="_569906016">
   <path class="fil0" d="M7 11c1,-1 1,-1 1,0 0,0 0,0 -1,0zm-3 -11l1 0c0,0 1,0 1,1 0,1 0,6 0,7 1,0 3,0 4,1 0,0 -1,2 -2,2 0,0 -1,0 -2,0l-3 0c-1,0 -1,0 -2,0 0,0 -1,-1 -1,-2 1,-1 3,-1 4,-1 0,0 0,-6 0,-6 0,-1 0,-2 0,-2l0 0zm4 10c0,0 0,0 0,0 0,0 0,0 0,0zm-2 -9c0,0 0,7 0,9 0,-1 0,0 0,-1 0,-2 0,-7 0,-8zm1 9l2 -1c0,0 0,0 0,1 0,0 0,0 -1,0l-2 0c0,0 0,0 0,0l2 0c0,0 0,0 0,0 1,0 1,0 1,0l-1 0c0,0 -3,0 -3,0 1,0 2,0 3,0l-1 0c-1,0 -1,0 -1,0l1 1c0,0 0,0 -1,0 0,0 0,0 0,0 0,0 0,0 0,0l-3 0c0,0 0,0 0,0l-1 0 0 0 0 0 -1 0 0 0 0 0 0 0 0 -1 0 0 0 0 0 0 0 0c-1,0 -1,0 -1,0l0 -1c2,0 2,1 4,1 1,0 2,0 3,0zm2 0c0,-1 0,-1 0,-1 0,1 0,0 0,1zm0 -1c0,0 0,0 0,0l0 0 0 0 -2 0 -1 1c0,-1 0,-1 0,-1l1 0 1 0 0 0 1 0 0 0 0 0 0 0c1,0 1,0 1,0 0,0 0,0 -1,0zm-9 0l0 0c0,0 0,0 0,0l1 0 0 0 0 0 0 0 1 0 0 0 2 0c0,-1 1,-1 2,0 0,0 0,0 0,1 -1,0 -2,0 -2,-1l-3 0 0 0 0 0c0,0 0,0 0,0l-1 0c0,0 0,0 0,0zm5 -9c0,0 1,1 1,1l0 7 -2 0 0 -5c0,-1 0,-1 0,-1 0,-1 0,-2 1,-2zm1 1c0,-1 0,0 0,0 0,0 0,0 0,0zm-2 7c0,0 0,0 0,-1l0 -3c0,-1 0,-3 0,-4 0,2 0,8 0,8z"/>
   <path class="fil1" d="M0 10l1 0 0 0 0 0 0 0 0 0 0 1 0 0 0 0 0 0c1,0 1,0 1,0l0 0c0,0 0,0 0,0l1 0 0 0 3 0c0,0 0,0 0,0 0,0 0,0 0,0 0,0 0,0 0,0l0 -1c0,0 0,0 1,0 -1,0 -2,0 -2,0 0,0 3,0 3,0l0 0 -2 0c0,0 0,0 0,0l2 0 -1 0c-1,0 -2,0 -3,0 -2,0 -2,-1 -4,-1l0 1z"/>
   <polygon class="fil1" points="2,9 1,9 1,9 1,9 1,9 0,9 0,9 0,9 0,9 1,9 1,9 1,9 1,9 4,9 6,10 6,9 4,9 2,9 "/>
   <path class="fil1" d="M7 9l2 0 0 0 0 0 0 0c1,0 1,0 1,0l-1 0 0 0 0 0 0 0 -1 0 0 0 -1 0 -1 0 0 0 1 0z"/>
   <path class="fil2" d="M6 1c0,1 0,6 0,8 0,1 0,0 0,1 0,-2 0,-9 0,-9z"/>
   <path class="fil2" d="M4 8c0,0 0,-6 0,-8 0,1 0,3 0,4l0 3c0,1 0,1 0,1z"/>
   <path class="fil2" d="M6 9l0 1 -2 -1c0,1 1,1 2,1 0,-1 0,-1 0,-1 -1,-1 -2,-1 -2,0l2 0z"/>
   <path class="fil2" d="M7 10l1 0c-1,0 -2,0 -3,0 0,0 1,0 2,0z"/>
   <path class="fil2" d="M6 11c1,0 1,0 1,0l-1 -1 0 1c0,0 0,0 0,0z"/>
   <path class="fil2" d="M7 10l1 0c1,0 1,0 1,0 0,-1 0,-1 0,-1l-2 1z"/>
   <path class="fil2" d="M8 10c0,0 0,0 0,0 0,0 0,0 0,0z"/>
   <path class="fil2" d="M6 11c0,0 0,0 0,0 0,0 0,0 0,0z"/>
   <path class="fil2" d="M8 10l1 0c0,0 0,0 -1,0 0,0 0,0 0,0l0 0z"/>
   <path class="fil2" d="M7 9l-1 0 0 0c0,0 0,0 0,1l1 -1z"/>
   <path class="fil2" d="M7 11c1,0 1,0 1,0 0,-1 0,-1 -1,0z"/>
   <path class="fil2" d="M9 9c0,0 0,0 0,1 0,-1 0,0 0,-1z"/>
   <path class="fil2" d="M3 11l0 0c0,0 0,0 0,0z"/>
   <path class="fil2" d="M9 9l0 0c0,0 0,0 0,0z"/>
   <path class="fil2" d="M1 9l0 0c0,0 0,0 0,0z"/>
   <path class="fil2" d="M10 9c0,0 0,0 -1,0l1 0z"/>
   <path class="fil2" d="M0 9c0,0 0,0 0,0l0 0z"/>
   <path class="fil2" d="M1 10l-1 0c0,0 0,0 1,0z"/>
   <polygon class="fil2" points="2,9 2,9 "/>
   <polygon class="fil2" points="8,9 7,9 "/>
   <polygon class="fil2" points="1,9 1,9 "/>
   <polygon class="fil2" points="9,9 8,9 "/>
   <polygon class="fil2" points="1,9 1,9 "/>
   <polygon class="fil2" points="9,9 9,9 "/>
   <polygon class="fil2" points="1,9 1,9 "/>
   <polygon class="fil2" points="9,9 9,9 "/>
  </g>
 </g>
</svg>
