<?xml version="1.0" encoding="UTF-8"?>
<!DOCTYPE svg PUBLIC "-//W3C//DTD SVG 1.1//EN" "http://www.w3.org/Graphics/SVG/1.1/DTD/svg11.dtd">
<!-- Creator: CorelDRAW X7 -->
<svg xmlns="http://www.w3.org/2000/svg" xml:space="preserve" width="4.4794mm" height="5.0555mm" version="1.1" style="shape-rendering:geometricPrecision; text-rendering:geometricPrecision; image-rendering:optimizeQuality; fill-rule:evenodd; clip-rule:evenodd"
viewBox="0 0 10 12"
 xmlns:xlink="http://www.w3.org/1999/xlink">
 <defs>
  <style type="text/css">
   <![CDATA[
    .str0 {stroke:#84716B;stroke-width:0.173635}
    .fil2 {fill:none}
    .fil0 {fill:#CEC5B5}
    .fil1 {fill:#AF916F;fill-rule:nonzero}
   ]]>
  </style>
 </defs>
 <g id="Layer_x0020_1">
  <metadata id="CorelCorpID_0Corel-Layer"/>
  <g id="_492318592">
   <path class="fil0" d="M5 9c3,0 5,0 5,0 0,1 -2,1 -5,1 -3,0 -5,0 -5,-1 0,0 2,0 5,0z"/>
   <path class="fil0" d="M0 10c0,0 1,0 1,0 0,0 1,0 1,0 1,0 1,0 2,0 0,0 1,0 1,0 1,0 1,0 2,0 0,0 1,0 1,0 0,0 1,0 1,0 0,0 1,0 1,0 0,0 0,0 0,0 0,0 -1,0 -1,0 0,1 0,1 0,1 -1,0 -1,0 -1,0 0,0 -1,0 -1,0 0,0 -1,0 -1,0 -1,0 -1,0 -2,0 0,0 0,0 -1,0 0,0 0,0 -1,0 0,0 0,0 0,0 0,0 0,0 0,0 -1,0 -1,0 -1,0 0,0 0,0 0,-1 0,0 0,0 0,0 -1,0 -1,0 -1,0z"/>
   <g>
    <g>
     <path class="fil1" d="M5 0c0,0 0,0 0,0 -1,0 -1,1 -1,1 0,0 0,0 0,1 0,0 0,0 0,1 0,0 0,1 0,1 0,0 0,1 0,1 0,0 0,0 0,0 0,0 0,0 0,0 0,0 0,0 0,0 0,0 0,1 0,1 0,0 0,1 0,1 0,0 0,1 0,1 0,0 0,1 0,1 0,0 0,-1 0,-1 0,0 0,-1 0,-1 0,0 0,-1 0,-1 0,0 0,-1 0,-1 0,0 0,0 0,0 0,0 0,0 0,0 0,0 0,0 0,0 0,0 0,-1 0,-1 0,0 0,-1 0,-1 0,-1 0,-1 0,-1 0,-1 0,-1 0,-1 0,0 0,-1 0,-1 1,0 1,0 1,0z"/>
    </g>
    <path class="fil2" d="M4 9c0,-1 0,-1 0,-2 0,0 0,-1 0,-1 0,0 0,-1 0,-1l0 0c0,0 0,0 0,0 0,0 0,-1 0,-1 0,0 0,-1 0,-1 0,-1 0,-1 0,-1 0,-1 0,-1 0,-1 0,0 0,-1 1,-1 0,0 0,0 0,0"/>
    <g>
     <g>
      <path class="fil1" d="M7 10c0,0 1,0 1,0 1,0 1,0 1,0 0,0 0,0 0,0 0,0 0,0 0,0 1,0 1,0 1,0 0,0 0,0 0,0 0,0 0,0 0,0 -1,0 -1,0 -1,0 0,0 0,0 -1,0 0,0 -1,0 -1,0z"/>
     </g>
     <path class="fil2" d="M10 10c-1,0 -3,0 -3,0"/>
     <g>
      <path class="fil1" d="M7 11c0,0 1,0 2,-1 0,0 0,0 0,0 0,0 0,0 0,0 -1,1 -2,1 -2,1z"/>
     </g>
     <path class="fil2" d="M9 10c-1,1 -1,1 -2,1"/>
     <g>
      <path class="fil1" d="M6 11c0,0 2,0 2,0 0,0 0,0 0,0 0,0 0,0 0,0 0,0 -2,0 -2,0z"/>
     </g>
     <path class="fil2" d="M8 11c0,0 -1,0 -2,0"/>
     <g>
      <path class="fil1" d="M8 10c0,0 0,0 0,0 0,1 0,1 0,1 0,0 0,0 0,0 0,0 0,0 0,-1 0,0 1,0 1,0 0,0 0,0 0,0 0,0 0,0 0,0 0,1 -1,1 -1,1 0,0 0,0 0,0 0,0 0,0 0,0 0,0 0,0 0,0 0,0 0,-1 0,-1z"/>
     </g>
     <path class="fil2" d="M9 10c0,1 -1,1 -1,0"/>
     <g>
      <path class="fil1" d="M8 10c0,0 0,0 0,0 0,0 0,0 0,0 0,0 0,0 0,0 0,0 0,0 0,0z"/>
     </g>
     <path class="fil2" d="M8 10c0,0 0,0 0,0"/>
     <g>
      <path class="fil1" d="M7 10c0,0 0,0 0,0 0,0 0,0 0,0 0,0 1,0 2,0 0,0 0,0 0,0 0,0 0,0 1,0 0,0 0,0 -1,0 0,0 0,0 0,0 -1,0 -2,0 -2,0 0,0 0,0 0,0 0,0 0,0 0,0z"/>
     </g>
     <path class="fil2" d="M10 10c-1,0 -1,0 -1,0 -1,0 -2,0 -2,0l0 0"/>
     <g>
      <path class="fil1" d="M7 11c0,0 0,0 0,0 1,0 1,0 2,-1 0,0 0,0 0,1 0,0 0,0 0,0 -1,0 -1,0 -2,0 0,0 0,0 0,0z"/>
     </g>
     <path class="fil2" d="M9 11c0,0 -1,0 -2,0 0,0 0,0 0,0"/>
     <g>
      <path class="fil1" d="M7 11c0,0 0,0 0,0 0,0 0,0 0,0 0,0 0,0 0,0 0,0 0,0 0,0 0,0 0,0 0,0 0,0 0,0 0,0 0,0 0,0 0,0 0,0 1,0 1,0 0,0 0,0 0,0 0,0 0,0 0,0 0,0 0,0 0,0 0,0 1,0 1,0 0,0 0,0 0,0 0,0 0,0 -1,0 0,0 0,0 0,0 0,0 0,0 0,0 0,0 -1,0 -1,0 0,0 0,0 0,0 0,0 0,0 0,0 0,0 0,0 0,0 0,0 0,0 0,0 0,0 0,0 0,0 0,0 0,0 0,0 0,0 0,0 0,0z"/>
     </g>
     <path class="fil2" d="M9 11c-1,0 -1,0 -1,0 0,0 -1,0 -1,0"/>
     <g>
      <path class="fil1" d="M6 11c0,0 1,0 1,0 0,0 0,0 1,0 0,0 0,0 1,0 0,0 0,-1 0,-1 0,0 0,0 0,0 0,0 0,0 0,0 0,0 0,0 0,0 0,0 0,0 0,0 0,0 0,0 0,0 0,0 0,0 0,0 0,0 0,0 0,0 0,0 0,0 0,1 0,0 0,0 0,0 -1,0 -1,0 -1,0 -1,0 -1,0 -1,0 0,0 -1,0 -1,0z"/>
     </g>
     <path class="fil2" d="M9 10c0,0 0,1 0,1 -1,0 -2,0 -2,0 -1,0 -1,0 -1,0"/>
    </g>
    <g>
     <path class="fil2 str0" d="M5 9c3,0 5,0 5,0 0,1 -2,1 -5,1 -3,0 -5,0 -5,-1 0,0 2,0 5,0z"/>
     <path class="fil2 str0" d="M0 9c0,1 1,2 1,2 0,0 1,0 2,0 1,0 3,0 4,0 2,0 2,0 2,0 0,-1 1,-1 1,-1 0,-1 0,-1 0,-1"/>
    </g>
    <g>
     <path class="fil1" d="M6 0c0,0 0,0 0,0 0,0 0,0 0,0 0,0 0,0 0,0 0,0 0,0 0,0 0,0 0,0 0,0 0,1 0,1 0,1 0,0 0,0 0,0 0,0 0,0 0,0 0,1 0,1 0,1 0,1 0,1 0,1 0,1 0,1 0,1 0,1 0,2 0,2 0,1 0,1 0,2 0,0 0,1 0,1 0,0 0,0 0,0 0,0 0,1 0,1 0,0 0,-1 0,-1 0,0 0,0 0,0 0,0 0,-1 0,-1 0,-1 0,-1 0,-2 0,0 0,-1 0,-2 0,0 0,0 0,-1 0,0 0,0 0,-1 0,0 0,0 0,-1 0,0 0,0 0,0 0,0 0,0 0,0 0,0 0,0 0,0 0,-1 0,-1 0,-1 0,0 0,0 0,0 0,0 0,0 0,0 0,0 0,0 0,0 0,0 0,0 0,0z"/>
    </g>
    <path class="fil2" d="M6 10c0,-1 0,-1 0,-1 0,0 0,-1 0,-1 0,-1 0,-1 0,-2 0,0 0,-1 0,-2 0,0 0,0 0,-1 0,0 0,0 0,-1 0,0 0,0 0,-1 0,0 0,0 0,0 0,0 0,0 0,0 0,-1 0,-1 0,-1l0 0c0,0 0,0 0,0"/>
    <g>
     <path class="fil2 str0" d="M4 9c0,-2 0,-4 0,-6 0,-1 0,-2 0,-3 1,0 1,0 2,0 0,1 0,1 0,3 0,2 0,4 0,6 0,1 0,1 0,1"/>
     <path class="fil2 str0" d="M4 9c0,-2 0,-4 0,-6 0,-1 0,-2 1,-3 0,0 1,0 1,0 0,1 0,1 0,3 0,2 0,4 0,6 0,1 0,1 0,1"/>
    </g>
    <path class="fil2 str0" d="M10 10c-1,0 -1,0 -1,0 -1,0 -1,0 -2,0 0,0 -1,0 -1,0"/>
    <path class="fil2 str0" d="M9 10c0,0 -1,0 -1,1 -1,0 -2,0 -2,0 -1,0 -1,0 -1,0"/>
    <path class="fil2 str0" d="M9 11c0,0 -1,0 -1,0 -1,0 -1,0 -1,0 -1,0 -1,0 -1,0"/>
    <path class="fil2 str0" d="M8 11c0,0 0,0 0,0 -1,0 -1,0 -1,0 -1,0 -1,0 -1,0"/>
    <path class="fil2 str0" d="M9 10c0,0 0,0 0,0 0,0 0,0 0,0 0,1 0,1 0,1 0,0 -1,0 -1,0 0,0 0,0 0,0 0,0 0,0 0,0"/>
    <path class="fil2 str0" d="M8 10c0,1 0,1 0,1 0,0 0,0 0,0 0,0 0,0 -1,0"/>
   </g>
  </g>
 </g>
</svg>
