<?xml version="1.0" encoding="UTF-8"?>
<!DOCTYPE svg PUBLIC "-//W3C//DTD SVG 1.1//EN" "http://www.w3.org/Graphics/SVG/1.1/DTD/svg11.dtd">
<!-- Creator: CorelDRAW X7 -->
<svg xmlns="http://www.w3.org/2000/svg" xml:space="preserve" width="82.4442mm" height="14.568mm" version="1.1" style="shape-rendering:geometricPrecision; text-rendering:geometricPrecision; image-rendering:optimizeQuality; fill-rule:evenodd; clip-rule:evenodd"
viewBox="0 0 4003 707"
 xmlns:xlink="http://www.w3.org/1999/xlink">
 <defs>
  <style type="text/css">
   <![CDATA[
    .fil0 {fill:#84716B}
   ]]>
  </style>
 </defs>
 <g id="Layer_x0020_1">
  <metadata id="CorelCorpID_0Corel-Layer"/>
  <g id="_323900128">
   <path class="fil0" d="M1063 34c29,24 51,23 69,57 18,35 8,236 8,283 0,313 24,225 -77,317l185 0c-4,-3 -10,-7 -14,-9l-46 -34c-41,-51 -19,-445 -19,-517 43,32 174,221 216,282 45,66 65,82 115,145 55,71 48,92 112,136l0 -320c0,-329 -20,-251 79,-340l-185 1 77 61 -1 473c-13,-17 -32,-35 -51,-59 -18,-24 -24,-34 -48,-64 -41,-51 -68,-85 -104,-138 -50,-72 -160,-204 -190,-273l-126 -1z"/>
   <path class="fil0" d="M0 181l0 387c4,5 46,6 49,10l36 40c185,187 414,45 441,-108 -67,67 -121,196 -303,136 -295,-97 -163,-786 172,-562 66,44 60,72 123,107l-64 -165c-109,30 -148,-31 -265,5 -47,15 -72,34 -93,57 -21,23 -68,62 -96,93z"/>
   <path class="fil0" d="M2848 207c60,54 55,27 54,151 -1,91 49,295 -218,219l-8 -395 -105 26 34 28c78,96 -60,342 92,392 69,23 144,-11 195,-63 26,74 7,27 37,58l85 -11c-93,-72 -58,-145 -59,-431l-107 26z"/>
   <path class="fil0" d="M3744 195l-17 10c40,-11 36,-23 28,16l11 25 0 94c-44,31 -39,30 -125,37 77,35 31,7 124,6l-8 172c-128,95 -249,20 -195,-81 24,-44 9,-17 48,-48l39 -31c-297,18 -126,384 97,188 47,33 53,54 125,44l-43 -52c-46,-108 64,-320 -84,-380z"/>
   <path class="fil0" d="M2049 219l9 25c-1,109 28,93 -51,125 41,22 49,17 54,82 17,248 -320,142 -191,2 32,-36 79,-35 140,-83 -71,11 -116,18 -166,56 -117,91 -65,208 63,209 21,0 61,-6 78,-13l53 -37c48,32 54,61 127,30l-21 -13c-100,-92 60,-341 -109,-408l-15 10c41,-11 39,-24 29,15z"/>
   <path class="fil0" d="M2500 627c-8,21 -73,38 -136,28l1 -362c14,-2 59,-4 62,-5 81,-17 22,3 56,-28 -23,-1 -53,1 -74,-2 -49,-6 -32,-8 -45,-14l-11 -124c-55,88 8,111 -114,154l66 26c4,108 -50,369 72,402 90,24 119,-67 123,-75z"/>
   <path class="fil0" d="M3208 265c-33,-36 -34,-78 -38,-87l-101 27 25 22c3,3 9,7 11,10 40,48 21,300 20,305 -9,40 -44,72 -47,65 -2,-3 -8,8 -12,14l175 -6c-72,-61 -59,-27 -60,-145 -5,-340 124,-180 229,-237 -30,-146 -164,-10 -202,32z"/>
   <path class="fil0" d="M4003 650l0 -650 -162 20c47,27 78,36 112,71l-4 502c-24,15 -26,13 -51,25l105 32z"/>
   <path class="fil0" d="M579 672l450 -16 -2 -23 -403 -9c-69,18 -19,-14 -45,48z"/>
   <path class="fil0" d="M1927 211l-21 -16c-68,2 -134,33 -92,105 109,-25 3,-53 113,-89z"/>
   <path class="fil0" d="M3635 211l-28 -13c-67,3 -128,31 -84,102 65,-17 46,-12 67,-81l45 -8z"/>
  </g>
 </g>
</svg>
