<?xml version="1.0" encoding="UTF-8"?>
<!DOCTYPE svg PUBLIC "-//W3C//DTD SVG 1.1//EN" "http://www.w3.org/Graphics/SVG/1.1/DTD/svg11.dtd">
<!-- Creator: CorelDRAW X7 -->
<svg xmlns="http://www.w3.org/2000/svg" xml:space="preserve" width="5.8429mm" height="6.3287mm" version="1.1" style="shape-rendering:geometricPrecision; text-rendering:geometricPrecision; image-rendering:optimizeQuality; fill-rule:evenodd; clip-rule:evenodd"
viewBox="0 0 19270 20872"
 xmlns:xlink="http://www.w3.org/1999/xlink">
 <defs>
  <style type="text/css">
   <![CDATA[
    .str0 {stroke:#84716B;stroke-width:659.609}
    .fil8 {fill:none}
    .fil9 {fill:#FEFEFE}
    .fil3 {fill:#FFF212}
    .fil5 {fill:#EC268F}
    .fil4 {fill:#ED3237}
    .fil10 {fill:#A7C4D2}
    .fil6 {fill:#A8518A}
    .fil1 {fill:#00AFEF}
    .fil2 {fill:#00A859}
    .fil7 {fill:#AF916F}
    .fil0 {fill:#C8BBA7}
   ]]>
  </style>
 </defs>
 <g id="Layer_x0020_1">
  <metadata id="CorelCorpID_0Corel-Layer"/>
  <g id="_636008648">
   <path class="fil0 str0" d="M4667 7286c-619,-1477 -872,-3417 28,-4838 900,-1420 2953,-2320 5301,-2081 2349,240 4992,1617 6624,3530 1631,1912 2249,4359 2277,6806 29,2447 -534,4893 -1040,6412 -506,1519 -956,2109 -1617,1701 -661,-407 -1533,-1814 -2236,-3375 -703,-1560 -1238,-3276 -1856,-4316 -619,-1041 -1322,-1407 -2152,-1350 -829,56 -1786,534 -2756,267 -970,-267 -1954,-1280 -2573,-2756zm3726 -2827c1002,0 1814,793 1814,1772 0,979 -812,1772 -1814,1772 -1001,0 -1814,-793 -1814,-1772 0,-979 813,-1772 1814,-1772z"/>
   <ellipse class="fil1 str0" transform="matrix(0.188045 -0.0450923 0.0450923 0.188045 7200.45 2210.89)" rx="6326" ry="5017"/>
   <ellipse class="fil2 str0" transform="matrix(0.185795 0.053612 -0.053612 0.185795 10659.7 2253.11)" rx="6326" ry="5017"/>
   <ellipse class="fil3 str0" transform="matrix(0.166382 0.0985445 -0.0985445 0.166382 13654.9 3539.73)" rx="6326" ry="5017"/>
   <ellipse class="fil4 str0" transform="matrix(-0.0155955 0.192746 -0.192746 -0.0155955 17725.6 11934.6)" rx="6326" ry="5017"/>
   <ellipse class="fil5 str0" transform="matrix(0.0733669 0.178917 -0.178917 0.0733669 17388.1 8897.25)" rx="6326" ry="5017"/>
   <ellipse class="fil6 str0" transform="matrix(0.13363 0.139775 -0.139775 0.13363 16080.3 5902.06)" rx="6326" ry="5017"/>
   <g>
    <path class="fil7 str0" d="M16154 19299c-2215,-1348 -6181,-4070 -8365,-5921 -2184,-1852 -2585,-2834 -2786,-3325 -200,-491 -200,-491 -29,-718 171,-228 512,-683 1007,-776 494,-92 1142,178 3247,2113 2105,1936 5669,5537 7590,7468 1921,1931 2200,2192 2108,2336 -93,144 -557,170 -2772,-1177z"/>
    <path class="fil8 str0" d="M4862 9510c-376,-279 -752,-558 -940,-697 -188,-140 -188,-140 -8,-330 180,-190 541,-570 721,-760 180,-190 180,-190 325,-2 145,188 436,565 581,753 145,188 145,188 145,188 0,0 0,0 0,0"/>
    <path class="fil9" d="M2091 7475c162,-346 506,-999 697,-1312 192,-313 231,-286 458,-45 226,240 641,694 886,972 245,279 321,383 376,459 56,76 91,125 -29,278 -120,152 -396,408 -560,538 -163,129 -215,133 -405,125 -191,-8 -521,-28 -741,-63 -220,-36 -331,-89 -447,-180 -116,-91 -238,-222 -308,-306 -71,-83 -90,-121 73,-466z"/>
    <path class="fil4" d="M2138 7846c34,-51 31,-156 99,-206 68,-50 207,-47 262,-131 55,-84 28,-257 133,-318 104,-62 341,-13 357,-129 17,-115 -187,-395 -186,-539 1,-144 207,-153 256,-252 49,-100 -60,-291 -215,-432 -155,-142 -357,-234 -649,-292 -292,-58 -676,-82 -971,-79 -295,4 -502,34 -624,53 -121,19 -158,27 -43,68 116,41 384,117 568,258 184,141 284,349 357,567 73,219 121,449 184,674 63,226 142,449 195,583 53,133 79,179 127,202 48,23 117,25 150,-27z"/>
    <path class="fil8 str0" d="M3947 8487c-535,39 -1069,78 -1458,-122 -390,-199 -635,-637 -762,-1091 -128,-455 -139,-925 -327,-1211 -188,-285 -554,-387 -811,-428 -257,-42 -405,-23 -151,-76 253,-53 909,-179 1468,-122 560,57 1022,296 1466,708 444,412 870,997 1083,1289 212,293 212,293 212,293"/>
    <path class="fil10" d="M4640 9310c-185,-119 -522,-386 -688,-512 -167,-126 -163,-110 1,-286 164,-177 487,-545 655,-732 168,-187 180,-193 322,-32 142,162 413,491 548,655 135,165 135,165 15,299 -121,134 -362,402 -499,551 -137,148 -169,177 -354,57z"/>
   </g>
  </g>
 </g>
</svg>
