<?xml version="1.0" encoding="UTF-8"?>
<!DOCTYPE svg PUBLIC "-//W3C//DTD SVG 1.1//EN" "http://www.w3.org/Graphics/SVG/1.1/DTD/svg11.dtd">
<!-- Creator: CorelDRAW X7 -->
<svg xmlns="http://www.w3.org/2000/svg" xml:space="preserve" width="57.3246mm" height="35.6016mm" version="1.1" style="shape-rendering:geometricPrecision; text-rendering:geometricPrecision; image-rendering:optimizeQuality; fill-rule:evenodd; clip-rule:evenodd"
viewBox="0 0 1880 1168"
 xmlns:xlink="http://www.w3.org/1999/xlink">
 <defs>
  <style type="text/css">
   <![CDATA[
    .fil0 {fill:#A59694}
   ]]>
  </style>
 </defs>
 <g id="Layer_x0020_1">
  <metadata id="CorelCorpID_0Corel-Layer"/>
  <g id="_522577400">
   <path class="fil0" d="M1782 314l-295 109 -10 5 -18 5 -9 4 -44 13 -9 5 -19 4c-5,4 -6,4 -13,5l-151 51 -9 4 -219 71 -13 5 -5 1c-5,4 -16,7 -24,9l-22 7 -9 4 -13 3 4 2 74 -22 9 -4 120 -39 14 -7 84 -27 9 -4 159 -50c14,-8 60,-22 77,-25 26,-9 292,-100 295,-98 2,1 -272,92 -292,99l-77 25 -427 142c-4,4 -2,3 -9,4l-263 89 3 1 107 -34 9 -4 114 -37c5,-4 4,-3 10,-4l10 -2c2,-4 5,-3 9,-4l21 -6c5,-4 11,-5 18,-6l0 0 9 -3 10 -3 9 -4 49 -15 9 -5 71 -23 8 -3 5 -1 47 -17 41 -13 13 -5 523 -172 5 -2c1,6 0,12 -3,17l-14 77c-1,7 0,7 -3,13l-6 36 0 8 3 -4 21 -111 4 -11 8 -37 0 -6 2 -6 0 -14 -2 0 -5 10z"/>
   <path class="fil0" d="M1870 229l-6 1 -95 29 -9 4 -111 34 -10 4 -6 1 -10 4 -4 0 -9 4 -16 4 -9 4 -301 94 -10 4 -11 2 -10 5 -155 47 -14 5 -11 3 -10 4 -41 12 -8 4 -150 46 -10 4 -11 2 -10 5 -188 58 5 1 167 -50c5,-4 4,-3 10,-4l16 -4c4,-4 3,-3 10,-4l16 -4 11 -5 9 -1 10 -5 11 -2 10 -4 15 -3 10 -5 81 -24c5,-4 12,-5 19,-6l11 -3 10 -5 20 -5 9 -3 60 -19 9 -3 51 -16c5,-4 8,-4 14,-5l20 -6 9 -3 10 -4 16 -4 9 -3 88 -26 10 -4 11 -3 9 -4 128 -38 10 -5 320 -99 4 -1c1,5 1,2 -2,7l-223 92 -9 4 -49 15 -10 4 -43 13 -9 4 -44 14 -14 5 -24 7 -9 4 -53 17 -2 3 4 0 210 -66 9 -3 39 -13 9 -3 198 -63 8 -2 1 0c4,-4 5,-3 11,-3l4 -4 -3 -6 2 -3 -1 0 4 -11 -1 0 4 -12 -3 -13c-3,6 -1,5 -7,8z"/>
   <path class="fil0" d="M1798 566l3 2 -3 3 -158 62 -7 3 -64 25 -7 3 -230 91 -8 3 0 1 -7 3 -159 62 -8 4 0 -1 -8 4 0 0 -8 3 -28 11 -8 3 0 0 -8 4 0 -1 -8 4 0 -1 -8 4 0 -1 -7 4 -1 -1 -7 4 -6 2 -8 3 0 0 -7 3 -1 0 -7 3 -184 72 -8 4 0 0 -8 3 0 0 -8 3 0 0 -8 3 0 0 -7 3 -1 0 -8 4 0 0 -8 3 0 0 -7 3 -1 0 -7 4 -141 55 7 0 1 1 8 -3 6 -2 7 -4 116 -44 8 -4 21 -7 7 -4 1 0 7 -3 0 0 8 -3 13 -5 8 -3 0 0 8 -3 0 -1 7 -2 8 -3 8 -5 162 -63 8 -4 0 1 8 -4 0 1 8 -4 0 1 8 -4 0 1 7 -4 16 -6 8 -4 0 1 8 -4 0 1 8 -4 12 -4 9 -5 133 -50 8 -4 20 -7 8 -4 7 -3 0 0 8 -4 105 -40 8 -3 0 0 8 -3 0 -1 8 -2 0 -1 8 -2 0 -1 7 -3 6 -2 7 -3 125 -49 7 -2 29 -12 7 -2 1 -1 7 -3 136 -53 5 -1 -3 5 -62 41 -8 3 -19 8 -7 3 -28 11 -7 3 0 1 -8 3 -4 1 -7 3 -43 18 -7 3 -70 28 -7 3 -12 5 -7 3 -1 0 -7 3 -1 0 -7 3 -116 48 -7 4 0 -1 -7 3 -1 0 -7 3 -65 26 3 2 1 1 8 -4 0 1 8 -4 8 -2 8 -4 0 1 7 -4 66 -26 7 -2 1 -1 7 -3 0 0 8 -3 43 -17 7 -3 1 0 7 -3 1 0 7 -3 1 -1 7 -3 1 0 7 -3 161 -64 7 -3 8 -4 8 -3 0 0 8 -3 0 0 7 -3 1 0 7 -3 12 -5 7 -3 1 0 7 -3 1 0 7 -3 1 0 7 -3 5 -2 7 -3 1 0 7 -3 1 0 7 -4 16 -5 8 -3 5 -3 1 -5 -4 -3 3 -6 2 -14c5,-9 4,-4 2,-14 -6,1 -3,3 -8,1l-5 -2 -6 -4 -13 -6 -2 4 22 11z"/>
   <path class="fil0" d="M1318 738l-8 3 -759 298 2 1c134,-50 268,-103 401,-155 134,-53 269,-104 402,-157 -6,0 -2,1 -7,-2l-31 12z"/>
   <path class="fil0" d="M474 193c-6,4 -6,3 -13,4l-103 21c-5,4 -7,3 -14,4l-1 -1c-5,4 -7,3 -13,4l-2 -1c-5,4 -6,3 -12,4l-17 3 -12 3 -130 28 -13 5 -1 -1 -11 3 -118 25 -6 -1 0 0 -4 4 -2 4 6 4 3 13c3,5 3,8 4,14l0 2 2 -9 1 -8c-3,0 -2,1 -1,-3l-3 -10 3 -3 310 -70 11 -3 3 0 13 -4 7 0c5,-4 8,-4 14,-5l8 0c6,-4 12,-4 18,-5l165 -38 -2 -1 -90 18z"/>
   <polygon class="fil0" points="437,725 440,727 1386,423 1382,423 1384,420 "/>
   <path class="fil0" d="M477 1135l2 1c136,-52 270,-108 404,-162 135,-54 271,-108 405,-164l-3 -2 -808 327z"/>
   <path class="fil0" d="M1761 564l-7 3 -12 4 -7 3 -194 76 -7 2 -8 5 -1 -1 -7 3 -1 0 -7 3 0 1 -8 3 -8 3 -7 3 -1 0 -7 3 -1 0 -12 5 0 0 -8 3 0 0 -8 3 0 0 -7 3 -1 0 -7 3 0 0 -8 4 0 -1 -8 4 0 -1 -8 4 0 -1c-5,4 -6,4 -12,6l-1 0 -7 3 -1 0 -7 3 -1 0 -7 3 -26 10c5,3 1,2 7,2l138 -53 8 -3 21 -8 7 -3 1 0 7 -3 5 -2 8 -3 0 0 7 -3 29 -11 8 -3 0 0 8 -3 41 -16 7 -3 1 0 8 -4 69 -25 9 -4 4 -3 8 -4 7 0 9 -4 5 -6 -3 -2 -5 1 -2 1z"/>
   <path class="fil0" d="M166 789c37,57 78,110 117,165 40,56 79,112 118,168l5 7 1 -1 3 12 1 15 1 0 3 -3 0 -8 0 -9 -2 -17c-45,-49 -84,-109 -124,-163 -41,-57 -81,-113 -123,-169l0 3z"/>
   <path class="fil0" d="M564 175l2 1 709 -157 -4 -2c-118,24 -236,52 -353,78 -118,26 -237,52 -354,80z"/>
   <path class="fil0" d="M213 883c14,20 167,244 171,239 4,-4 -154,-221 -169,-242l-3 0 1 3z"/>
   <path class="fil0" d="M310 930l2 -1c-50,-74 -109,-153 -165,-223l-1 1c51,75 108,151 164,223z"/>
   <path class="fil0" d="M219 544l1 -2c-55,-67 -117,-140 -177,-203l-1 1c54,69 117,140 177,204z"/>
   <path class="fil0" d="M219 544c23,31 49,60 75,90 25,29 56,57 68,95l3 5 0 -6c0,-8 0,-21 -2,-29 -25,-20 -50,-52 -72,-77 -23,-27 -47,-54 -71,-80l-1 2z"/>
   <path class="fil0" d="M459 759c3,5 4,24 4,31l14 146c3,7 4,15 4,22l1 18 3 11 0 -12 -15 -191c-5,-10 -5,-34 -5,-45 -1,-5 0,-6 -4,-8 -5,6 -1,20 -2,28z"/>
   <path class="fil0" d="M1318 3l6 6 2 0 7 3 4 1 7 4 5 1 8 4 8 4 11 4 8 3 0 0 8 3 38 14 7 3 1 0 7 3 1 1 7 2 13 5 8 4 0 0 8 3c18,5 38,17 56,20l4 0 -22 -9 -7 -4 -41 -17 -7 -3 -9 -3 -7 -3 0 0 -8 -3 -8 -4 -8 -3 -3 -1 -8 -3 0 0 -7 -4 -1 1 -7 -4 -1 0 -7 -3 -1 0 -7 -3 -1 0 -7 -3 -28 -11 -7 -3 -3 -2 -12 -5 -1 0 -6 2z"/>
   <path class="fil0" d="M1045 356l2 -2c-33,-15 -59,-25 -93,-36 -47,-15 -22,-17 9,-10 80,16 143,35 225,21l1 -2c-85,13 -148,-6 -230,-24 -37,-7 -54,3 -10,17 34,11 64,22 96,36z"/>
   <path class="fil0" d="M1538 91c52,23 106,45 159,66 53,21 107,43 160,63l3 -2 -318 -127 -4 0z"/>
   <path class="fil0" d="M123 665l3 7 0 -3c-9,-68 -24,-138 -31,-206l-3 -18 0 0 -3 -14 -5 0c8,76 27,157 39,234z"/>
   <path class="fil0" d="M84 498c3,6 3,12 4,18 3,36 13,70 17,105l2 -6c-7,-64 -20,-127 -29,-191 -3,-5 -3,-6 -1,-12l-6 -1c-3,18 10,65 13,87z"/>
   <path class="fil0" d="M403 860l24 227 8 -5c-11,-36 -12,-76 -16,-114 -5,-39 -8,-80 -13,-119l1 20 -4 -9z"/>
   <path class="fil0" d="M886 623l-8 3 -20 7 -8 3 -15 5 -9 3 -193 64 2 1c45,-13 90,-28 134,-43 45,-14 91,-28 135,-45l-4 -2 -14 4z"/>
   <path class="fil0" d="M914 232c3,12 -7,41 -10,38 -1,-1 6,-15 7,-18 1,-3 2,-19 3,-20zm-29 48c35,-9 21,2 26,8 8,3 25,-1 33,-3l-29 3c-1,-3 0,-9 1,-10 2,-2 13,-6 16,-7 -2,-2 -2,-3 -2,-4 -26,6 -13,-13 -13,-29 0,-16 -6,-34 -23,-39 0,0 10,5 12,26 4,27 -2,37 -21,55z"/>
   <path class="fil0" d="M226 586l-2 2c10,12 113,140 118,136 4,-5 -105,-126 -116,-138z"/>
   <path class="fil0" d="M310 930c7,12 93,135 98,131 4,-5 -87,-121 -96,-132l-2 1z"/>
   <path class="fil0" d="M742 269c-18,-4 -65,-14 -75,-29 -15,-22 19,-42 38,-45 43,-5 113,41 148,65l2 -1c-36,-27 -104,-70 -150,-66 -21,2 -55,22 -42,46 10,21 58,27 79,30z"/>
   <path class="fil0" d="M1797 387l-4 16c0,6 0,10 -4,15l-8 53 2 7 5 -27c1,-8 0,-10 5,-15 1,-25 10,-55 13,-80 2,-7 2,-9 6,-15 2,-10 6,-27 6,-35 1,-18 -6,0 -8,7 -4,25 -9,50 -13,74z"/>
   <path class="fil0" d="M1450 443l3 1c20,-7 294,-98 292,-99 -3,-2 -269,89 -295,98z"/>
   <path class="fil0" d="M414 686l2 1c40,-10 79,-23 118,-35 39,-12 78,-23 116,-38l-5 -1 -231 73z"/>
   <path class="fil0" d="M653 327l-1 1c50,14 108,3 157,-9 5,-1 50,-17 30,2 -20,19 -8,25 14,19l-3 4 -3 -2c-29,-3 -3,-13 3,-26 7,-16 -41,0 -45,1 -48,12 -103,21 -152,10z"/>
   <path class="fil0" d="M213 883l-1 -3 3 0 -88 -124 -2 2c25,38 59,91 88,125z"/>
   <path class="fil0" d="M78 424l0 -6 8 8 -2 5 5 0 3 14c5,-10 8,-2 14,5 6,7 12,14 18,21 13,14 24,28 37,42l2 -2c-25,-30 -59,-74 -86,-99 -2,6 -2,7 1,12z"/>
   <path class="fil0" d="M400 841c3,6 3,12 4,19l-1 0 4 9 -1 -20 -1 -22c-3,-6 -3,-14 -3,-21l-4 -49c-4,-3 -3,-3 -7,-2 1,29 7,58 9,86z"/>
   <path class="fil0" d="M507 760l4 1c28,-8 57,-17 85,-27 28,-9 56,-18 84,-29l-3 -1 -170 56z"/>
   <path class="fil0" d="M506 1083l3 1c23,-7 45,-16 67,-25 22,-9 44,-16 65,-27l-7 0 -128 51z"/>
   <path class="fil0" d="M847 342l3 2 3 -4c6,-6 18,-20 24,-24 13,-8 16,12 18,20 9,26 24,42 50,52 -24,-15 -40,-30 -48,-59 -10,-39 -33,-4 -50,13z"/>
   <path class="fil0" d="M505 750l2 2c22,-6 43,-13 65,-20 21,-7 43,-14 63,-23l-2 -1 -128 42z"/>
   <path class="fil0" d="M470 784c1,-12 6,-10 17,-14 9,-2 16,-4 24,-9l-4 -1c-6,2 -32,13 -36,8 2,-6 28,-12 36,-16l-2 -2c-8,2 -31,13 -36,10l-4 -21c0,11 0,35 5,45z"/>
   <path class="fil0" d="M125 758l2 -2c-12,-21 -36,-45 -44,-65l-3 -2 1 -16 -5 0c-2,20 8,29 19,44 10,14 20,29 30,41z"/>
   <path class="fil0" d="M484 1062l0 0 -5 3 -8 3 -8 5 -9 2 -8 3 0 0 -7 3 -4 1 -8 5 -3 0 3 2 5 0c12,-6 43,-18 55,-19l9 -4 3 -3 -2 -4 -7 0 -6 3z"/>
   <path class="fil0" d="M939 264l2 4c27,-7 54,-15 83,-20 0,-3 0,-2 -3,-3 -26,3 -57,13 -82,19z"/>
   <path class="fil0" d="M15 334l2 9c14,20 43,49 54,68l6 1c-9,-15 -22,-27 -33,-40 -15,-19 -21,-21 -27,-47l-2 9z"/>
   <path class="fil0" d="M413 1118l2 17c2,-20 24,-23 42,-30 18,-6 36,-12 52,-21l-3 -1c-29,9 -65,30 -93,35z"/>
   <path class="fil0" d="M1189 327l-1 2c19,-7 34,-15 49,-27 28,-22 17,-26 -11,-28 25,7 34,3 8,26 -14,12 -29,19 -45,27z"/>
   <path class="fil0" d="M1021 245c3,1 3,0 3,3 12,-2 24,-6 36,-7 2,0 34,-1 29,-6 -6,-6 -58,8 -68,10z"/>
   <path class="fil0" d="M482 976l7 79c3,-6 2,-7 2,-13 0,-14 -2,-55 -6,-67l0 12 -3 -11z"/>
   <path class="fil0" d="M1373 468l3 1 77 -25 -3 -1c-17,3 -63,17 -77,25z"/>
   <path class="fil0" d="M166 789l0 -3 -42 -60 -2 2c8,14 32,49 44,61z"/>
   <path class="fil0" d="M1770 526l2 7 11 -55 -2 -7c-5,11 -10,43 -11,55z"/>
   <path class="fil0" d="M1740 550l1 2 13 -63 -3 4 0 -8c-4,12 -11,52 -11,65z"/>
   <path class="fil0" d="M363 699c2,8 2,21 2,29l2 0c-1,-20 -5,-23 15,-29 11,-3 24,-6 34,-12l-2 -1c-14,4 -39,15 -51,13z"/>
   <path class="fil0" d="M1271 17l4 2 49 -10 -6 -6c-8,8 -35,8 -47,14z"/>
   <path class="fil0" d="M1006 390c16,-1 81,-14 41,-36l-2 2c36,19 -26,29 -39,34z"/>
   <path class="fil0" d="M122 728l2 -2c-7,-11 -28,-41 -37,-49l-1 1 36 50z"/>
   <path class="fil0" d="M489 1055l1 4 7 0 2 4c7,-3 21,-7 27,-12l-4 -1c-8,2 -19,10 -27,6l-4 -14c0,6 1,7 -2,13z"/>
   <path class="fil0" d="M76 673l5 0 -1 16 3 2 0 -14 3 1 1 -1 -11 -17 7 -6c-8,2 -8,5 -16,4l-2 -4 -1 5c9,4 10,0 14,10l-2 4z"/>
   <polygon class="fil0" points="161,513 204,564 206,562 163,511 "/>
   <path class="fil0" d="M105 621c2,10 6,36 10,43 4,1 -6,-45 -8,-49l-2 6z"/>
   <path class="fil0" d="M415 1144c1,7 3,16 -1,23l2 1c8,-13 17,-9 29,-18 -7,1 -2,1 -4,-1 -7,2 -16,8 -23,7l-3 -21 0 9z"/>
   <path class="fil0" d="M397 738l5 1c9,-1 30,-7 38,-12l-3 -2 -40 13z"/>
   <path class="fil0" d="M652 328l1 -1c-13,-12 -22,-21 -6,-36 -22,9 -10,33 5,37z"/>
   <path class="fil0" d="M367 746l2 5c9,-4 25,-6 33,-12l-5 -1c-10,2 -19,8 -30,8z"/>
   <path class="fil0" d="M1763 563l5 -1c-1,-9 2,-19 4,-29l-2 -7c-4,6 -6,28 -7,37z"/>
   <path class="fil0" d="M1006 390c-11,0 -21,3 -31,3 -12,0 -20,-3 -30,-5 15,11 44,7 61,2z"/>
   <path class="fil0" d="M441 1149c2,2 -3,2 4,1 8,-2 27,-9 34,-14l-2 -1 -36 14z"/>
   <path class="fil0" d="M224 588l2 -2c-3,-6 -15,-19 -20,-24l-2 2c2,5 15,20 20,24z"/>
   <path class="fil0" d="M854 292l6 0c-3,-7 -44,-12 -52,-11 14,3 33,5 47,10l-1 1z"/>
   <path class="fil0" d="M65 654l2 4c8,1 8,-2 16,-4l2 0 2 -3 -6 0c-6,0 -11,0 -16,3z"/>
   <path class="fil0" d="M17 314l2 2 13 13 2 -1c-6,-11 -20,-15 -17,-27l-3 3 3 10z"/>
   <path class="fil0" d="M522 1050l4 1c7,-1 21,-6 27,-11l-2 -1 -29 11z"/>
   <path class="fil0" d="M463 790c0,-7 -1,-26 -4,-31 -1,8 0,11 -1,16 -1,6 2,9 5,15z"/>
   <path class="fil0" d="M126 681l20 26 1 -1c-6,-12 -17,-18 -18,-32l-3 7z"/>
   <path class="fil0" d="M362 729l0 7c3,6 3,10 3,16l4 0 0 -1 -2 -5 0 -18 -2 0 0 6 -3 -5z"/>
   <path class="fil0" d="M1735 574l7 -3 -3 -1 2 -18 -1 -2c-4,7 -5,16 -5,24z"/>
   <path class="fil0" d="M914 232c-1,1 -2,17 -3,20 -1,3 -8,17 -7,18 3,3 13,-26 10,-38z"/>
   <path class="fil0" d="M872 283c-2,-7 -11,-19 -17,-24l-2 1c3,4 7,7 10,11 3,5 4,10 9,12z"/>
   <path class="fil0" d="M1857 220c5,4 4,3 10,4l3 5c6,-3 4,-2 7,-8 -8,3 -9,-1 -17,-3l-3 2z"/>
   <path class="fil0" d="M1148 551c12,-3 38,-10 47,-17l-47 17z"/>
   <path class="fil0" d="M126 681l3 -7 -3 -5 0 3 -3 -7c0,8 -6,10 3,16z"/>
   <path class="fil0" d="M365 755l0 -3c0,-6 0,-10 -3,-16l1 11 -7 6 9 2z"/>
   <path class="fil0" d="M81 651l6 0 -2 3c5,-1 11,-2 12,-6 -6,-2 -11,0 -16,3z"/>
   <path class="fil0" d="M412 1155l2 10 0 2c4,-7 2,-16 1,-23l0 8 -3 3z"/>
   <path class="fil0" d="M930 267c0,1 0,2 2,4l9 -3 -2 -4 -9 3z"/>
   <path class="fil0" d="M944 605c8,-2 19,-5 24,-9 -8,2 -17,4 -24,9z"/>
   <path class="fil0" d="M42 340l1 -1c-2,-6 -4,-7 -9,-11l-2 1 10 11z"/>
   <path class="fil0" d="M414 1165l-2 -10 -1 0c-1,12 -4,3 -5,11l8 -1z"/>
   <path class="fil0" d="M481 958c0,-7 -1,-15 -4,-22 0,7 0,15 4,22z"/>
   <polygon class="fil0" points="432,1089 427,1089 424,1087 421,1090 431,1093 "/>
   <path class="fil0" d="M405 827c0,-7 0,-14 -3,-21 0,7 0,15 3,21z"/>
   <path class="fil0" d="M872 283l2 3c6,-1 8,-2 11,-6l-13 3z"/>
   <path class="fil0" d="M1774 359c3,-5 4,-11 3,-17l-5 2 3 1 -1 14z"/>
   <path class="fil0" d="M404 860c-1,-7 -1,-13 -4,-19 0,7 0,13 4,19z"/>
   <path class="fil0" d="M383 219c7,-1 12,-1 18,-5 -6,1 -12,1 -18,5z"/>
   <path class="fil0" d="M1789 318c3,-6 5,-9 0,-14l0 14z"/>
   <path class="fil0" d="M1808 576l6 -5c-1,-5 0,-5 -4,-9 2,10 3,5 -2,14z"/>
   <path class="fil0" d="M88 516c-1,-6 -1,-12 -4,-18 0,7 0,13 4,18z"/>
   <path class="fil0" d="M1026 499c6,-1 13,-3 19,-6 -7,1 -14,2 -19,6z"/>
   <path class="fil0" d="M14 335c-4,1 -4,-2 -2,3l5 5 -2 -9 0 -2 -1 3z"/>
   <path class="fil0" d="M361 224c7,-1 9,0 14,-5 -6,1 -9,1 -14,5z"/>
   <polygon class="fil0" points="1875,266 1878,263 1874,257 1872,260 "/>
   <path class="fil0" d="M1871 270c-6,0 -7,-1 -11,3l9 0 2 -3z"/>
   <path class="fil0" d="M1806 356c5,-5 4,-8 6,-15 -4,6 -4,8 -6,15z"/>
   <path class="fil0" d="M1215 439c6,-1 9,-1 14,-5 -6,1 -9,1 -14,5z"/>
   <path class="fil0" d="M461 197c7,-1 7,0 13,-4 -7,1 -8,0 -13,4z"/>
   <polygon class="fil0" points="1807,599 1806,590 1803,596 "/>
   <path class="fil0" d="M1793 403l4 -16c-4,5 -4,10 -4,16z"/>
   <path class="fil0" d="M1788 451l5 -15c-5,5 -4,7 -5,15z"/>
   <polygon class="fil0" points="8,305 2,301 4,297 2,298 0,302 "/>
   <path class="fil0" d="M1107 556c7,-1 9,-2 14,-7l-14 7z"/>
   <path class="fil0" d="M1789 418c4,-5 4,-9 4,-15l-4 15z"/>
   <polygon class="fil0" points="1864,230 1870,229 1867,224 "/>
   <path class="fil0" d="M960 614l18 -6c-7,1 -13,2 -18,6z"/>
   <polygon class="fil0" points="487,1070 493,1070 496,1066 "/>
   <polygon class="fil0" points="1757,574 1763,574 1766,570 "/>
   <path class="fil0" d="M95 463c0,-7 0,-12 -3,-18l3 18z"/>
   <path class="fil0" d="M1871 241c3,-5 3,-2 2,-7l-4 1 2 1 0 5z"/>
   <path class="fil0" d="M1782 314l5 -10c-6,3 -4,3 -5,10z"/>
   <polygon class="fil0" points="406,1129 401,1122 401,1127 "/>
   <path class="fil0" d="M12 338c-2,-5 -2,-2 2,-3 -4,-3 -1,-3 -6,-2l4 5z"/>
   <path class="fil0" d="M869 548c7,-1 6,0 11,-5l-11 5z"/>
   <path class="fil0" d="M15 332c-1,-6 -1,-9 -4,-14l4 14z"/>
   <polygon class="fil0" points="369,752 365,752 365,755 368,756 "/>
   <path class="fil0" d="M341 228c7,-1 7,0 13,-4l-13 4z"/>
   <path class="fil0" d="M1337 6c-6,-5 -5,-4 -12,-5l12 5z"/>
   <path class="fil0" d="M1477 428l10 -5c-6,1 -6,0 -10,5z"/>
   <path class="fil0" d="M1802 563c5,2 2,0 8,-1l-2 -1 -6 2z"/>
   <path class="fil0" d="M344 222c7,-1 9,0 14,-4l-14 4z"/>
   <path class="fil0" d="M330 225c6,-1 8,0 13,-4l-13 4z"/>
   <path class="fil0" d="M1236 521c7,-1 8,-1 13,-5l-13 5z"/>
   <path class="fil0" d="M1757 449c3,-6 2,-6 3,-13l-3 13z"/>
   <path class="fil0" d="M144 267l13 -5c-6,1 -8,1 -13,5z"/>
   <polygon class="fil0" points="1801,607 1793,610 1799,610 "/>
   <polygon class="fil0" points="1729,585 1734,585 1738,581 "/>
   <path class="fil0" d="M1365 464c7,-1 8,-1 13,-5l-13 5z"/>
   <path class="fil0" d="M1470 392l14 -5c-6,1 -9,1 -14,5z"/>
   <path class="fil0" d="M1775 378c4,-5 3,-5 4,-11l-4 11z"/>
   <path class="fil0" d="M930 624l9 -4c-4,1 -7,0 -9,4z"/>
   <path class="fil0" d="M1876 246c4,-5 3,-6 4,-12l-4 12z"/>
   <path class="fil0" d="M1399 707c6,-2 7,-2 12,-6l-12 6z"/>
   <path class="fil0" d="M1623 306l10 -4c-6,1 -5,0 -10,4z"/>
   <path class="fil0" d="M1397 455l9 -5c-6,1 -5,0 -9,5z"/>
   <path class="fil0" d="M1055 583c6,-2 5,-1 9,-5l-9 5z"/>
   <path class="fil0" d="M316 228c6,-1 7,0 12,-4l-12 4z"/>
   <path class="fil0" d="M833 555l10 -5c-6,2 -5,1 -10,5z"/>
   <path class="fil0" d="M889 542c6,-1 6,0 10,-5l-10 5z"/>
   <path class="fil0" d="M410 1140l-3 -12c0,6 0,7 3,12z"/>
   <path class="fil0" d="M854 548l10 -4c-7,1 -6,0 -10,4z"/>
   <path class="fil0" d="M843 556l10 -4c-7,1 -6,0 -10,4z"/>
   <path class="fil0" d="M910 535c6,-1 5,0 10,-4l-10 4z"/>
   <path class="fil0" d="M817 564l10 -4c-6,1 -5,0 -10,4z"/>
   <path class="fil0" d="M398 757l-2 -5 -5 3c4,-1 3,-1 7,2z"/>
   <polygon class="fil0" points="1798,571 1801,568 1798,566 "/>
   <path class="fil0" d="M1253 423l10 -5c-6,1 -5,0 -10,5z"/>
   <path class="fil0" d="M910 630l10 -4c-6,1 -5,0 -10,4z"/>
   <path class="fil0" d="M935 528c6,-2 5,-1 10,-5l-10 5z"/>
   <path class="fil0" d="M1800 582l3 -5 -5 1c4,2 2,-1 2,4z"/>
   <path class="fil0" d="M1450 437l9 -4c-6,1 -4,-1 -9,4z"/>
   <path class="fil0" d="M1644 341c6,-1 5,1 9,-3l-9 3z"/>
   <path class="fil0" d="M1205 519l9 -4c-7,1 -5,-1 -9,4z"/>
   <path class="fil0" d="M1274 416l10 -4c-6,1 -6,0 -10,4z"/>
   <path class="fil0" d="M1639 337l9 -4c-6,2 -4,0 -9,4z"/>
   <path class="fil0" d="M1205 522c6,-1 4,1 9,-4l-9 4z"/>
   <polygon class="fil0" points="1787,330 1790,327 1787,324 "/>
   <path class="fil0" d="M940 615c7,-1 5,0 9,-4l-9 4z"/>
   <polygon class="fil0" points="1318,3 1324,1 1320,0 "/>
   <polygon class="fil0" points="14,294 11,291 8,293 "/>
   <path class="fil0" d="M18 317l1 -1 -2 -2c-1,4 -2,3 1,3z"/>
   <polygon class="fil0" points="1806,604 1809,601 1807,599 "/>
   <polygon class="fil0" points="2,298 4,297 8,293 "/>
   <polygon class="fil0" points="1437,403 1446,399 "/>
   <polygon class="fil0" points="1284,417 1293,414 "/>
   <polygon class="fil0" points="1258,425 1268,421 "/>
   <polygon class="fil0" points="1249,428 1258,425 "/>
   <polygon class="fil0" points="1155,458 1164,455 "/>
   <polygon class="fil0" points="1084,475 1098,470 "/>
   <polygon class="fil0" points="1086,480 1095,477 "/>
   <polygon class="fil0" points="1063,482 1073,478 "/>
   <polygon class="fil0" points="1056,490 1066,485 "/>
   <polygon class="fil0" points="1734,633 1741,630 "/>
   <polygon class="fil0" points="1655,634 1662,631 "/>
   <polygon class="fil0" points="850,636 858,633 "/>
   <polygon class="fil0" points="1595,636 1603,633 "/>
   <polygon class="fil0" points="1633,636 1640,633 "/>
   <polygon class="fil0" points="1726,636 1733,633 "/>
   <polygon class="fil0" points="1647,637 1654,635 "/>
   <polygon class="fil0" points="1704,637 1711,634 "/>
   <polygon class="fil0" points="1587,639 1595,636 "/>
   <polygon class="fil0" points="1718,639 1725,636 "/>
   <polygon class="fil0" points="826,644 835,641 "/>
   <polygon class="fil0" points="1699,647 1706,644 "/>
   <polygon class="fil0" points="1730,626 1738,623 "/>
   <polygon class="fil0" points="1691,650 1698,647 "/>
   <polygon class="fil0" points="878,626 886,623 "/>
   <polygon class="fil0" points="1611,651 1618,649 "/>
   <polygon class="fil0" points="1669,651 1676,648 "/>
   <polygon class="fil0" points="1534,652 1541,650 "/>
   <polygon class="fil0" points="1551,653 1558,650 "/>
   <polygon class="fil0" points="1683,653 1691,650 "/>
   <polygon class="fil0" points="1661,655 1669,652 "/>
   <polygon class="fil0" points="1526,657 1534,652 "/>
   <polygon class="fil0" points="1543,656 1551,653 "/>
   <polygon class="fil0" points="1675,656 1683,653 "/>
   <polygon class="fil0" points="1754,625 1761,622 "/>
   <polygon class="fil0" points="1518,659 1525,656 "/>
   <polygon class="fil0" points="1650,659 1657,656 "/>
   <polygon class="fil0" points="1531,661 1538,658 "/>
   <polygon class="fil0" points="1510,662 1517,659 "/>
   <polygon class="fil0" points="1660,663 1667,660 "/>
   <polygon class="fil0" points="1523,664 1530,661 "/>
   <polygon class="fil0" points="1562,664 1569,661 "/>
   <polygon class="fil0" points="1502,666 1510,663 "/>
   <polygon class="fil0" points="787,671 796,667 "/>
   <polygon class="fil0" points="1762,622 1769,619 "/>
   <polygon class="fil0" points="1487,672 1494,669 "/>
   <polygon class="fil0" points="1479,675 1486,672 "/>
   <polygon class="fil0" points="1494,675 1502,672 "/>
   <polygon class="fil0" points="1770,619 1777,615 "/>
   <polygon class="fil0" points="1466,680 1478,675 "/>
   <polygon class="fil0" points="1600,680 1607,677 "/>
   <polygon class="fil0" points="1458,683 1466,680 "/>
   <polygon class="fil0" points="1742,630 1749,627 "/>
   <polygon class="fil0" points="1450,686 1458,683 "/>
   <polygon class="fil0" points="1644,617 1651,614 "/>
   <polygon class="fil0" points="1443,689 1450,686 "/>
   <polygon class="fil0" points="1435,692 1442,689 "/>
   <polygon class="fil0" points="1427,696 1435,692 "/>
   <polygon class="fil0" points="1347,11 1340,8 "/>
   <polygon class="fil0" points="913,616 922,612 "/>
   <polygon class="fil0" points="1419,699 1427,695 "/>
   <polygon class="fil0" points="1652,614 1660,610 "/>
   <polygon class="fil0" points="1411,702 1419,698 "/>
   <polygon class="fil0" points="1479,703 1486,700 "/>
   <polygon class="fil0" points="1333,12 1326,9 "/>
   <polygon class="fil0" points="1466,708 1473,705 "/>
   <polygon class="fil0" points="1344,17 1337,13 "/>
   <polygon class="fil0" points="1357,22 1349,18 "/>
   <polygon class="fil0" points="1391,710 1398,707 "/>
   <polygon class="fil0" points="1458,711 1466,709 "/>
   <polygon class="fil0" points="1523,711 1530,708 "/>
   <polygon class="fil0" points="978,608 987,605 "/>
   <polygon class="fil0" points="1383,713 1390,710 "/>
   <polygon class="fil0" points="1450,714 1458,712 "/>
   <polygon class="fil0" points="1375,716 1382,713 "/>
   <polygon class="fil0" points="1442,718 1450,715 "/>
   <polygon class="fil0" points="1504,719 1511,716 "/>
   <polygon class="fil0" points="1365,26 1357,22 "/>
   <polygon class="fil0" points="1434,721 1442,718 "/>
   <polygon class="fil0" points="1496,722 1503,719 "/>
   <polygon class="fil0" points="1488,725 1495,722 "/>
   <polygon class="fil0" points="1492,730 1499,727 "/>
   <polygon class="fil0" points="1484,733 1491,730 "/>
   <polygon class="fil0" points="1382,25 1375,22 "/>
   <polygon class="fil0" points="1476,737 1483,734 "/>
   <polygon class="fil0" points="997,602 1006,598 "/>
   <polygon class="fil0" points="1468,740 1475,737 "/>
   <polygon class="fil0" points="1310,741 1318,738 "/>
   <polygon class="fil0" points="1460,743 1467,740 "/>
   <polygon class="fil0" points="1390,28 1383,25 "/>
   <polygon class="fil0" points="978,599 987,595 "/>
   <polygon class="fil0" points="973,595 986,590 "/>
   <polygon class="fil0" points="1398,31 1391,28 "/>
   <polygon class="fil0" points="1384,33 1376,30 "/>
   <polygon class="fil0" points="1406,35 1399,31 "/>
   <polygon class="fil0" points="1392,36 1384,33 "/>
   <polygon class="fil0" points="1324,758 1332,755 "/>
   <polygon class="fil0" points="1414,38 1407,34 "/>
   <polygon class="fil0" points="1742,578 1750,574 "/>
   <polygon class="fil0" points="1409,763 1417,760 "/>
   <polygon class="fil0" points="1321,765 1329,761 "/>
   <polygon class="fil0" points="1422,41 1414,38 "/>
   <polygon class="fil0" points="1402,766 1409,763 "/>
   <polygon class="fil0" points="1314,768 1321,765 "/>
   <polygon class="fil0" points="1394,769 1401,767 "/>
   <polygon class="fil0" points="1306,772 1314,768 "/>
   <polygon class="fil0" points="1433,45 1425,42 "/>
   <polygon class="fil0" points="1365,777 1372,773 "/>
   <polygon class="fil0" points="1358,779 1365,776 "/>
   <polygon class="fil0" points="1278,783 1286,779 "/>
   <polygon class="fil0" points="1350,782 1357,779 "/>
   <polygon class="fil0" points="1321,799 1328,795 "/>
   <polygon class="fil0" points="1313,802 1321,798 "/>
   <polygon class="fil0" points="1297,808 1305,804 "/>
   <polygon class="fil0" points="1289,811 1297,807 "/>
   <polygon class="fil0" points="1449,52 1441,49 "/>
   <polygon class="fil0" points="1437,53 1430,50 "/>
   <polygon class="fil0" points="1150,828 1158,824 "/>
   <polygon class="fil0" points="1142,831 1150,827 "/>
   <polygon class="fil0" points="1134,834 1142,831 "/>
   <polygon class="fil0" points="1136,838 1145,833 "/>
   <polygon class="fil0" points="1116,846 1124,842 "/>
   <polygon class="fil0" points="1098,848 1106,845 "/>
   <polygon class="fil0" points="1108,849 1116,845 "/>
   <polygon class="fil0" points="1090,852 1098,848 "/>
   <polygon class="fil0" points="1100,852 1108,848 "/>
   <polygon class="fil0" points="1456,55 1449,52 "/>
   <polygon class="fil0" points="1082,855 1090,851 "/>
   <polygon class="fil0" points="1074,858 1082,854 "/>
   <polygon class="fil0" points="1067,861 1074,857 "/>
   <polygon class="fil0" points="1077,862 1084,858 "/>
   <polygon class="fil0" points="1059,864 1066,860 "/>
   <polygon class="fil0" points="1069,865 1077,861 "/>
   <polygon class="fil0" points="1754,567 1761,564 "/>
   <polygon class="fil0" points="1061,868 1069,864 "/>
   <polygon class="fil0" points="1045,869 1053,866 "/>
   <polygon class="fil0" points="1053,871 1061,867 "/>
   <polygon class="fil0" points="1038,872 1045,869 "/>
   <polygon class="fil0" points="1045,874 1053,870 "/>
   <polygon class="fil0" points="1030,875 1037,872 "/>
   <polygon class="fil0" points="1445,56 1438,53 "/>
   <polygon class="fil0" points="1453,59 1446,57 "/>
   <polygon class="fil0" points="1797,561 1791,557 "/>
   <polygon class="fil0" points="1472,61 1465,58 "/>
   <polygon class="fil0" points="875,942 883,937 "/>
   <polygon class="fil0" points="1474,68 1466,64 "/>
   <polygon class="fil0" points="860,947 867,945 "/>
   <polygon class="fil0" points="838,951 846,947 "/>
   <polygon class="fil0" points="852,951 860,948 "/>
   <polygon class="fil0" points="830,954 838,951 "/>
   <polygon class="fil0" points="844,954 852,951 "/>
   <polygon class="fil0" points="822,957 830,954 "/>
   <polygon class="fil0" points="1482,71 1474,68 "/>
   <polygon class="fil0" points="814,960 822,957 "/>
   <polygon class="fil0" points="823,962 831,959 "/>
   <polygon class="fil0" points="807,963 814,960 "/>
   <polygon class="fil0" points="816,965 823,962 "/>
   <polygon class="fil0" points="798,967 806,963 "/>
   <polygon class="fil0" points="808,969 815,965 "/>
   <polygon class="fil0" points="790,970 798,967 "/>
   <polygon class="fil0" points="783,973 790,970 "/>
   <polygon class="fil0" points="1520,82 1513,78 "/>
   <polygon class="fil0" points="775,977 782,973 "/>
   <polygon class="fil0" points="1135,555 1143,552 "/>
   <polygon class="fil0" points="779,980 787,976 "/>
   <polygon class="fil0" points="327,231 338,228 "/>
   <polygon class="fil0" points="656,1028 663,1024 "/>
   <polygon class="fil0" points="642,1033 650,1030 "/>
   <polygon class="fil0" points="287,234 299,231 "/>
   <polygon class="fil0" points="1873,257 1877,246 "/>
   <polygon class="fil0" points="484,1062 490,1059 "/>
   <polygon class="fil0" points="1760,263 1769,259 "/>
   <polygon class="fil0" points="479,1065 484,1062 "/>
   <polygon class="fil0" points="132,269 143,266 "/>
   <polygon class="fil0" points="1851,275 1859,273 "/>
   <polygon class="fil0" points="463,1073 471,1068 "/>
   <polygon class="fil0" points="1639,301 1649,297 "/>
   <polygon class="fil0" points="446,1078 454,1075 "/>
   <polygon class="fil0" points="439,1081 446,1078 "/>
   <polygon class="fil0" points="1610,310 1619,306 "/>
   <polygon class="fil0" points="1585,318 1594,314 "/>
   <polygon class="fil0" points="1539,339 1549,334 "/>
   <polygon class="fil0" points="1580,356 1590,352 "/>
   <polygon class="fil0" points="1596,357 1605,354 "/>
   <polygon class="fil0" points="1528,373 1537,369 "/>
   <polygon class="fil0" points="1402,381 1411,377 "/>
   <polygon class="fil0" points="1014,498 1022,494 "/>
   <polygon class="fil0" points="1381,388 1391,384 "/>
   <polygon class="fil0" points="1317,762 1324,759 "/>
  </g>
 </g>
</svg>
