<?xml version="1.0" encoding="UTF-8"?>
<!DOCTYPE svg PUBLIC "-//W3C//DTD SVG 1.1//EN" "http://www.w3.org/Graphics/SVG/1.1/DTD/svg11.dtd">
<!-- Creator: CorelDRAW X7 -->
<svg xmlns="http://www.w3.org/2000/svg" xml:space="preserve" width="8.0042mm" height="6.6345mm" version="1.1" style="shape-rendering:geometricPrecision; text-rendering:geometricPrecision; image-rendering:optimizeQuality; fill-rule:evenodd; clip-rule:evenodd"
viewBox="0 0 36075 29901"
 xmlns:xlink="http://www.w3.org/1999/xlink">
 <defs>
  <style type="text/css">
   <![CDATA[
    .str0 {stroke:#84716B;stroke-width:1126.74}
    .str1 {stroke:#AF916F;stroke-width:1126.74}
    .fil0 {fill:none}
    .fil1 {fill:#AF916F}
    .fil2 {fill:#84716B;fill-rule:nonzero}
   ]]>
  </style>
 </defs>
 <g id="Layer_x0020_1">
  <metadata id="CorelCorpID_0Corel-Layer"/>
  <g id="_665801680">
   <g>
    <path class="fil0 str0" d="M13420 27703c7256,-2167 14511,-4336 21767,-6504"/>
    <path class="fil0 str0" d="M35394 18987c39,1296 78,2593 98,3242 19,647 19,647 19,647"/>
    <path class="fil0 str1" d="M13230 15836c-33,3235 -64,6471 -32,8097 32,1626 126,1644 3443,685 3315,-961 9852,-2898 13120,-3884 3268,-987 3268,-1023 3331,-2497 64,-1476 192,-4391 256,-5849 64,-1457 64,-1457 64,-1457 0,0 0,0 0,0"/>
    <path class="fil0 str1" d="M13216 15481c18,3232 35,6465 17,8090 -17,1624 -70,1642 -1918,684 -1846,-960 -5487,-2896 -7307,-3881 -1821,-985 -1821,-1021 -1856,-2494 -36,-1475 -107,-4387 -142,-5844 -36,-1456 -36,-1456 -36,-1456 0,0 0,0 0,0"/>
    <path class="fil1" d="M4328 10205c1667,875 5248,2551 7039,3388 1791,838 1791,838 5068,75 3277,-763 9832,-2290 13121,-3040 3290,-751 3315,-726 1365,-1359 -1951,-634 -5876,-1926 -7838,-2572 -1963,-646 -1963,-646 -4894,-149 -2932,497 -8795,1491 -11789,2013 -2994,521 -3118,571 -3304,633 -186,62 -435,136 1232,1011z"/>
    <path class="fil0 str0" d="M13345 28373c-125,-9295 -250,-18590 -374,-27885"/>
    <path class="fil0 str0" d="M11718 608c837,-15 1674,-30 2093,-37 418,-8 418,-8 418,-8"/>
    <path class="fil0 str0" d="M13249 27842c-4166,-2241 -8331,-4483 -12496,-6724"/>
    <path class="fil0 str0" d="M600 19273c-12,1130 -24,2261 -31,2827 -6,565 -6,565 -6,565"/>
   </g>
   <path class="fil2" d="M2998 29473l0 -430c-434,365 -899,546 -1393,546 -358,0 -638,-91 -841,-271 -202,-181 -302,-403 -302,-665 0,-289 133,-539 398,-755 267,-214 656,-323 1165,-323 139,0 288,9 450,27 161,19 336,45 523,84l0 -484c0,-163 -76,-306 -227,-426 -153,-121 -381,-182 -686,-182 -233,0 -560,68 -980,204 -78,24 -126,36 -148,36 -39,0 -71,-14 -98,-42 -28,-28 -41,-64 -41,-107 0,-40 12,-71 35,-96 34,-35 168,-83 403,-144 370,-99 651,-149 840,-149 378,0 672,94 883,279 212,185 317,395 317,629l0 1971 400 0c74,0 126,13 158,41 30,27 46,63 46,108 0,42 -16,77 -46,107 -32,27 -84,42 -158,42l-698 0zm0 -1482c-140,-41 -288,-70 -445,-90 -157,-18 -323,-27 -496,-27 -435,0 -774,93 -1019,280 -185,139 -279,306 -279,499 0,180 71,330 213,454 141,123 347,184 619,184 259,0 499,-51 722,-154 221,-103 450,-266 685,-490l0 -656z"/>
   <path id="1" class="fil2" d="M5537 26398l0 458c208,-212 396,-357 564,-439 169,-81 357,-121 568,-121 227,0 434,49 621,145 133,71 253,190 361,353 108,165 161,333 161,505l0 1876 247 0c73,0 125,13 156,41 32,27 48,63 48,108 0,42 -16,77 -48,107 -31,27 -83,42 -156,42l-792 0c-74,0 -126,-15 -158,-42 -30,-30 -46,-65 -46,-107 0,-45 16,-81 46,-108 32,-28 84,-41 158,-41l247 0 0 -1829c0,-210 -77,-388 -230,-534 -154,-145 -360,-218 -618,-218 -197,0 -368,40 -511,119 -145,80 -350,277 -618,594l0 1868 327 0c73,0 124,13 156,41 32,27 47,63 47,108 0,42 -15,77 -47,107 -32,27 -83,42 -156,42l-953 0c-72,0 -124,-15 -156,-42 -31,-30 -47,-65 -47,-107 0,-45 16,-81 47,-108 32,-28 84,-41 156,-41l327 0 0 -2479 -247 0c-72,0 -124,-13 -156,-41 -31,-28 -47,-64 -47,-108 0,-42 16,-78 47,-106 32,-28 84,-43 156,-43l546 0z"/>
   <path class="fil2" d="M25646 25329l0 4158 1163 0c74,0 126,13 157,41 31,27 47,63 47,108 0,42 -16,78 -47,107 -31,28 -83,42 -157,42l-2632 0c-70,0 -120,-14 -150,-42 -30,-29 -46,-65 -46,-107 0,-45 16,-81 46,-108 30,-28 80,-41 150,-41l1171 0 0 -3860 -858 0c-72,0 -124,-14 -155,-42 -33,-28 -49,-64 -49,-108 0,-42 16,-78 46,-105 32,-28 84,-43 158,-43l1156 0z"/>
   <path id="1" class="fil2" d="M30721 29785l0 -430c-435,365 -899,546 -1393,546 -359,0 -639,-91 -841,-271 -203,-181 -303,-402 -303,-665 0,-288 133,-539 398,-755 267,-214 656,-322 1166,-322 138,0 287,8 450,26 161,19 335,45 523,84l0 -483c0,-164 -76,-307 -228,-427 -153,-121 -381,-181 -686,-181 -232,0 -559,67 -980,203 -77,24 -126,36 -148,36 -39,0 -71,-14 -98,-42 -28,-28 -41,-64 -41,-106 0,-40 12,-72 35,-96 34,-35 169,-84 403,-145 370,-99 651,-148 840,-148 378,0 673,93 883,278 212,185 318,395 318,629l0 1971 400 0c73,0 126,13 157,41 30,27 46,63 46,108 0,42 -16,78 -46,107 -31,28 -84,42 -157,42l-698 0zm0 -1482c-141,-41 -289,-70 -446,-89 -156,-18 -322,-28 -496,-28 -435,0 -774,93 -1019,280 -185,139 -278,307 -278,499 0,181 70,331 212,454 142,123 348,185 619,185 259,0 499,-51 722,-155 222,-102 451,-266 686,-490l0 -656z"/>
   <path class="fil2" d="M6253 5667l0 -430c-435,364 -900,546 -1394,546 -358,0 -638,-91 -841,-271 -202,-181 -302,-403 -302,-666 0,-288 133,-539 398,-755 267,-214 656,-322 1165,-322 139,0 288,9 450,27 161,18 336,45 524,84l0 -484c0,-164 -77,-306 -228,-426 -153,-122 -381,-182 -686,-182 -233,0 -560,68 -980,204 -78,24 -126,36 -148,36 -39,0 -71,-15 -98,-43 -28,-28 -41,-64 -41,-106 0,-40 12,-72 35,-96 34,-35 168,-83 403,-144 370,-99 651,-149 840,-149 378,0 672,93 883,279 212,185 317,394 317,628l0 1972 400 0c74,0 126,13 158,41 30,26 46,63 46,107 0,43 -16,78 -46,107 -32,28 -84,43 -158,43l-697 0zm0 -1482c-141,-41 -289,-71 -446,-90 -157,-18 -322,-27 -496,-27 -435,0 -774,93 -1019,279 -185,140 -279,307 -279,499 0,181 71,331 213,455 141,122 347,184 619,184 259,0 499,-51 722,-154 221,-103 450,-267 686,-491l0 -655z"/>
   <path id="1" class="fil2" d="M9903 1211l0 4158 1163 0c74,0 126,13 157,41 31,26 47,63 47,107 0,43 -16,78 -47,107 -31,28 -83,43 -157,43l-2632 0c-70,0 -120,-15 -150,-43 -30,-29 -46,-64 -46,-107 0,-44 16,-81 46,-107 30,-28 80,-41 150,-41l1171 0 0 -3861 -858 0c-72,0 -123,-14 -155,-42 -33,-28 -49,-64 -49,-108 0,-42 16,-77 46,-105 32,-28 84,-42 158,-42l1156 0z"/>
  </g>
 </g>
</svg>
