<?xml version="1.0" encoding="UTF-8"?>
<!DOCTYPE svg PUBLIC "-//W3C//DTD SVG 1.1//EN" "http://www.w3.org/Graphics/SVG/1.1/DTD/svg11.dtd">
<!-- Creator: CorelDRAW X7 -->
<svg xmlns="http://www.w3.org/2000/svg" xml:space="preserve" width="20.3374mm" height="32.4658mm" version="1.1" style="shape-rendering:geometricPrecision; text-rendering:geometricPrecision; image-rendering:optimizeQuality; fill-rule:evenodd; clip-rule:evenodd"
viewBox="0 0 450992 719945"
 xmlns:xlink="http://www.w3.org/1999/xlink">
 <defs>
  <style type="text/css">
   <![CDATA[
    .str0 {stroke:#84716B;stroke-width:5543.87}
    .fil1 {fill:none}
    .fil0 {fill:#C8BBA7}
    .fil2 {fill:#C8BBA7;fill-rule:nonzero}
   ]]>
  </style>
 </defs>
 <g id="Layer_x0020_1">
  <metadata id="CorelCorpID_0Corel-Layer"/>
  <g id="_528421496">
   <path class="fil0" d="M75916 232809c16429,1453 56696,-25825 76348,-44300 19654,-18467 18685,-28134 28351,-14400 9666,13735 29959,50870 55334,68214 25374,17347 55825,14901 85560,18869 29735,3967 58758,14352 63834,-5892 5072,-20247 -13799,-71122 -30968,-104771 -17172,-33651 -32633,-50087 -54141,-66575 -21513,-16487 -49063,-33037 -74193,-34002 -25133,-964 -47845,13647 -65965,25305 -18122,11658 -31656,20359 -45189,35820 -13532,15467 -27061,37698 -37530,63901 -10469,26207 -17878,56381 -1441,57831z"/>
   <path class="fil0" d="M183782 56838c5257,7 15154,-2750 26000,-4484 10846,-1730 22641,-2437 28729,-2836 6082,-399 6459,-490 5621,-4278 -840,-3787 -2903,-11272 -5801,-16937 -2901,-5662 -6644,-9500 -11003,-12026 -4362,-2526 -9347,-3735 -13430,-4420 -4082,-683 -7260,-845 -10722,-494 -3468,348 -7216,1206 -10269,2288 -3056,1082 -5424,2386 -7578,4846 -2157,2461 -4100,6076 -5393,9890 -1293,3816 -1931,7830 -2266,11680 -333,3856 -362,7544 -64,10770 290,3229 913,5999 6176,6001z"/>
   <path class="fil1 str0" d="M223651 46167c87143,0 157783,95707 157783,213770 -2209,100823 -33718,140750 -108640,202513 -49713,40982 -60754,30152 -112037,-13248 -69671,-58956 -92820,-94887 -94887,-189265 0,-118063 70640,-213770 157781,-213770z"/>
   <path class="fil1 str0" d="M1499 686382c55097,-35419 110194,-70839 137989,-105030 27795,-34190 28287,-67147 28533,-83874 244,-16725 244,-17219 244,-17709"/>
   <path class="fil1 str0" d="M449493 697525c-58069,-37330 -116136,-74660 -145432,-110693 -29291,-36035 -29810,-70771 -30070,-88400 -259,-17625 -259,-18147 -259,-18663"/>
   <g>
    <path class="fil2" d="M436691 267019c2372,3628 -8316,20717 -10671,23642 -2459,2528 -4571,4164 -7775,5677 -3118,1317 -5604,1776 -8979,1798 -12702,-335 -28278,-8879 -40199,-13837 -28986,-12703 -35466,-23316 -58719,-39189 -6821,-4408 -11833,-6642 -19998,-7121 -8866,51 -15234,1896 -23461,4684 -8247,2743 -11833,-2151 -14727,-9079 -3295,-7881 -3187,-13842 6074,-16922 11651,-3747 21900,-5222 34199,-4151 13079,1676 21395,5686 31790,13633 20096,16774 27037,28906 51955,42544 8465,4375 25653,15328 33869,17534 1643,266 2827,304 4464,-42 2065,-479 3477,-1288 5196,-2504 3381,-915 15698,-17330 16982,-16667z"/>
   </g>
   <path class="fil1" d="M252162 233594c66041,-27604 67475,18734 120461,42903 33572,15315 43830,29680 64068,-9478"/>
   <path class="fil1 str0" d="M180537 169673c14374,30086 28742,60176 49281,70031 20534,9857 47229,-515 76598,8258 29367,8777 61402,36707 83170,45741 21767,9034 33267,-820 44767,-10677"/>
   <g>
    <path class="fil2" d="M43442 232661c397,-397 862,-113 1286,-7 137,33 761,93 874,62 1128,-301 7808,2892 9517,2439 9294,289 14780,-1738 22582,-6659 315,-75 20082,-14565 22117,-15995 19417,-13536 26012,-29598 45584,-43548 4311,-2659 6145,-6167 9857,-8569 3657,-2262 6615,-2929 10822,-3175 364,-122 3406,-140 4087,-120 7234,195 7571,7970 7265,13389 -278,4872 -1435,12849 -7970,12674 -805,-22 -1637,-78 -2439,-133 -1240,0 498,-220 1904,-1122 2837,-2231 -10152,7468 -10719,7819 -18925,11048 -26442,25557 -49851,38135 -7852,4173 -16396,9121 -24468,12609 -10817,4286 -18940,5382 -30203,2051 -3295,-1348 -7327,-4375 -9520,-7256 -448,-306 -630,-920 -865,-1321 -186,-318 -151,-983 140,-1273z"/>
   </g>
   <path class="fil1" d="M177433 170478c-21083,-1193 -11279,7 -25626,8855 -18433,11372 -26150,28842 -47720,40843 -16574,9220 -28981,22699 -49682,18658 -2581,-503 -7391,-3692 -9872,-5040 -215,-113 -818,-858 -1091,-1133"/>
   <path class="fil1 str0" d="M180537 169673c-23821,26283 -47639,52570 -70227,63247 -22590,10675 -43945,5750 -65303,823"/>
   <path class="fil1 str0" d="M174710 54791c-763,-18547 -1522,-37093 9076,-45828 10600,-8732 32565,-7657 44324,-368 11756,7289 13310,20794 14865,34292"/>
   <g>
    <path class="fil2" d="M56011 576642c477,118 1009,1255 1827,1843 64,95 1603,1100 1876,1430 9,12 140,47 158,47 31,0 2341,1588 2528,1732 68,55 215,-44 308,-58 889,233 1880,450 2803,371 461,46 723,-189 1060,-375 732,-408 2663,-3267 3217,-3652l-95 79c-18,-44 2996,-4914 3287,-5333 86,-126 -111,158 -122,129 0,0 14635,-29112 15837,-31405 9749,-19189 15975,-36991 19466,-58284 1441,-10376 1907,-19273 532,-29673 33,-4510 -3251,-13427 -5278,-17884 -2561,-5633 4704,-10108 8627,-12612 5801,-3705 12418,-6938 16181,1324 3810,8666 5375,17250 6160,26657 701,13117 -618,23821 -3510,36616 -5901,23371 -14472,42775 -28338,62509 -6879,9664 -13130,19425 -20459,28797 -5,2 -413,554 -433,565 -15,7 -3914,4140 -4231,4513 -86,100 -601,681 -652,701 -2490,2215 -4650,3962 -7972,4697 -1095,569 -3463,-105 -4497,-147 -991,-42 -3144,-1483 -4069,-1845 -798,-313 -1335,-1020 -1936,-1579 -455,-426 -1262,-1945 -1727,-2532 -65,-82 -344,-464 -369,-543 -505,-936 -944,-1777 -1190,-2819 -238,-718 0,-3355 1011,-3269z"/>
   </g>
   <path class="fil1" d="M112042 422997c21976,34423 3437,91002 -16428,122782 -6364,10176 -11471,20022 -18202,30185l-3993 5213c-4717,4952 -6806,5684 -12605,3045l-2743 -2748c-1384,-1745 -2258,-2545 -2060,-4832"/>
   <path class="fil1 str0" d="M104857 400627c-1408,16394 -2814,32791 -437,49200 2377,16415 8535,32840 6278,46598 -2258,13762 -12940,24847 -19920,39840 -6981,14991 -10268,33887 -16426,41071 -6162,7188 -15199,2673 -20129,615 -4927,-2052 -5747,-1641 -1024,1539 4721,3186 14991,9138 23311,5034 8313,-4105 14682,-18278 22586,-31217 7905,-12933 17354,-24639 23310,-36040 5955,-11395 8416,-22481 10711,-35154 2295,-12671 4422,-26926 5484,-34051 1062,-7127 1062,-7127 1062,-7127"/>
   <path class="fil1 str0" d="M96069 621894c7885,10608 15775,21222 20745,36177 4969,14957 7027,34261 8054,43912 1024,9650 1024,9650 1024,9650"/>
   <path class="fil1 str0" d="M84336 630766c8881,12001 17762,23996 22022,37064 4253,13070 3885,27203 4111,34066 229,6866 1047,6453 1872,6043"/>
   <path class="fil1 str0" d="M352725 629801c-7885,10611 -15775,21225 -20745,36177 -4971,14958 -7027,34264 -8056,43912 -1025,9653 -1025,9653 -1025,9653"/>
   <path class="fil1 str0" d="M364458 638676c-8883,11999 -17764,23996 -22022,37064 -4253,13068 -3885,27203 -4111,34066 -229,6866 -1049,6451 -1872,6041"/>
  </g>
 </g>
</svg>
