<?xml version="1.0" encoding="UTF-8"?>
<!DOCTYPE svg PUBLIC "-//W3C//DTD SVG 1.1//EN" "http://www.w3.org/Graphics/SVG/1.1/DTD/svg11.dtd">
<!-- Creator: CorelDRAW X7 -->
<svg xmlns="http://www.w3.org/2000/svg" xml:space="preserve" width="28.4404mm" height="16.3141mm" version="1.1" style="shape-rendering:geometricPrecision; text-rendering:geometricPrecision; image-rendering:optimizeQuality; fill-rule:evenodd; clip-rule:evenodd"
viewBox="0 0 1751 1004"
 xmlns:xlink="http://www.w3.org/1999/xlink">
 <defs>
  <style type="text/css">
   <![CDATA[
    .fil0 {fill:#D2D3D5}
   ]]>
  </style>
 </defs>
 <g id="Layer_x0020_1">
  <metadata id="CorelCorpID_0Corel-Layer"/>
  <path class="fil0" d="M287 84c-11,8 -17,19 -19,31 -3,1 -6,3 -9,4 -32,13 -62,29 -90,48 35,-33 74,-61 118,-83zm231 -49c-26,0 -52,2 -77,5 -9,1 -22,2 -36,5 37,-7 75,-11 113,-10zm866 433c16,22 30,44 42,67 -47,-74 -110,-140 -180,-196 52,37 99,80 138,129zm-660 -404c63,17 124,38 183,60 62,24 126,53 187,88 -44,-20 -89,-38 -133,-53 -10,-3 -19,-6 -28,-9 -54,-26 -110,-48 -166,-65 -1,-4 -4,-8 -10,-10 -11,-4 -22,-7 -33,-11zm712 556c-34,-63 -79,-123 -128,-177 53,53 98,112 128,177zm-1371 -184c121,-341 536,-358 824,-243 149,60 284,155 391,276 89,101 175,230 189,367 -41,-82 -95,-156 -159,-223 0,0 0,0 0,0l0 0c-1,-1 -2,-2 -4,-3 -5,-5 -11,-6 -16,-4 -14,-4 -30,12 -21,29 1,1 1,2 2,3 -2,5 -2,11 1,16 1,1 2,3 4,5 -9,-10 -18,-20 -27,-31 -16,-17 -44,2 -30,22 64,93 129,186 194,280 3,4 7,6 12,7 9,18 17,37 24,56 5,12 23,16 31,5 0,-1 1,-1 1,-2 7,5 18,7 24,-2 10,-14 20,-27 30,-40 1,-1 3,-3 4,-4 17,-23 34,-46 49,-69 53,-73 106,-146 159,-219 13,-17 -11,-37 -25,-21 -25,26 -48,53 -70,81 8,-14 16,-28 25,-42 10,-15 19,-30 29,-44 8,-12 0,-26 -11,-29 5,-10 10,-21 14,-31 8,-18 -18,-35 -30,-18 -54,73 -95,154 -132,237 -6,-248 -179,-463 -389,-590 -139,-84 -298,-145 -456,-182 -141,-32 -293,-37 -426,26 -139,67 -239,195 -276,344 -4,17 22,28 32,14 11,-15 23,-31 35,-45 -10,21 -19,44 -26,67 -4,13 19,20 24,7z"/>
 </g>
</svg>
