<?xml version="1.0" encoding="UTF-8"?>
<!DOCTYPE svg PUBLIC "-//W3C//DTD SVG 1.1//EN" "http://www.w3.org/Graphics/SVG/1.1/DTD/svg11.dtd">
<!-- Creator: CorelDRAW X7 -->
<svg xmlns="http://www.w3.org/2000/svg" xml:space="preserve" width="13.4538mm" height="26.1564mm" version="1.1" style="shape-rendering:geometricPrecision; text-rendering:geometricPrecision; image-rendering:optimizeQuality; fill-rule:evenodd; clip-rule:evenodd"
viewBox="0 0 192449 374153"
 xmlns:xlink="http://www.w3.org/1999/xlink">
 <defs>
  <style type="text/css">
   <![CDATA[
    .str0 {stroke:#84716B;stroke-width:3576.11}
    .fil0 {fill:none}
    .fil2 {fill:#84716B}
    .fil1 {fill:#CEC5B5}
   ]]>
  </style>
 </defs>
 <g id="Layer_x0020_1">
  <metadata id="CorelCorpID_0Corel-Layer"/>
  <g id="_631881048">
   <g>
    <path class="fil0 str0" d="M48691 112018c3280,9842 6560,19679 6835,29519 273,9841 -2462,19681 -12575,35534 -10112,15853 -27605,37720 -35803,63411 -8202,25694 -7109,55214 4098,78173 11206,22961 32526,39360 54118,47558 21593,8202 43460,8202 62047,0 18586,-8198 33890,-24597 41545,-48924 7653,-24327 7653,-56579 548,-81726 -7110,-25146 -21321,-43185 -28974,-57945 -7654,-14759 -8747,-26240 -7654,-36901 1094,-10659 4374,-20497 6833,-25419 2460,-4918 4101,-4918 5740,-4918"/>
    <ellipse class="fil1 str0" cx="95557" cy="109442" rx="47379" ry="3336"/>
    <path class="fil1 str0" d="M62912 117417c13135,-2501 42589,-2501 57318,-2501 14730,0 14730,0 14123,2917 -608,2920 -1822,8756 -3492,14036 -1672,5282 -3796,10007 -3188,17510 607,7505 3945,17790 8730,27448 4782,9659 11007,18693 16702,28352 5693,9658 10856,19943 14426,30227 3567,10285 5539,20568 5996,31268 455,10702 -609,21818 -2886,32728 -2279,10910 -5769,21613 -11082,30713 -5317,9105 -12452,16608 -20498,22097 -8049,5491 -17010,8966 -24753,11257 -7743,2295 -14271,3407 -24216,1738 -9947,-1666 -23310,-6115 -34243,-11258 -10933,-5141 -19434,-10977 -25963,-18203 -6531,-7226 -11084,-15844 -15031,-25919 -3951,-10074 -7289,-21611 -7670,-32521 -379,-10910 2202,-21193 7212,-32867 5011,-11673 12451,-24738 19741,-37385 7288,-12646 14423,-24874 19359,-35438 4934,-10562 7669,-19457 7746,-26128 74,-6670 -2507,-11116 -5391,-15841 -2887,-4725 -6074,-9728 7060,-12230z"/>
   </g>
   <path class="fil0 str0" d="M85661 317120c-2501,-35023 -5002,-70043 1808,-110625 6810,-40579 22930,-86721 35299,-113822 12371,-27097 20985,-35158 24320,-39329 3336,-4167 1392,-4447 -555,-4725"/>
   <path class="fil1 str0" d="M140689 27307c947,-1756 -3651,-3649 -4326,-7573 -678,-3920 2569,-9874 7032,-11904 4464,-2025 10145,-134 13526,3382 3382,3519 4463,8657 4737,7171 268,-1488 -274,-9604 2973,-12851 3246,-3246 10281,-1623 14880,1893 4599,3518 6760,8928 7843,13527 1081,4599 1081,8386 -1217,10687 -2299,2298 -6898,3108 -9198,3513 -2299,407 -2299,407 948,1625 3246,1217 9739,3653 11903,7575 2164,3924 0,9334 -3246,12445 -3247,3111 -7575,3923 -10144,2027 -2572,-1891 -3382,-6493 -4385,-9305 -1004,-2809 -2200,-3832 -2739,-1804 -542,2030 -429,7110 -2264,10192 -1838,3081 -5628,4164 -9054,3173 -3427,-991 -6492,-4060 -8115,-6358 -1623,-2299 -1805,-3831 -1002,-5756 799,-1924 2583,-4243 689,-4379 -1894,-134 -7462,1912 -11870,229 -4408,-1681 -7655,-7092 -6030,-10608 1622,-3516 8112,-5141 9059,-6901z"/>
   <ellipse class="fil2 str0" cx="161543" cy="34443" rx="12508" ry="10839"/>
   <path class="fil1 str0" d="M139167 25964c972,-1805 -3752,-3749 -4445,-7780 -696,-4030 2639,-10146 7225,-12230 4586,-2083 10424,-139 13897,3473 3475,3616 4586,8896 4867,7368 277,-1528 -281,-9869 3055,-13205 3336,-3335 10564,-1666 15289,1947 4724,3614 6946,9172 8059,13897 1111,4725 1111,8617 -1252,10980 -2362,2362 -7086,3194 -9449,3611 -2362,419 -2362,419 974,1669 3336,1250 10006,3753 12230,7783 2223,4031 0,9590 -3336,12787 -3336,3197 -7783,4029 -10422,2082 -2643,-1944 -3475,-6670 -4506,-9559 -1031,-2887 -2259,-3938 -2814,-1854 -557,2086 -442,7304 -2327,10471 -1888,3167 -5782,4278 -9301,3260 -3521,-1019 -6671,-4170 -8338,-6533 -1669,-2362 -1855,-3935 -1031,-5915 822,-1975 2655,-4359 709,-4497 -1946,-139 -7667,1964 -12196,234 -4530,-1726 -7866,-7286 -6196,-10900 1666,-3612 8335,-5281 9308,-7089z"/>
   <ellipse class="fil2 str0" cx="162114" cy="35015" rx="11725" ry="10161"/>
  </g>
 </g>
</svg>
