<?xml version="1.0" encoding="UTF-8"?>
<!DOCTYPE svg PUBLIC "-//W3C//DTD SVG 1.1//EN" "http://www.w3.org/Graphics/SVG/1.1/DTD/svg11.dtd">
<!-- Creator: CorelDRAW X7 -->
<svg xmlns="http://www.w3.org/2000/svg" xml:space="preserve" width="63.6288mm" height="58.9038mm" version="1.1" style="shape-rendering:geometricPrecision; text-rendering:geometricPrecision; image-rendering:optimizeQuality; fill-rule:evenodd; clip-rule:evenodd"
viewBox="0 0 4637 4293"
 xmlns:xlink="http://www.w3.org/1999/xlink">
 <defs>
  <style type="text/css">
   <![CDATA[
    .fil0 {fill:#DC7627}
   ]]>
  </style>
 </defs>
 <g id="Layer_x0020_1">
  <metadata id="CorelCorpID_0Corel-Layer"/>
  <path class="fil0" d="M3959 79c66,253 -8,147 66,400 32,106 114,343 114,408 0,131 -74,164 -57,311 24,179 49,138 -57,310 -311,530 -964,547 -1209,751 58,163 237,98 400,49l678 -229c106,-32 400,-24 465,17 57,32 245,261 278,383 8,33 -82,286 -98,400 -41,564 -384,302 -735,392 -310,82 -335,33 -506,-220 -82,-131 -245,-482 -433,-441 17,82 -8,49 9,106 65,253 293,563 351,776 24,73 8,0 0,65 -311,73 -351,-923 -645,-898l40 416c41,327 360,547 -24,751 -294,164 -90,319 -620,457 -139,41 -205,-57 -270,-147 -114,-155 -139,-97 -253,-187 -400,-310 253,-849 506,-1029 98,-65 196,-122 294,-179 33,-25 384,-302 90,-205l-1012 409c-384,138 -547,-229 -809,-400 -204,-147 -146,-204 -269,-425 -106,-179 -188,-82 -253,-408 131,-74 -16,-41 269,-114 645,-172 1943,285 2196,759l74 -25c-172,-661 -1176,-1273 -1208,-1371 171,-49 171,98 343,220 106,82 204,180 302,278 146,139 457,490 555,669l40 -16c-106,-392 -138,-1567 156,-1649 73,261 -172,24 -196,841 0,204 8,906 236,906 -81,-335 107,-1012 221,-1257 98,-213 514,-882 767,-947 65,-17 188,0 204,73z"/>
 </g>
</svg>
