<?xml version="1.0" encoding="UTF-8"?>
<!DOCTYPE svg PUBLIC "-//W3C//DTD SVG 1.1//EN" "http://www.w3.org/Graphics/SVG/1.1/DTD/svg11.dtd">
<!-- Creator: CorelDRAW X7 -->
<svg xmlns="http://www.w3.org/2000/svg" xml:space="preserve" width="23.5089mm" height="24.7731mm" version="1.1" style="shape-rendering:geometricPrecision; text-rendering:geometricPrecision; image-rendering:optimizeQuality; fill-rule:evenodd; clip-rule:evenodd"
viewBox="0 0 2341974 2467914"
 xmlns:xlink="http://www.w3.org/1999/xlink">
 <defs>
  <style type="text/css">
   <![CDATA[
    .str0 {stroke:#84716B;stroke-width:24905.2}
    .str1 {stroke:#84716B;stroke-width:19924.1}
    .fil2 {fill:none}
    .fil4 {fill:none;fill-rule:nonzero}
    .fil0 {fill:#C8BBA7}
    .fil1 {fill:#CEC5B5}
    .fil3 {fill:#84716B;fill-rule:nonzero}
   ]]>
  </style>
 </defs>
 <g id="Layer_x0020_1">
  <metadata id="CorelCorpID_0Corel-Layer"/>
  <g id="_523618760">
   <path class="fil0" d="M392705 500564c380242,35376 1140747,35376 1529836,32058 389098,-3317 406781,-9952 414512,-48645 7740,-38682 5539,-109423 -1106,-163587 -6625,-54164 -17683,-91750 -30952,-119385 -13250,-27635 -28731,-45318 -48635,-61905 -19894,-16576 -44212,-32058 -65212,-42000 -21010,-9952 -38683,-14365 -363665,-15471 -324983,-1106 -957266,1106 -1293297,6625 -336030,5539 -375819,14365 -403454,24317 -27634,9953 -43116,21000 -58587,33164 -15471,12164 -30952,25433 -40894,44222 -9952,18788 -14375,43116 -16577,66327 -2221,23212 -2221,45308 -2221,91731 0,46433 0,117174 380252,152549z"/>
   <path class="fil1" d="M390035 618764c380243,-148395 1140747,-148395 1529836,-134468 389099,13877 406781,41721 414512,204033 7740,162273 5539,459013 -1106,686228 -6625,227215 -17683,384905 -30952,500823 -13250,115919 -28731,190117 -48635,259682 -19894,69525 -44212,134468 -65212,176189 -21010,41731 -38682,60280 -363665,64903 -324983,4632 -957266,-4623 -1293297,-27804 -336030,-23212 -375819,-60271 -403454,-101992 -27634,-41771 -43115,-88125 -58586,-139140 -15472,-51016 -30953,-106664 -40895,-185494 -9952,-78820 -14375,-180862 -16577,-278231 -2221,-97369 -2221,-190076 -2221,-384815 0,-194788 0,-491529 380252,-639914z"/>
   <rect class="fil2 str0" x="12457" y="12448" width="2302843" height="2443017" rx="274263" ry="274263"/>
   <line class="fil2 str0" x1="53656" y1="531128" x2="2260833" y2= "531128" />
   <path class="fil3" d="M997263 262152c0,21040 -6077,41014 -18220,59902 -12144,18888 -31839,40336 -59085,64355 -16468,14564 -33393,28332 -50797,41283 -17404,12950 -31908,22126 -43514,27525 -807,2959 -2023,5190 -3646,6675 -1614,1484 -4045,2221 -7283,2221 -2430,0 -4184,-468 -5260,-1415 -1086,-946 -1623,-2630 -1623,-5060 0,-1614 607,-8358 1823,-20233 1215,-11875 1823,-25772 1823,-41692 0,-26987 -409,-51404 -1216,-73261 -538,-25363 -807,-43175 -807,-53426 0,-15920 1614,-29010 4852,-39261 2431,-6475 6744,-9713 12951,-9713 2161,0 4124,409 5877,1216 1754,807 2630,2022 2630,3646 -269,1345 -1693,6067 -4254,14166 -2560,8089 -3845,15780 -3845,23072 0,20233 408,42359 1215,66377 538,30753 807,52072 807,63947 0,20243 -129,32377 -398,36431 9713,-3785 22863,-11606 39460,-23480 16596,-11875 30553,-22664 41890,-32377 23481,-21050 40606,-39938 51404,-56665 10789,-16736 16189,-34140 16189,-52211 0,-21857 -13698,-36839 -41084,-44929 -27386,-8099 -63209,-12143 -107461,-12143 -13488,0 -31570,1613 -54233,4861 -4314,269 -11068,1614 -20243,4045 -4045,1345 -6874,2022 -8498,2022 -2152,0 -4244,-1753 -6266,-5260 -2032,-3507 -3038,-7013 -3038,-10530 0,-1345 946,-2630 2829,-3845 1893,-1206 4861,-2082 8906,-2630 16188,-2152 30016,-3776 41492,-4852 11466,-1086 24885,-1624 40267,-1624 49113,0 89110,5539 120013,16597 30892,11068 46343,29817 46343,56266z"/>
   <path id="1" class="fil3" d="M1195578 424454c279,1883 1355,3845 3248,5868 1883,2022 2829,3706 2829,5060 0,3238 -1355,6944 -4044,11128 -2700,4184 -5400,6276 -8100,6276 -4582,0 -8099,-2839 -10520,-8497 -2430,-5669 -3646,-12284 -3646,-19835 0,-6475 409,-25911 1216,-58288l408 -15381c0,-6207 -1624,-10660 -4861,-13350 -12144,20502 -23471,38314 -34001,53427 -10520,15102 -23879,29338 -40067,42697 -16189,13360 -33194,20034 -50996,20034 -8637,0 -15312,-2700 -20034,-8099 -4722,-5390 -7093,-12413 -7093,-21040 0,-10799 4862,-25573 14575,-44321 9713,-18759 22125,-37776 37238,-57073 15112,-19286 30225,-35146 45327,-47559 9992,-8089 17952,-13558 23889,-16387 5928,-2840 11198,-4254 15780,-4254 4314,0 8767,1355 13359,4044 4583,2700 8498,6486 11736,11337 3237,4862 4861,10391 4861,16597 0,8368 -2301,16328 -6884,23879l6884 -2022c2969,0 4722,3646 5260,10928 269,4314 608,13090 1006,26310 409,13220 748,24148 1016,32785 269,8906 538,17533 807,25902 269,8368 538,14973 807,19834zm-142876 7282c14575,0 28611,-5399 42100,-16188 13489,-10799 25563,-23680 36222,-38653 10660,-14973 22465,-33393 35415,-55250 3238,-8099 4862,-16865 4862,-26309 0,-5669 -1694,-10590 -5061,-14774 -3377,-4184 -7890,-6276 -13558,-6276 -6745,0 -15382,4592 -25902,13767 -12143,10251 -24965,23949 -38453,41084 -13489,17135 -24696,34060 -33592,50797 -8907,16726 -13360,29946 -13360,39659 0,8099 3776,12143 11327,12143z"/>
   <path id="2" class="fil3" d="M1421438 282793c0,4583 -1962,8090 -5867,10520 -3915,2431 -10998,4314 -21249,5669 -24826,4313 -38723,6744 -41692,7282l-26309 4453c0,14027 199,28741 607,44122 399,15372 1006,28870 1823,40466 1076,15650 2969,27665 5659,36023 2700,8368 4184,13090 4453,14166 0,2700 -1684,5200 -5051,7491 -3377,2292 -6545,3437 -9514,3437 -1624,0 -2968,-468 -4054,-1414 -1076,-947 -2023,-2491 -2829,-4653 -1614,-3775 -3168,-10788 -4653,-21049 -1484,-10251 -2630,-21588 -3447,-34001 -807,-11058 -1414,-23939 -1813,-38653 -408,-14704 -607,-28940 -607,-42697 -15113,2430 -30634,5399 -46553,8906 -14296,2969 -22793,4453 -25493,4453 -3238,0 -6276,-947 -9105,-2839 -2840,-1883 -4254,-4453 -4254,-7691 0,-3507 1215,-5798 3646,-6874 2421,-1086 6475,-1624 12144,-1624 4044,0 9982,-737 17802,-2221 7830,-1485 12821,-2501 14973,-3039 18081,-3506 30364,-5798 36840,-6883 0,-5659 -269,-13081 -817,-22256 -538,-12412 -807,-21856 -807,-28332 0,-10530 338,-18689 1016,-24487 667,-5808 1952,-10998 3845,-15590 2152,-5390 6207,-8089 12144,-8089 2421,0 4045,408 4852,1215 806,807 1215,2291 1215,4453 0,1614 -678,6336 -2022,14166 -1355,7820 -2023,18211 -2023,31161 0,9982 269,21180 807,33592l409 10929c12143,-1883 36152,-6874 72045,-14973 2152,-538 3975,-2431 5460,-5669 1484,-3237 3038,-4851 4652,-4851 2969,0 6007,1684 9105,5061 3108,3367 4662,6804 4662,10320z"/>
   <path id="3" class="fil3" d="M1595077 347148c1883,0 2830,2023 2830,6067 0,4862 -3577,15511 -10720,31979 -7152,16457 -17951,31699 -32386,45735 -14435,14027 -32178,21050 -53218,21050 -17274,0 -31709,-5399 -43315,-16198 -11596,-10789 -17403,-27386 -17403,-49781 0,-21049 4861,-41890 14574,-62531 9713,-20642 22395,-37508 38045,-50598 15651,-13080 31839,-19625 48565,-19625 9992,0 18420,2221 25304,6674 6874,4454 10321,10859 10321,19227 0,9444 -5330,18619 -15989,27525 -10660,8907 -24487,16727 -41492,23471 -16996,6744 -34539,11606 -52610,14575 -3238,12412 -4862,24556 -4862,36421 0,15650 3716,27794 11128,36431 7422,8637 18011,12951 31779,12951 20771,0 37637,-7422 50587,-22255 12961,-14844 23750,-31570 32387,-50189 538,-1086 1484,-3178 2829,-6276 1355,-3108 2561,-4653 3646,-4653zm-35624 -63548c0,-4323 -2221,-7690 -6675,-10121 -4453,-2431 -9643,-3646 -15580,-3646 -10251,0 -20104,3377 -29548,10121 -9444,6745 -17334,14844 -23680,24288 -6335,9444 -10450,17812 -12343,25094 12413,-1355 25503,-4861 39261,-10520 13758,-5668 25294,-11875 34608,-18619 9305,-6754 13957,-12283 13957,-16597z"/>
   <path id="4" class="fil4 str1" d="M997263 262152c0,21040 -6077,41014 -18220,59902 -12144,18888 -31839,40336 -59085,64355 -16468,14564 -33393,28332 -50797,41283 -17404,12950 -31908,22126 -43514,27525 -807,2959 -2023,5190 -3646,6675 -1614,1484 -4045,2221 -7283,2221 -2430,0 -4184,-468 -5260,-1415 -1086,-946 -1623,-2630 -1623,-5060 0,-1614 607,-8358 1823,-20233 1215,-11875 1823,-25772 1823,-41692 0,-26987 -409,-51404 -1216,-73261 -538,-25363 -807,-43175 -807,-53426 0,-15920 1614,-29010 4852,-39261 2431,-6475 6744,-9713 12951,-9713 2161,0 4124,409 5877,1216 1754,807 2630,2022 2630,3646 -269,1345 -1693,6067 -4254,14166 -2560,8089 -3845,15780 -3845,23072 0,20233 408,42359 1215,66377 538,30753 807,52072 807,63947 0,20243 -129,32377 -398,36431 9713,-3785 22863,-11606 39460,-23480 16596,-11875 30553,-22664 41890,-32377 23481,-21050 40606,-39938 51404,-56665 10789,-16736 16189,-34140 16189,-52211 0,-21857 -13698,-36839 -41084,-44929 -27386,-8099 -63209,-12143 -107461,-12143 -13488,0 -31570,1613 -54233,4861 -4314,269 -11068,1614 -20243,4045 -4045,1345 -6874,2022 -8498,2022 -2152,0 -4244,-1753 -6266,-5260 -2032,-3507 -3038,-7013 -3038,-10530 0,-1345 946,-2630 2829,-3845 1893,-1206 4861,-2082 8906,-2630 16188,-2152 30016,-3776 41492,-4852 11466,-1086 24885,-1624 40267,-1624 49113,0 89110,5539 120013,16597 30892,11068 46343,29817 46343,56266z"/>
   <path id="5" class="fil4 str1" d="M1195578 424454c279,1883 1355,3845 3248,5868 1883,2022 2829,3706 2829,5060 0,3238 -1355,6944 -4044,11128 -2700,4184 -5400,6276 -8100,6276 -4582,0 -8099,-2839 -10520,-8497 -2430,-5669 -3646,-12284 -3646,-19835 0,-6475 409,-25911 1216,-58288l408 -15381c0,-6207 -1624,-10660 -4861,-13350 -12144,20502 -23471,38314 -34001,53427 -10520,15102 -23879,29338 -40067,42697 -16189,13360 -33194,20034 -50996,20034 -8637,0 -15312,-2700 -20034,-8099 -4722,-5390 -7093,-12413 -7093,-21040 0,-10799 4862,-25573 14575,-44321 9713,-18759 22125,-37776 37238,-57073 15112,-19286 30225,-35146 45327,-47559 9992,-8089 17952,-13558 23889,-16387 5928,-2840 11198,-4254 15780,-4254 4314,0 8767,1355 13359,4044 4583,2700 8498,6486 11736,11337 3237,4862 4861,10391 4861,16597 0,8368 -2301,16328 -6884,23879l6884 -2022c2969,0 4722,3646 5260,10928 269,4314 608,13090 1006,26310 409,13220 748,24148 1016,32785 269,8906 538,17533 807,25902 269,8368 538,14973 807,19834zm-142876 7282c14575,0 28611,-5399 42100,-16188 13489,-10799 25563,-23680 36222,-38653 10660,-14973 22465,-33393 35415,-55250 3238,-8099 4862,-16865 4862,-26309 0,-5669 -1694,-10590 -5061,-14774 -3377,-4184 -7890,-6276 -13558,-6276 -6745,0 -15382,4592 -25902,13767 -12143,10251 -24965,23949 -38453,41084 -13489,17135 -24696,34060 -33592,50797 -8907,16726 -13360,29946 -13360,39659 0,8099 3776,12143 11327,12143z"/>
   <path id="6" class="fil4 str1" d="M1421438 282793c0,4583 -1962,8090 -5867,10520 -3915,2431 -10998,4314 -21249,5669 -24826,4313 -38723,6744 -41692,7282l-26309 4453c0,14027 199,28741 607,44122 399,15372 1006,28870 1823,40466 1076,15650 2969,27665 5659,36023 2700,8368 4184,13090 4453,14166 0,2700 -1684,5200 -5051,7491 -3377,2292 -6545,3437 -9514,3437 -1624,0 -2968,-468 -4054,-1414 -1076,-947 -2023,-2491 -2829,-4653 -1614,-3775 -3168,-10788 -4653,-21049 -1484,-10251 -2630,-21588 -3447,-34001 -807,-11058 -1414,-23939 -1813,-38653 -408,-14704 -607,-28940 -607,-42697 -15113,2430 -30634,5399 -46553,8906 -14296,2969 -22793,4453 -25493,4453 -3238,0 -6276,-947 -9105,-2839 -2840,-1883 -4254,-4453 -4254,-7691 0,-3507 1215,-5798 3646,-6874 2421,-1086 6475,-1624 12144,-1624 4044,0 9982,-737 17802,-2221 7830,-1485 12821,-2501 14973,-3039 18081,-3506 30364,-5798 36840,-6883 0,-5659 -269,-13081 -817,-22256 -538,-12412 -807,-21856 -807,-28332 0,-10530 338,-18689 1016,-24487 667,-5808 1952,-10998 3845,-15590 2152,-5390 6207,-8089 12144,-8089 2421,0 4045,408 4852,1215 806,807 1215,2291 1215,4453 0,1614 -678,6336 -2022,14166 -1355,7820 -2023,18211 -2023,31161 0,9982 269,21180 807,33592l409 10929c12143,-1883 36152,-6874 72045,-14973 2152,-538 3975,-2431 5460,-5669 1484,-3237 3038,-4851 4652,-4851 2969,0 6007,1684 9105,5061 3108,3367 4662,6804 4662,10320z"/>
   <path id="7" class="fil4 str1" d="M1595077 347148c1883,0 2830,2023 2830,6067 0,4862 -3577,15511 -10720,31979 -7152,16457 -17951,31699 -32386,45735 -14435,14027 -32178,21050 -53218,21050 -17274,0 -31709,-5399 -43315,-16198 -11596,-10789 -17403,-27386 -17403,-49781 0,-21049 4861,-41890 14574,-62531 9713,-20642 22395,-37508 38045,-50598 15651,-13080 31839,-19625 48565,-19625 9992,0 18420,2221 25304,6674 6874,4454 10321,10859 10321,19227 0,9444 -5330,18619 -15989,27525 -10660,8907 -24487,16727 -41492,23471 -16996,6744 -34539,11606 -52610,14575 -3238,12412 -4862,24556 -4862,36421 0,15650 3716,27794 11128,36431 7422,8637 18011,12951 31779,12951 20771,0 37637,-7422 50587,-22255 12961,-14844 23750,-31570 32387,-50189 538,-1086 1484,-3178 2829,-6276 1355,-3108 2561,-4653 3646,-4653zm-35624 -63548c0,-4323 -2221,-7690 -6675,-10121 -4453,-2431 -9643,-3646 -15580,-3646 -10251,0 -20104,3377 -29548,10121 -9444,6745 -17334,14844 -23680,24288 -6335,9444 -10450,17812 -12343,25094 12413,-1355 25503,-4861 39261,-10520 13758,-5668 25294,-11875 34608,-18619 9305,-6754 13957,-12283 13957,-16597z"/>
   <path class="fil3" d="M575658 1240487c0,8767 -3745,15481 -11227,20124 -7481,4642 -21030,8258 -40635,10839 -47469,8248 -74048,12900 -79717,13926l-50318 8518c0,26828 388,54951 1165,84369 778,29408 1933,55210 3477,77395 2072,29936 5679,52899 10839,68888 5160,15999 8000,25025 8518,27097 0,5160 -3228,9932 -9674,14315 -6455,4384 -12512,6575 -18190,6575 -3099,0 -5679,-896 -7741,-2699 -2062,-1814 -3875,-4782 -5419,-8907 -3098,-7222 -6067,-20641 -8906,-40246 -2830,-19606 -5031,-41283 -6575,-65023 -1544,-21149 -2710,-45795 -3487,-73918 -767,-28123 -1156,-55340 -1156,-81659 -28900,4652 -58567,10320 -89011,17035 -27346,5678 -43604,8507 -48764,8507 -6197,0 -11994,-1803 -17414,-5409 -5419,-3616 -8129,-8518 -8129,-14714 0,-6705 2321,-11088 6964,-13160 4642,-2062 12382,-3088 23221,-3088 7741,0 19097,-1425 34061,-4264 14963,-2839 24506,-4772 28640,-5798 34569,-6714 58049,-11098 70432,-13160 0,-10839 -518,-25025 -1554,-42568 -1026,-23739 -1544,-41801 -1544,-54184 0,-20123 648,-35733 1933,-46831 1295,-11088 3746,-21030 7352,-29797 4134,-10321 11875,-15481 23221,-15481 4643,0 7741,777 9295,2321 1544,1544 2321,4384 2321,8518 0,3098 -1295,12124 -3875,27087 -2580,14963 -3865,34827 -3865,59603 0,19087 518,40506 1544,64235l777 20901c23221,-3607 69147,-13160 137775,-28631 4125,-1036 7611,-4653 10450,-10839 2840,-6196 5798,-9295 8897,-9295 5678,0 11486,3228 17413,9684 5938,6445 8906,13020 8906,19734z"/>
   <path id="1" class="fil3" d="M883716 1400707c0,20124 -7482,43345 -22445,69665 -14963,26310 -36122,48884 -63468,67722 -27356,18839 -58567,28253 -93654,28253 -34578,0 -60121,-9544 -76628,-28641 -16517,-19087 -24776,-42827 -24776,-71209 0,-24766 4523,-55469 13549,-92109 9025,-36631 21797,-69396 38314,-98296 1036,-2062 5290,-9673 12771,-22833 7482,-13160 15870,-23222 25154,-30185 9285,-6974 19098,-10451 29418,-10451 4643,0 8897,1156 12772,3477 3865,2331 5798,5290 5798,8906 0,1036 -1415,3487 -4254,7352 -2839,3876 -5031,6834 -6575,8906 -17553,21150 -31739,42050 -42578,62692 -14445,26320 -25672,52370 -33672,78172 -7989,25802 -11994,53925 -11994,84369 0,40765 24766,61147 74307,61147 23222,0 44760,-6704 64634,-20123 19864,-13419 35734,-29797 47599,-49153 11865,-19346 17802,-37019 17802,-53018 0,-18062 -5937,-33802 -17802,-47211 -11865,-13418 -28123,-27614 -48765,-42577 -13418,-9803 -23221,-17803 -29408,-23989 -6196,-6197 -9294,-11357 -9294,-15481 0,-6197 4393,-11227 13160,-15093 8776,-3875 19097,-5808 30962,-5808 6704,0 11098,389 13160,1166 2062,767 3098,2192 3098,4254 0,1036 -907,2709 -2710,5031 -1813,2321 -2709,4253 -2709,5808 0,1544 5160,6704 15481,15481 20631,17025 37925,34309 51852,51852 13937,17543 20901,38185 20901,61924z"/>
   <path id="2" class="fil3" d="M1223512 1031503c0,10321 -518,30574 -1554,60759 -1026,30185 -1544,60499 -1544,90943 0,58827 1285,118818 3865,179965 2580,61148 4652,101265 6196,120352 0,3098 260,6456 778,10062 508,3616 1026,6973 1544,10062 2062,14454 3098,23221 3098,26319 0,5161 -3746,10062 -11227,14704 -7482,4653 -13290,6974 -17414,6974 -5678,0 -9414,-2192 -11227,-6585 -1803,-4383 -2700,-10450 -2700,-18191 0,-28372 767,-58049 2321,-89011l767 -43345c0,-14445 -259,-33413 -767,-56883 -518,-23481 -1295,-43216 -2321,-59215 -26320,84628 -56116,154671 -89400,210140 -33283,55479 -69276,83213 -107979,83213 -17543,0 -32376,-8258 -44500,-24775 -12134,-16508 -18191,-40247 -18191,-71209 0,-40765 13797,-85136 41402,-133124 27615,-47987 59085,-89270 94431,-123848 35345,-34568 61536,-51853 78561,-51853 16517,0 24775,5420 24775,16248 0,7233 -2450,15611 -7352,25155 -4901,9553 -10320,18190 -16258,25931 -5937,7741 -9414,11616 -10450,11616 -1026,0 -2191,-389 -3487,-1166 -1285,-777 -1932,-1673 -1932,-2709 0,-2581 1295,-6964 3875,-13160 2580,-6187 3865,-10321 3865,-12383 0,-2580 -259,-4384 -777,-5420 -508,-1026 -2062,-1544 -4642,-1544 -10829,0 -30315,14834 -58438,44511 -28123,29667 -53277,64883 -75462,105648 -22186,40764 -33284,78690 -33284,113776 0,12383 2581,23999 7741,34838 5160,10829 13678,16248 25543,16248 37666,0 72623,-31859 104880,-95586 32248,-63728 60241,-136102 83981,-217114l-1554 -65012c-1544,-57282 -2322,-87726 -2322,-91332 0,-30962 1296,-53158 3876,-66567 1026,-5160 2191,-8777 3476,-10839 1296,-2062 4005,-3098 8130,-3098 5160,0 10320,1674 15481,5031 5160,3357 7740,7870 7740,13548l-1544 37926z"/>
   <path id="3" class="fil3" d="M1634517 1511386c508,3616 2580,7362 6187,11227 3616,3876 5419,7093 5419,9673 0,6197 -2580,13290 -7740,21289 -5161,8000 -10321,11995 -15481,11995 -8767,0 -15482,-5420 -20124,-16248 -4642,-10839 -6963,-23481 -6963,-37936 0,-12383 777,-49531 2321,-111456l777 -29408c0,-11874 -3098,-20382 -9295,-25542 -23221,39210 -44889,73271 -65012,102171 -20124,28890 -45666,56116 -76629,81659 -30962,25542 -63468,38314 -97528,38314 -16507,0 -29279,-5161 -38314,-15481 -9026,-10321 -13539,-23740 -13539,-40257 0,-20631 9285,-48884 27864,-84747 18569,-35864 42309,-72245 71209,-109135 28890,-36899 57790,-67214 86690,-90954 19087,-15481 34309,-25921 45666,-31340 11347,-5420 21409,-8129 30185,-8129 8259,0 16766,2580 25543,7740 8767,5161 16248,12383 22444,21668 6197,9294 9285,19864 9285,31739 0,15999 -4383,31221 -13160,45666l13160 -3875c5679,0 9036,6973 10062,20900 518,8259 1165,25025 1942,50309 768,25293 1415,46184 1933,62701 518,17025 1026,33542 1544,49531 518,16000 1036,28641 1554,37926zm-273230 13937c27864,0 54692,-10321 80494,-30962 25802,-20642 48894,-45278 69276,-73919 20383,-28641 42957,-63857 67732,-105648 6187,-15481 9285,-32257 9285,-50318 0,-10829 -3228,-20253 -9673,-28242 -6456,-8000 -15093,-12005 -25931,-12005 -12901,0 -29418,8777 -49542,26320 -23221,19605 -47728,45796 -73530,78561 -25802,32765 -47210,65142 -64245,97140 -17025,31988 -25543,57272 -25543,75851 0,15481 7232,23222 21677,23222z"/>
   <path id="4" class="fil3" d="M1979723 1218810c0,11875 -2839,37676 -8518,77405 -6186,45407 -9543,70950 -10061,76628 -6705,63469 -11477,111845 -14316,145128 -2839,33283 -4263,63339 -4263,90167 0,22195 1683,39738 5030,52639 3358,12901 6974,23092 10839,30574 3875,7481 5808,11994 5808,13538 0,4653 -4124,8777 -12383,12393 -8258,3606 -16776,5410 -25543,5410 -6714,0 -11994,-9026 -15869,-27087 -3865,-18062 -5808,-46184 -5808,-84369 0,-28890 2839,-67852 8517,-116875l11606 -106813c-13927,26837 -31081,52500 -51464,77016 -20382,24507 -41412,36760 -63090,36760 -20123,0 -38184,-17543 -54173,-52629 -15999,-35087 -28512,-74825 -37547,-119196 -9026,-44382 -13539,-76888 -13539,-97529 0,-12901 3865,-19347 11606,-19347 11357,0 18579,10580 21677,31730 19606,143454 46952,215180 82038,215180 13937,0 26190,-5548 36770,-16646 10580,-11088 23092,-28253 37537,-51464 6715,-10839 13937,-25284 21678,-43345 7740,-18061 13668,-33024 17802,-44899l5419 -78173c1026,-11865 2580,-20253 4643,-25154 2062,-4901 6186,-7352 12382,-7352 5161,0 10321,2969 15482,8896 5160,5938 7740,11745 7740,17414z"/>
   <path id="5" class="fil4 str1" d="M575658 1240487c0,8767 -3745,15481 -11227,20124 -7481,4642 -21030,8258 -40635,10839 -47469,8248 -74048,12900 -79717,13926l-50318 8518c0,26828 388,54951 1165,84369 778,29408 1933,55210 3477,77395 2072,29936 5679,52899 10839,68888 5160,15999 8000,25025 8518,27097 0,5160 -3228,9932 -9674,14315 -6455,4384 -12512,6575 -18190,6575 -3099,0 -5679,-896 -7741,-2699 -2062,-1814 -3875,-4782 -5419,-8907 -3098,-7222 -6067,-20641 -8906,-40246 -2830,-19606 -5031,-41283 -6575,-65023 -1544,-21149 -2710,-45795 -3487,-73918 -767,-28123 -1156,-55340 -1156,-81659 -28900,4652 -58567,10320 -89011,17035 -27346,5678 -43604,8507 -48764,8507 -6197,0 -11994,-1803 -17414,-5409 -5419,-3616 -8129,-8518 -8129,-14714 0,-6705 2321,-11088 6964,-13160 4642,-2062 12382,-3088 23221,-3088 7741,0 19097,-1425 34061,-4264 14963,-2839 24506,-4772 28640,-5798 34569,-6714 58049,-11098 70432,-13160 0,-10839 -518,-25025 -1554,-42568 -1026,-23739 -1544,-41801 -1544,-54184 0,-20123 648,-35733 1933,-46831 1295,-11088 3746,-21030 7352,-29797 4134,-10321 11875,-15481 23221,-15481 4643,0 7741,777 9295,2321 1544,1544 2321,4384 2321,8518 0,3098 -1295,12124 -3875,27087 -2580,14963 -3865,34827 -3865,59603 0,19087 518,40506 1544,64235l777 20901c23221,-3607 69147,-13160 137775,-28631 4125,-1036 7611,-4653 10450,-10839 2840,-6196 5798,-9295 8897,-9295 5678,0 11486,3228 17413,9684 5938,6445 8906,13020 8906,19734z"/>
   <path id="6" class="fil4 str1" d="M883716 1400707c0,20124 -7482,43345 -22445,69665 -14963,26310 -36122,48884 -63468,67722 -27356,18839 -58567,28253 -93654,28253 -34578,0 -60121,-9544 -76628,-28641 -16517,-19087 -24776,-42827 -24776,-71209 0,-24766 4523,-55469 13549,-92109 9025,-36631 21797,-69396 38314,-98296 1036,-2062 5290,-9673 12771,-22833 7482,-13160 15870,-23222 25154,-30185 9285,-6974 19098,-10451 29418,-10451 4643,0 8897,1156 12772,3477 3865,2331 5798,5290 5798,8906 0,1036 -1415,3487 -4254,7352 -2839,3876 -5031,6834 -6575,8906 -17553,21150 -31739,42050 -42578,62692 -14445,26320 -25672,52370 -33672,78172 -7989,25802 -11994,53925 -11994,84369 0,40765 24766,61147 74307,61147 23222,0 44760,-6704 64634,-20123 19864,-13419 35734,-29797 47599,-49153 11865,-19346 17802,-37019 17802,-53018 0,-18062 -5937,-33802 -17802,-47211 -11865,-13418 -28123,-27614 -48765,-42577 -13418,-9803 -23221,-17803 -29408,-23989 -6196,-6197 -9294,-11357 -9294,-15481 0,-6197 4393,-11227 13160,-15093 8776,-3875 19097,-5808 30962,-5808 6704,0 11098,389 13160,1166 2062,767 3098,2192 3098,4254 0,1036 -907,2709 -2710,5031 -1813,2321 -2709,4253 -2709,5808 0,1544 5160,6704 15481,15481 20631,17025 37925,34309 51852,51852 13937,17543 20901,38185 20901,61924z"/>
   <path id="7" class="fil4 str1" d="M1223512 1031503c0,10321 -518,30574 -1554,60759 -1026,30185 -1544,60499 -1544,90943 0,58827 1285,118818 3865,179965 2580,61148 4652,101265 6196,120352 0,3098 260,6456 778,10062 508,3616 1026,6973 1544,10062 2062,14454 3098,23221 3098,26319 0,5161 -3746,10062 -11227,14704 -7482,4653 -13290,6974 -17414,6974 -5678,0 -9414,-2192 -11227,-6585 -1803,-4383 -2700,-10450 -2700,-18191 0,-28372 767,-58049 2321,-89011l767 -43345c0,-14445 -259,-33413 -767,-56883 -518,-23481 -1295,-43216 -2321,-59215 -26320,84628 -56116,154671 -89400,210140 -33283,55479 -69276,83213 -107979,83213 -17543,0 -32376,-8258 -44500,-24775 -12134,-16508 -18191,-40247 -18191,-71209 0,-40765 13797,-85136 41402,-133124 27615,-47987 59085,-89270 94431,-123848 35345,-34568 61536,-51853 78561,-51853 16517,0 24775,5420 24775,16248 0,7233 -2450,15611 -7352,25155 -4901,9553 -10320,18190 -16258,25931 -5937,7741 -9414,11616 -10450,11616 -1026,0 -2191,-389 -3487,-1166 -1285,-777 -1932,-1673 -1932,-2709 0,-2581 1295,-6964 3875,-13160 2580,-6187 3865,-10321 3865,-12383 0,-2580 -259,-4384 -777,-5420 -508,-1026 -2062,-1544 -4642,-1544 -10829,0 -30315,14834 -58438,44511 -28123,29667 -53277,64883 -75462,105648 -22186,40764 -33284,78690 -33284,113776 0,12383 2581,23999 7741,34838 5160,10829 13678,16248 25543,16248 37666,0 72623,-31859 104880,-95586 32248,-63728 60241,-136102 83981,-217114l-1554 -65012c-1544,-57282 -2322,-87726 -2322,-91332 0,-30962 1296,-53158 3876,-66567 1026,-5160 2191,-8777 3476,-10839 1296,-2062 4005,-3098 8130,-3098 5160,0 10320,1674 15481,5031 5160,3357 7740,7870 7740,13548l-1544 37926z"/>
   <path id="8" class="fil4 str1" d="M1634517 1511386c508,3616 2580,7362 6187,11227 3616,3876 5419,7093 5419,9673 0,6197 -2580,13290 -7740,21289 -5161,8000 -10321,11995 -15481,11995 -8767,0 -15482,-5420 -20124,-16248 -4642,-10839 -6963,-23481 -6963,-37936 0,-12383 777,-49531 2321,-111456l777 -29408c0,-11874 -3098,-20382 -9295,-25542 -23221,39210 -44889,73271 -65012,102171 -20124,28890 -45666,56116 -76629,81659 -30962,25542 -63468,38314 -97528,38314 -16507,0 -29279,-5161 -38314,-15481 -9026,-10321 -13539,-23740 -13539,-40257 0,-20631 9285,-48884 27864,-84747 18569,-35864 42309,-72245 71209,-109135 28890,-36899 57790,-67214 86690,-90954 19087,-15481 34309,-25921 45666,-31340 11347,-5420 21409,-8129 30185,-8129 8259,0 16766,2580 25543,7740 8767,5161 16248,12383 22444,21668 6197,9294 9285,19864 9285,31739 0,15999 -4383,31221 -13160,45666l13160 -3875c5679,0 9036,6973 10062,20900 518,8259 1165,25025 1942,50309 768,25293 1415,46184 1933,62701 518,17025 1026,33542 1544,49531 518,16000 1036,28641 1554,37926zm-273230 13937c27864,0 54692,-10321 80494,-30962 25802,-20642 48894,-45278 69276,-73919 20383,-28641 42957,-63857 67732,-105648 6187,-15481 9285,-32257 9285,-50318 0,-10829 -3228,-20253 -9673,-28242 -6456,-8000 -15093,-12005 -25931,-12005 -12901,0 -29418,8777 -49542,26320 -23221,19605 -47728,45796 -73530,78561 -25802,32765 -47210,65142 -64245,97140 -17025,31988 -25543,57272 -25543,75851 0,15481 7232,23222 21677,23222z"/>
   <path id="9" class="fil4 str1" d="M1979723 1218810c0,11875 -2839,37676 -8518,77405 -6186,45407 -9543,70950 -10061,76628 -6705,63469 -11477,111845 -14316,145128 -2839,33283 -4263,63339 -4263,90167 0,22195 1683,39738 5030,52639 3358,12901 6974,23092 10839,30574 3875,7481 5808,11994 5808,13538 0,4653 -4124,8777 -12383,12393 -8258,3606 -16776,5410 -25543,5410 -6714,0 -11994,-9026 -15869,-27087 -3865,-18062 -5808,-46184 -5808,-84369 0,-28890 2839,-67852 8517,-116875l11606 -106813c-13927,26837 -31081,52500 -51464,77016 -20382,24507 -41412,36760 -63090,36760 -20123,0 -38184,-17543 -54173,-52629 -15999,-35087 -28512,-74825 -37547,-119196 -9026,-44382 -13539,-76888 -13539,-97529 0,-12901 3865,-19347 11606,-19347 11357,0 18579,10580 21677,31730 19606,143454 46952,215180 82038,215180 13937,0 26190,-5548 36770,-16646 10580,-11088 23092,-28253 37537,-51464 6715,-10839 13937,-25284 21678,-43345 7740,-18061 13668,-33024 17802,-44899l5419 -78173c1026,-11865 2580,-20253 4643,-25154 2062,-4901 6186,-7352 12382,-7352 5161,0 10321,2969 15482,8896 5160,5938 7740,11745 7740,17414z"/>
  </g>
 </g>
</svg>
