<?xml version="1.0" encoding="UTF-8"?>
<!DOCTYPE svg PUBLIC "-//W3C//DTD SVG 1.1//EN" "http://www.w3.org/Graphics/SVG/1.1/DTD/svg11.dtd">
<!-- Creator: CorelDRAW X7 -->
<svg xmlns="http://www.w3.org/2000/svg" xml:space="preserve" width="111.147mm" height="111.147mm" version="1.1" style="shape-rendering:geometricPrecision; text-rendering:geometricPrecision; image-rendering:optimizeQuality; fill-rule:evenodd; clip-rule:evenodd"
viewBox="0 0 8825 8825"
 xmlns:xlink="http://www.w3.org/1999/xlink">
 <defs>
  <style type="text/css">
   <![CDATA[
    .fil0 {fill:#563530}
   ]]>
  </style>
 </defs>
 <g id="Layer_x0020_1">
  <metadata id="CorelCorpID_0Corel-Layer"/>
  <path class="fil0" d="M4458 2269c193,158 345,155 461,379 126,241 57,1588 57,1906 -1,2105 161,1509 -515,2131l1240 -1c-28,-23 -70,-45 -91,-60l-313 -233c-276,-337 -125,-2985 -130,-3474 292,218 1175,1488 1456,1901 299,438 438,549 769,972 373,478 324,616 753,913l3 -2149c-3,-2214 -136,-1688 532,-2285l-1247 6 522 407 -12 3182c-86,-118 -214,-235 -338,-397 -123,-162 -165,-230 -326,-431 -273,-342 -457,-571 -699,-924 -333,-486 -1073,-1376 -1278,-1838l-844 -5zm-4327 988l0 2606c27,32 309,38 330,62l239 271c1245,1261 2784,302 2967,-724 -451,451 -817,1313 -2034,912 -1984,-654 -1098,-5278 1155,-3776 443,295 399,481 821,721l-427 -1109c-734,197 -997,-207 -1779,33 -315,97 -488,226 -628,381 -141,156 -457,421 -644,623zm4299 2792l-108 -3023 -155 13 -59 2713c123,457 -93,126 322,297zm-4430 -6049l8825 0 0 8825 -8825 0 0 -8825z"/>
 </g>
</svg>
