<?xml version="1.0" encoding="UTF-8"?>
<!DOCTYPE svg PUBLIC "-//W3C//DTD SVG 1.1//EN" "http://www.w3.org/Graphics/SVG/1.1/DTD/svg11.dtd">
<!-- Creator: CorelDRAW X7 -->
<svg xmlns="http://www.w3.org/2000/svg" xml:space="preserve" width="1.9128mm" height="5.2499mm" version="1.1" style="shape-rendering:geometricPrecision; text-rendering:geometricPrecision; image-rendering:optimizeQuality; fill-rule:evenodd; clip-rule:evenodd"
viewBox="0 0 4079 11197"
 xmlns:xlink="http://www.w3.org/1999/xlink">
 <defs>
  <style type="text/css">
   <![CDATA[
    .str0 {stroke:#84716B;stroke-width:533.178}
    .fil0 {fill:none}
   ]]>
  </style>
 </defs>
 <g id="Layer_x0020_1">
  <metadata id="CorelCorpID_0Corel-Layer"/>
  <g id="_536489016">
   <path class="fil0 str0" d="M1607 10164c-68,386 -136,773 -422,766 -286,-7 -791,-407 -825,-907 -34,-500 402,-1100 881,-1639 480,-539 1003,-1017 1446,-1471 444,-455 807,-887 989,-1103 182,-216 182,-216 182,-216"/>
   <path class="fil0 str0" d="M1516 1033c-68,-387 -136,-773 -423,-766 -286,6 -790,407 -824,907 -35,500 402,1100 881,1639 480,539 1003,1016 1446,1471 443,454 807,886 989,1102 182,216 182,216 182,216"/>
  </g>
 </g>
</svg>
