<?xml version="1.0" encoding="UTF-8"?>
<!DOCTYPE svg PUBLIC "-//W3C//DTD SVG 1.1//EN" "http://www.w3.org/Graphics/SVG/1.1/DTD/svg11.dtd">
<!-- Creator: CorelDRAW X7 -->
<svg xmlns="http://www.w3.org/2000/svg" xml:space="preserve" width="27.7715mm" height="27.3586mm" version="1.1" style="shape-rendering:geometricPrecision; text-rendering:geometricPrecision; image-rendering:optimizeQuality; fill-rule:evenodd; clip-rule:evenodd"
viewBox="0 0 696813 686453"
 xmlns:xlink="http://www.w3.org/1999/xlink">
 <defs>
  <style type="text/css">
   <![CDATA[
    .str0 {stroke:#84716B;stroke-width:6272.73}
    .str1 {stroke:#D0CABD;stroke-width:6272.73}
    .fil2 {fill:none}
    .fil1 {fill:#84716B}
    .fil0 {fill:#CEC5B5}
   ]]>
  </style>
 </defs>
 <g id="Layer_x0020_1">
  <metadata id="CorelCorpID_0Corel-Layer"/>
  <g id="_495454256">
   <path class="fil0" d="M122225 91286l447630 0c56367,0 102479,46114 102479,102479 -153,20720 1089,110247 -5327,126127 -3673,9088 -46458,74176 -25821,74430 12225,153 16648,-2602 7738,18070 -23422,54340 -16936,43024 -14148,96876 893,30114 -1466,38372 3680,70503 1885,11775 -3307,11412 -16286,18394 -29276,15484 -29858,13141 -55180,36390 -18934,17388 -29540,14141 -53155,13035l-9658 -181c-50550,319 -100971,635 -151521,-339 -41707,-860 -80625,-14921 -126080,-17145 -43041,-1894 -64644,66 -106895,6609 -20509,3172 -22662,-17240 -33205,-35443 -12091,-20881 -21044,-28079 -35491,-45701 -10744,-13097 -3142,-24160 -4798,-43563 -491,-5760 -1347,-10590 -2433,-16191 -13652,-58354 -25337,-55245 -23280,-122950 1370,-45028 -715,-93484 -720,-139195 -5,-13240 -5,-26486 -5,-39726 0,-56365 46112,-102479 102476,-102479z"/>
   <path class="fil0 str0" d="M136889 4150c10794,3927 27477,19624 58381,35318 30905,15699 76041,31401 99094,39247 23059,7849 24037,7849 22075,15700 -1959,7851 -6867,23545 -10302,37280 -3430,13737 -5397,25510 -6872,32377 -1468,6868 -2447,8835 -25016,-978 -22567,-9811 -66714,-31394 -96640,-49547 -29926,-18149 -45621,-32867 -53472,-48566 -7848,-15697 -7848,-32380 -5397,-44645 2454,-12264 7360,-20110 18149,-16186z"/>
   <path class="fil0 str0" d="M558640 4228c-10794,3927 -27477,19623 -58382,35318 -30904,15699 -76038,31401 -99092,39247 -23061,7849 -24039,7849 -22077,15699 1962,7851 6867,23546 10302,37281 3433,13739 5400,25512 6873,32377 1470,6867 2449,8834 25015,-976 22567,-9813 66715,-31396 96641,-49550 29926,-18148 45622,-32866 53471,-48566 7851,-15697 7851,-32380 5397,-44644 -2451,-12264 -7357,-20108 -18148,-16186z"/>
   <path class="fil1 str1" d="M331042 90036c10330,690 29191,2572 38618,3516 9429,940 9429,940 12292,12548 2860,11612 8588,34831 10044,48069 1462,13238 -1345,16492 -7814,21791 -6466,5302 -16595,12641 -23811,16816 -7216,4180 -11519,5196 -20381,1016 -8860,-4175 -22281,-13546 -28993,-18354 -6707,-4810 -6707,-5068 -4571,-18489 2137,-13419 6413,-40000 9449,-53544 3036,-13547 4842,-14056 15167,-13369z"/>
   <path class="fil1 str1" d="M311368 172668c5403,3500 17015,12315 24544,17160 7528,4850 10978,5733 19586,1172 8607,-4562 22369,-14571 29251,-19579 6885,-5000 6885,-5000 9796,71954 2913,76956 8737,230866 10636,309722 1899,78853 -125,82652 -7342,91896 -7216,9241 -19623,23926 -27602,31772 -7974,7849 -11514,8865 -21009,1900 -9494,-6963 -24943,-21900 -32540,-31525 -7593,-9617 -7339,-13920 -7550,-92091 -213,-78171 -893,-230207 -1631,-307133 -740,-76926 -1541,-78745 3861,-75248z"/>
   <path class="fil2 str0" d="M124135 64981c-36543,21063 -73090,42135 -93843,60684 -20747,18553 -25705,34588 -26872,42898 -1164,8311 1458,8898 4082,9480"/>
   <path class="fil2 str0" d="M572676 68910c36542,21066 73092,42135 93845,60687 20745,18552 25703,34586 26872,42896 1164,8310 -1460,8897 -4085,9479"/>
  </g>
 </g>
</svg>
