<?xml version="1.0" encoding="UTF-8"?>
<!DOCTYPE svg PUBLIC "-//W3C//DTD SVG 1.1//EN" "http://www.w3.org/Graphics/SVG/1.1/DTD/svg11.dtd">
<!-- Creator: CorelDRAW X7 -->
<svg xmlns="http://www.w3.org/2000/svg" xml:space="preserve" width="30.7086mm" height="30.2492mm" version="1.1" style="shape-rendering:geometricPrecision; text-rendering:geometricPrecision; image-rendering:optimizeQuality; fill-rule:evenodd; clip-rule:evenodd"
viewBox="0 0 3752 3696"
 xmlns:xlink="http://www.w3.org/1999/xlink">
 <defs>
  <style type="text/css">
   <![CDATA[
    .str0 {stroke:#84716B;stroke-width:9.30978}
    .fil2 {fill:none}
    .fil1 {fill:#84716B}
    .fil0 {fill:#CEC5B5}
   ]]>
  </style>
 </defs>
 <g id="Layer_x0020_1">
  <metadata id="CorelCorpID_0Corel-Layer"/>
  <g id="_621777600">
   <path class="fil0" d="M650 482l2426 0c306,0 556,250 556,556 -1,112 5,597 -29,683 -20,50 -252,402 -140,404 66,1 90,-14 42,98 -127,294 -92,233 -77,525 5,163 -8,208 20,382 10,64 -18,62 -88,100 -159,83 -162,71 -299,197 -103,94 -161,76 -288,70l-53 -1c-274,2 -547,4 -821,-1 -226,-5 -437,-81 -683,-93 -234,-11 -351,0 -580,35 -111,18 -123,-93 -180,-192 -65,-113 -114,-152 -192,-247 -58,-71 -17,-131 -26,-236 -3,-32 -7,-58 -13,-88 -74,-316 -138,-300 -126,-666 7,-245 -4,-507 -4,-755 0,-72 0,-143 0,-215 0,-306 250,-556 555,-556z"/>
   <path class="fil0 str0" d="M730 10c58,21 148,106 316,192 167,85 412,170 537,212 125,43 130,43 120,85 -11,43 -38,128 -56,202 -19,75 -29,139 -37,176 -8,37 -14,48 -136,-5 -122,-54 -362,-171 -524,-269 -162,-98 -247,-178 -290,-263 -42,-85 -42,-176 -29,-242 13,-67 40,-109 99,-88z"/>
   <path class="fil0 str0" d="M3015 11c-58,21 -149,106 -316,191 -168,85 -412,170 -537,213 -125,42 -130,42 -120,85 11,42 37,127 56,202 19,74 29,138 37,175 8,38 14,48 136,-5 122,-53 361,-170 524,-269 162,-98 247,-178 289,-263 43,-85 43,-175 30,-242 -14,-66 -40,-109 -99,-87z"/>
   <path class="fil1 str0" d="M1782 476c56,3 158,14 209,19 51,5 51,5 67,68 15,63 46,188 54,260 8,72 -7,90 -42,118 -35,29 -90,69 -129,91 -39,23 -63,29 -111,6 -48,-23 -120,-73 -157,-100 -36,-26 -36,-27 -25,-100 12,-72 35,-217 52,-290 16,-73 26,-76 82,-72z"/>
   <path class="fil1 str0" d="M1675 923c29,19 92,67 133,93 41,27 60,32 106,7 47,-25 122,-79 159,-106 37,-27 37,-27 53,390 16,417 47,1251 58,1678 10,428 -1,448 -40,498 -39,50 -107,130 -150,173 -43,42 -62,48 -114,10 -51,-38 -135,-119 -176,-171 -41,-52 -40,-75 -41,-499 -1,-424 -5,-1248 -9,-1665 -4,-417 -8,-426 21,-408z"/>
   <path class="fil2 str0" d="M660 340c-198,114 -396,228 -508,329 -113,100 -139,187 -146,232 -6,45 8,48 22,52"/>
   <path class="fil2 str0" d="M3091 361c198,114 397,228 509,329 112,101 139,187 146,233 6,45 -8,48 -22,51"/>
  </g>
 </g>
</svg>
