<?xml version="1.0" encoding="UTF-8"?>
<!DOCTYPE svg PUBLIC "-//W3C//DTD SVG 1.1//EN" "http://www.w3.org/Graphics/SVG/1.1/DTD/svg11.dtd">
<!-- Creator: CorelDRAW X7 -->
<svg xmlns="http://www.w3.org/2000/svg" xml:space="preserve" width="6.0903mm" height="4.8562mm" version="1.1" style="shape-rendering:geometricPrecision; text-rendering:geometricPrecision; image-rendering:optimizeQuality; fill-rule:evenodd; clip-rule:evenodd"
viewBox="0 0 20920 16681"
 xmlns:xlink="http://www.w3.org/1999/xlink">
 <defs>
  <style type="text/css">
   <![CDATA[
    .str0 {stroke:#84716B;stroke-width:2576.25}
    .fil1 {fill:none}
    .fil0 {fill:#84716B}
   ]]>
  </style>
 </defs>
 <g id="Layer_x0020_1">
  <metadata id="CorelCorpID_0Corel-Layer"/>
  <g id="_626466696">
   <path class="fil0" d="M139 14986c482,-1791 2086,-5373 2968,-7217 882,-1844 1042,-1951 3233,-2004 2192,-54 6415,-54 8660,26 2245,80 2512,241 3208,1871 694,1630 1817,4731 2405,6335 588,1603 641,1710 -2726,1924 -3368,214 -10157,534 -13872,694 -3715,161 -4356,161 -3876,-1629zm6844 -1875l0 -5397 664 0 0 3074 1567 -1589 857 0 -1492 1453 1643 2459 -817 0 -1298 -1999 -460 447 0 1552 -664 0zm3645 324l641 91c26,198 101,342 225,434 164,122 389,184 674,184 307,0 544,-62 711,-184 167,-121 280,-294 339,-514 34,-134 51,-417 48,-847 -290,341 -651,512 -1083,512 -538,0 -955,-193 -1249,-581 -295,-388 -442,-852 -442,-1394 0,-373 68,-717 203,-1032 134,-316 330,-558 586,-730 256,-172 558,-258 905,-258 461,0 841,188 1140,566l0 -483 611 0 0 3378c0,609 -62,1040 -186,1294 -123,254 -320,455 -588,602 -269,147 -599,221 -991,221 -466,0 -842,-104 -1128,-314 -288,-209 -426,-524 -416,-945zm543 -2346c0,511 101,884 305,1119 204,235 460,353 766,353 305,0 561,-117 768,-351 206,-234 309,-600 309,-1100 0,-478 -107,-838 -320,-1080 -212,-243 -468,-364 -767,-364 -295,0 -545,120 -753,358 -205,239 -308,593 -308,1065z"/>
   <path class="fil1 str0" d="M10140 1288c1842,0 3334,1146 3334,2560 0,1413 -1492,2559 -3334,2559 -1842,0 -3335,-1146 -3335,-2559 0,-1414 1493,-2560 3335,-2560z"/>
  </g>
 </g>
</svg>
