<?xml version="1.0" encoding="UTF-8"?>
<!DOCTYPE svg PUBLIC "-//W3C//DTD SVG 1.1//EN" "http://www.w3.org/Graphics/SVG/1.1/DTD/svg11.dtd">
<!-- Creator: CorelDRAW X7 -->
<svg xmlns="http://www.w3.org/2000/svg" xml:space="preserve" width="4.4794mm" height="5.0555mm" version="1.1" style="shape-rendering:geometricPrecision; text-rendering:geometricPrecision; image-rendering:optimizeQuality; fill-rule:evenodd; clip-rule:evenodd"
viewBox="0 0 10207 11520"
 xmlns:xlink="http://www.w3.org/1999/xlink">
 <defs>
  <style type="text/css">
   <![CDATA[
    .str0 {stroke:#84716B;stroke-width:173.635}
    .fil2 {fill:none}
    .fil0 {fill:#CEC5B5}
    .fil1 {fill:#AF916F;fill-rule:nonzero}
   ]]>
  </style>
 </defs>
 <g id="Layer_x0020_1">
  <metadata id="CorelCorpID_0Corel-Layer"/>
  <g id="_536454456">
   <path class="fil0" d="M5104 8854c2639,0 4778,221 4778,494 0,273 -2139,495 -4778,495 -2640,0 -4779,-222 -4779,-495 0,-273 2139,-494 4779,-494z"/>
   <path class="fil0" d="M407 9717c69,-47 344,26 708,86 363,59 815,105 1259,140 444,35 880,60 1399,70 519,11 1120,8 1611,4 492,-5 873,-11 1327,-25 453,-14 979,-35 1382,-74 404,-38 685,-93 941,-130 257,-38 490,-59 606,-69 116,-10 116,-10 7,126 -110,137 -329,410 -510,591 -180,181 -320,271 -489,376 -169,105 -367,227 -626,292 -259,65 -581,73 -962,94 -381,21 -823,55 -1297,71 -474,16 -980,14 -1395,10 -415,-4 -738,-10 -1050,-19 -311,-9 -610,-21 -839,-46 -229,-24 -387,-61 -541,-102 -154,-41 -304,-87 -435,-143 -131,-57 -244,-124 -354,-209 -110,-86 -217,-190 -305,-302 -89,-113 -159,-235 -263,-381 -105,-144 -243,-312 -174,-360z"/>
   <g>
    <g>
     <path class="fil1" d="M4681 40c0,6 -128,222 -138,241 -71,144 -150,280 -217,426 -124,334 -147,699 -175,1052 -31,361 -80,713 -90,1077 -9,372 -29,729 1,1102 34,330 13,592 5,918 -1,67 0,133 2,200 0,0 0,4 0,4 3,7 -1,70 0,84 -1,290 -11,581 -46,869 -40,338 -33,569 -1,905 49,492 74,971 81,1464 1,114 13,372 -155,373 -167,1 -160,-255 -161,-369 -5,-491 -16,-948 -55,-1441 -28,-360 -29,-609 22,-970 40,-274 54,-557 63,-835 2,-25 1,-56 2,-82 0,2 0,1 0,0 1,-1 2,-189 3,-209 15,-314 44,-573 19,-891 -20,-385 10,-746 32,-1129 23,-369 83,-721 130,-1086 46,-363 84,-739 238,-1076 77,-144 166,-276 253,-413 19,-32 142,-218 187,-214z"/>
    </g>
    <path class="fil2" d="M3948 8755c-4,-625 -10,-1200 -71,-1824 -32,-340 -36,-597 12,-936 34,-245 50,-601 54,-853l1 -83c-1,-70 -1,-136 0,-207 11,-332 42,-569 7,-905 -28,-360 3,-752 16,-1115 12,-351 73,-727 110,-1081 34,-326 75,-768 207,-1065 66,-137 159,-283 234,-418 52,-94 86,-153 163,-228"/>
    <g>
     <g>
      <path class="fil1" d="M6766 10216c39,-44 1423,-95 1580,-110 278,-34 538,-76 799,-179 99,-41 179,-81 260,-149 25,-15 72,-74 90,-100 45,-67 99,-60 170,-38 101,33 121,90 62,179 -42,61 -89,106 -147,154 -109,83 -212,131 -342,178 -292,97 -567,129 -874,149 -161,6 -1505,19 -1598,-84z"/>
     </g>
     <path class="fil2" d="M9665 9640c-258,733 -2269,576 -2899,576"/>
     <g>
      <path class="fil1" d="M6798 10731c661,-217 921,163 2140,-477 89,-45 139,-27 186,53 48,82 34,132 -56,178 -636,312 -1598,468 -2270,246z"/>
     </g>
     <path class="fil2" d="M9124 10307c-1006,532 -1217,424 -2326,424"/>
     <g>
      <path class="fil1" d="M5619 10974c0,-55 2488,-190 2756,-192 95,0 111,52 111,131 0,78 -15,131 -110,131 -269,2 -2757,8 -2757,-70z"/>
     </g>
     <path class="fil2" d="M8486 10913c-892,0 -1902,61 -2867,61"/>
     <g>
      <path class="fil1" d="M7562 10459c8,1 22,29 31,39 4,6 25,18 31,21 25,13 83,18 110,19 134,-3 259,-28 388,-60 272,-77 558,-182 777,-359 40,-31 105,43 129,67 32,32 98,96 44,137 -249,180 -611,277 -914,323 -146,18 -296,29 -440,-7 -53,-13 -99,-29 -138,-67 -16,-17 -26,-32 -32,-54 -6,-10 -2,-60 14,-59z"/>
     </g>
     <path class="fil2" d="M9028 10186c-391,344 -1490,567 -1466,272"/>
     <g>
      <path class="fil1" d="M7849 10363c-2,8 75,26 86,28 4,0 3,-7 3,-9 0,-2 1,-9 -1,-9 -16,0 -86,-17 -88,-10z"/>
     </g>
     <path class="fil2" d="M7938 10382c-16,0 -88,-19 -89,-19"/>
     <g>
      <path class="fil1" d="M6854 9959c-1,-7 23,-16 28,-17 0,-1 1,-1 1,-1 339,-140 1458,-130 1873,-143 323,-10 329,-40 599,-97 97,-19 144,17 159,106 14,84 -11,133 -103,151 -277,52 -346,71 -655,70 -599,-25 -1291,-23 -1867,-59 -1,0 -4,0 -4,0 -3,-1 -31,-2 -31,-10z"/>
     </g>
     <path class="fil2" d="M9514 9807c-353,53 -331,106 -758,106 -488,0 -1429,-38 -1871,42l-31 4"/>
     <g>
      <path class="fil1" d="M6838 10996c0,-40 614,-93 657,-97 433,-40 886,-215 1253,-435 60,-36 106,29 137,70 34,47 79,110 10,151 -395,226 -942,373 -1401,364 -76,-4 -622,-7 -656,-53z"/>
     </g>
     <path class="fil2" d="M8885 10534c-337,225 -983,442 -1390,440 -234,-1 -440,22 -657,22"/>
     <g>
      <path class="fil1" d="M6567 11140c-1,0 -1,-1 -1,-2 0,0 0,-1 0,-1 1,-2 3,-3 3,-4 2,-3 8,-5 9,-6 6,-7 31,-10 35,-13 38,-13 83,-19 123,-25 124,-21 255,-33 380,-43 208,-16 441,-23 646,-46 146,-10 277,-31 416,-73 66,-21 124,-44 182,-79 19,-8 50,-35 67,-51 36,-33 113,14 147,33 68,38 118,86 45,154 -37,35 -78,60 -122,85 -83,42 -157,67 -248,89 -165,38 -318,53 -487,47 -182,-21 -453,-16 -642,-20 -126,-4 -255,-8 -381,-19 -44,-3 -80,-7 -123,-12 -10,-1 -25,-2 -35,-6 -5,-1 -5,-2 -9,-3 -2,-1 -2,-2 -3,-2 0,0 0,-1 0,-1 -1,-1 -1,-1 -2,-2z"/>
     </g>
     <path class="fil2" d="M8574 10830c-128,204 -562,272 -812,272 -130,0 -1190,22 -1195,38"/>
     <g>
      <path class="fil1" d="M5619 11261c0,-34 957,-70 1019,-72 333,-8 682,11 1011,-26 358,-52 567,-156 855,-361 1,-1 361,-399 394,-437 85,-97 169,-195 252,-295 7,-8 13,-16 20,-24 28,-33 39,-44 76,-66 57,-38 62,-2 133,16 71,20 87,56 60,122 -8,35 -31,64 -54,92 -7,8 -14,17 -22,25 -85,99 -176,196 -265,293 -141,154 -290,322 -450,457 -330,220 -575,327 -979,364 -341,20 -689,-18 -1031,-29 -61,1 -1019,-25 -1019,-59z"/>
     </g>
     <path class="fil2" d="M9379 9996c-16,55 -732,847 -803,897 -685,486 -1114,361 -1938,361 -338,0 -679,8 -1019,8"/>
    </g>
    <g>
     <path class="fil2 str0" d="M5104 8762c2770,0 5016,263 5016,586 0,324 -2246,586 -5016,586 -2771,0 -5017,-262 -5017,-586 0,-323 2246,-586 5017,-586z"/>
     <path class="fil2 str0" d="M87 9348c276,610 551,1219 966,1574 415,354 969,455 2196,494 1227,38 3128,16 4195,-105 1066,-121 1299,-341 1606,-684 308,-343 689,-811 880,-1045 190,-234 190,-234 190,-234"/>
    </g>
    <g>
     <path class="fil1" d="M5623 205c2,-1 37,44 38,46 9,15 28,26 43,36 4,3 41,22 47,24 63,25 132,59 190,93 31,22 52,41 75,72 26,36 38,66 49,109 48,187 98,222 83,435 -11,100 -22,199 -33,299 -25,295 -7,500 31,792 60,494 55,752 19,1247 -19,337 28,617 35,948 1,622 -70,1227 -61,1848 28,646 84,1270 75,1918 -7,267 7,477 29,741 16,173 40,344 58,517 12,113 52,411 -129,413 -168,-4 -170,-247 -185,-379 -18,-171 -46,-358 -53,-527 -19,-276 -29,-497 -17,-775 19,-640 -24,-1264 -39,-1903 6,-622 102,-1239 104,-1853 1,-339 -37,-618 -8,-965 46,-479 66,-729 21,-1213 -29,-306 -37,-518 2,-824 16,-99 32,-198 47,-297 22,-185 -22,-234 -56,-406 -6,-32 -13,-57 -30,-85 -16,-26 -32,-41 -55,-60 -21,-26 -137,-83 -173,-108 -15,-10 -30,-20 -45,-30 -18,-14 -32,-33 -44,-53 -5,-4 -31,-58 -18,-60z"/>
    </g>
    <path class="fil2" d="M6172 9743c-4,-288 -60,-621 -83,-918 -24,-295 -35,-457 -23,-757 19,-662 -39,-1260 -58,-1912 -8,-610 82,-1240 83,-1850 0,-350 -53,-582 -22,-956 44,-516 60,-708 1,-1231 -33,-293 -49,-512 -14,-808 14,-99 27,-198 40,-297 23,-192 -33,-244 -69,-421 -33,-158 -152,-189 -287,-264l-46 -27c-25,-15 -66,-70 -71,-97"/>
    <g>
     <path class="fil2 str0" d="M3753 8730c12,-2096 24,-4192 71,-5693 47,-1501 128,-2407 497,-2763 368,-355 1022,-160 1331,211 308,371 270,919 255,2512 -16,1594 -10,4233 3,5553 13,1319 31,1319 51,1319"/>
     <path class="fil2 str0" d="M4069 8730c12,-2096 24,-4192 71,-5693 47,-1501 129,-2407 497,-2763 368,-355 1023,-160 1331,211 308,371 271,919 255,2512 -16,1594 -10,4233 3,5553 13,1319 32,1319 51,1319"/>
    </g>
    <path class="fil2 str0" d="M9573 10016c-228,37 -455,73 -865,108 -410,34 -1001,66 -1527,85 -527,19 -988,24 -1449,29"/>
    <path class="fil2 str0" d="M9232 10383c-454,48 -908,96 -1566,122 -658,27 -1520,31 -1951,33 -431,2 -431,2 -431,2"/>
    <path class="fil2 str0" d="M8950 10737c-333,23 -665,47 -1108,60 -443,13 -997,15 -1273,15 -275,-1 -272,-4 -269,-7"/>
    <path class="fil2 str0" d="M8491 11071c-172,6 -344,12 -683,33 -339,20 -845,56 -1100,74 -255,18 -258,18 -260,18"/>
    <path class="fil2 str0" d="M9427 9821c-63,110 -126,220 -206,334 -80,113 -177,231 -270,338 -94,108 -184,205 -275,283 -90,78 -180,136 -263,171 -83,34 -158,46 -196,51 -37,6 -37,6 -37,6"/>
    <path class="fil2 str0" d="M8030 10357c-103,189 -207,378 -283,483 -77,105 -127,125 -164,133 -38,8 -63,5 -88,1"/>
   </g>
  </g>
 </g>
</svg>
