<?xml version="1.0" encoding="UTF-8"?>
<!DOCTYPE svg PUBLIC "-//W3C//DTD SVG 1.1//EN" "http://www.w3.org/Graphics/SVG/1.1/DTD/svg11.dtd">
<!-- Creator: CorelDRAW X7 -->
<svg xmlns="http://www.w3.org/2000/svg" xml:space="preserve" width="82.4442mm" height="14.568mm" version="1.1" style="shape-rendering:geometricPrecision; text-rendering:geometricPrecision; image-rendering:optimizeQuality; fill-rule:evenodd; clip-rule:evenodd"
viewBox="0 0 4448 786"
 xmlns:xlink="http://www.w3.org/1999/xlink">
 <defs>
  <style type="text/css">
   <![CDATA[
    .fil0 {fill:#e9e9e9}
   ]]>
  </style>
 </defs>
 <g id="Layer_x0020_1">
  <metadata id="CorelCorpID_0Corel-Layer"/>
  <g id="_778679336">
   <path class="fil0" d="M1181 38c32,26 57,26 77,63 20,39 9,262 9,315 0,348 27,249 -85,352l205 0c-5,-4 -12,-7 -15,-10l-52 -38c-46,-56 -20,-494 -21,-575 48,36 194,246 240,314 50,73 73,91 128,161 61,79 53,102 124,151l1 -355c-1,-366 -23,-279 88,-378l-207 1 87 67 -2 526c-15,-19 -36,-38 -56,-65 -21,-27 -27,-38 -54,-71 -45,-57 -76,-95 -116,-153 -55,-81 -177,-228 -211,-304l-140 -1z"/>
   <path class="fil0" d="M0 201l0 431c4,5 51,6 55,10l39 45c206,208 460,50 491,-120 -75,75 -135,217 -337,151 -328,-108 -181,-873 191,-625 74,49 66,80 136,120l-70 -184c-122,33 -165,-34 -295,6 -52,16 -80,37 -104,63 -23,25 -75,69 -106,103z"/>
   <path class="fil0" d="M3165 230c67,61 62,30 60,168 -1,101 55,328 -242,243l-9 -438 -117 28 38 32c87,106 -66,379 102,435 78,26 160,-12 217,-70 29,82 8,30 41,64l95 -12c-104,-79 -64,-161 -66,-479l-119 29z"/>
   <path class="fil0" d="M4161 216l-19 12c45,-13 40,-25 31,18l12 27 1 105c-50,34 -44,33 -140,41 86,39 35,8 138,7l-9 190c-142,107 -276,23 -216,-89 27,-49 10,-19 53,-53l44 -35c-331,20 -141,427 107,209 52,37 59,59 139,49l-47 -58c-52,-120 70,-356 -94,-423z"/>
   <path class="fil0" d="M2277 243l11 28c-1,121 30,104 -57,139 45,24 54,18 59,91 19,276 -355,158 -212,2 36,-39 88,-38 155,-91 -78,11 -128,19 -183,62 -131,101 -73,231 69,232 24,0 68,-7 87,-14l59 -42c53,35 60,68 141,34l-24 -15c-110,-102 67,-379 -120,-453l-17 11c46,-12 43,-27 32,16z"/>
   <path class="fil0" d="M2779 697c-10,23 -81,42 -152,31l1 -402c16,-3 67,-5 70,-6 89,-19 24,3 61,-31 -25,-1 -58,1 -82,-2 -54,-7 -35,-9 -50,-16l-12 -138c-61,98 9,124 -127,171l74 29c4,121 -56,410 80,447 100,27 132,-74 137,-83z"/>
   <path class="fil0" d="M3565 294c-37,-39 -38,-86 -42,-96l-112 30 28 24c3,4 9,8 12,12 44,53 23,332 22,338 -10,45 -49,80 -53,73 -2,-4 -9,9 -13,15l194 -7c-79,-67 -65,-29 -66,-160 -5,-379 138,-200 254,-264 -33,-162 -182,-11 -224,35z"/>
   <path class="fil0" d="M4448 722l0 -722 -180 22c53,30 88,40 126,80l-5 557c-27,16 -29,14 -57,27l116 36z"/>
   <path class="fil0" d="M644 747l500 -18 -2 -26 -449 -9c-76,20 -21,-16 -49,53z"/>
   <path class="fil0" d="M2142 235l-24 -18c-75,2 -149,36 -102,116 121,-27 4,-59 126,-98z"/>
   <path class="fil0" d="M4039 235l-31 -15c-74,4 -142,34 -93,113 73,-18 51,-13 74,-90l50 -8z"/>
  </g>
 </g>
</svg>
