<?xml version="1.0" encoding="UTF-8"?>
<!DOCTYPE svg PUBLIC "-//W3C//DTD SVG 1.1//EN" "http://www.w3.org/Graphics/SVG/1.1/DTD/svg11.dtd">
<!-- Creator: CorelDRAW X7 -->
<svg xmlns="http://www.w3.org/2000/svg" xml:space="preserve" width="23.4935mm" height="24.1698mm" version="1.1" style="shape-rendering:geometricPrecision; text-rendering:geometricPrecision; image-rendering:optimizeQuality; fill-rule:evenodd; clip-rule:evenodd"
viewBox="0 0 390 401"
 xmlns:xlink="http://www.w3.org/1999/xlink">
 <defs>
  <style type="text/css">
   <![CDATA[
    .fil0 {fill:#E6E7E8}
   ]]>
  </style>
 </defs>
 <g id="Layer_x0020_1">
  <metadata id="CorelCorpID_0Corel-Layer"/>
  <g id="_388675216">
   <path class="fil0" d="M213 128c0,19 1,47 7,63 14,42 5,20 -14,20 -8,0 5,4 -18,3 -21,-2 -46,-4 -67,-1l-58 7c-7,0 -15,-3 -15,9 13,1 9,-2 17,-7 10,-7 78,-7 95,-7 16,0 26,3 41,3 -2,4 -2,3 -2,8 3,2 4,2 7,4 2,2 4,2 5,5 -9,4 -21,6 -32,9 -12,2 -21,5 -32,8 -6,2 -11,3 -15,5 -15,6 -30,11 -44,18 -28,14 -55,32 -76,56 -2,3 -2,4 -5,7 -5,4 -6,5 -7,13 14,10 29,17 44,24 16,7 46,17 67,11 5,-2 3,-1 5,-2 2,-1 4,-2 6,-3l13 -11c17,-18 30,-40 43,-61 2,-3 1,-1 2,-5 4,-8 10,-18 15,-26l12 -20c3,-4 5,-5 5,-12 6,7 23,-8 4,39 -8,21 -36,95 -16,110 12,9 65,9 74,-11 9,-19 3,-41 -3,-60l-8 -21c-5,-14 -12,-27 -20,-39 -3,-3 -4,-5 -4,-11 8,0 10,3 15,6l13 9c5,4 9,6 13,9 3,3 4,3 7,5 5,3 5,1 2,6l2 -1c0,0 1,0 1,0 3,-1 6,0 11,0 1,-5 3,-5 3,-10 0,-6 -1,-4 -3,-8l-2 0c-5,0 -11,-6 -15,-8 -8,-6 -29,-14 -32,-23 7,-3 35,0 46,0 12,0 24,-4 36,-6 5,-1 6,-2 10,-3 9,-3 20,-5 28,-10 25,-15 16,-48 3,-68 -18,-29 -65,10 -82,24 0,0 0,1 0,1l-8 7c-1,0 -1,1 -1,1l-2 1c0,0 0,1 0,1 -5,4 -8,8 -13,13 -10,10 -18,23 -25,23 -6,0 -6,-3 -4,-6 7,-17 18,-29 28,-44 23,-34 66,-83 38,-125l-46 -42c-32,-21 -38,25 -43,46 -4,24 -6,50 -6,77z"/>
   <path class="fil0" d="M123 95c5,11 5,7 8,16 7,22 13,31 24,50 6,10 19,25 27,34 6,5 14,16 21,17 -1,-6 -2,-5 -11,-13 -10,-8 -25,-28 -33,-39l-13 -22c-1,-2 -1,-1 -2,-3l-4 -9c-14,-33 -1,-17 -6,-38 -6,0 -6,1 -11,7z"/>
  </g>
 </g>
</svg>
