<?xml version="1.0" encoding="UTF-8"?>
<!DOCTYPE svg PUBLIC "-//W3C//DTD SVG 1.1//EN" "http://www.w3.org/Graphics/SVG/1.1/DTD/svg11.dtd">
<!-- Creator: CorelDRAW X7 -->
<svg xmlns="http://www.w3.org/2000/svg" xml:space="preserve" width="19.139mm" height="17.7469mm" version="1.1" style="shape-rendering:geometricPrecision; text-rendering:geometricPrecision; image-rendering:optimizeQuality; fill-rule:evenodd; clip-rule:evenodd"
viewBox="0 0 568 526"
 xmlns:xlink="http://www.w3.org/1999/xlink">
 <defs>
  <style type="text/css">
   <![CDATA[
    .fil0 {fill:#E6E7E8}
   ]]>
  </style>
 </defs>
 <g id="Layer_x0020_1">
  <metadata id="CorelCorpID_0Corel-Layer"/>
  <path class="fil0" d="M83 10c-8,31 1,18 -8,49 -4,13 -14,42 -14,50 0,16 9,20 7,38 -3,22 -6,17 7,38 38,65 118,67 148,92 -7,20 -29,12 -49,6l-83 -28c-13,-4 -49,-3 -57,2 -7,4 -30,32 -34,47 -1,4 10,35 12,49 5,69 47,37 90,48 38,10 41,4 62,-27 10,-16 30,-59 53,-54 -2,10 1,6 -1,13 -8,31 -36,69 -43,95 -3,9 -1,0 0,8 38,9 43,-113 79,-110l-5 51c-5,40 -44,67 3,92 36,20 11,39 76,56 17,5 25,-7 33,-18 14,-19 17,-12 31,-23 49,-38 -31,-104 -62,-126 -12,-8 -24,-15 -36,-22 -4,-3 -47,-37 -11,-25l124 50c47,17 67,-28 99,-49 25,-18 18,-25 33,-52 13,-22 23,-10 31,-50 -16,-9 2,-5 -33,-14 -79,-21 -238,35 -269,93l-9 -3c21,-81 144,-156 148,-168 -21,-6 -21,12 -42,27 -13,10 -25,22 -37,34 -18,17 -56,60 -68,82l-5 -2c13,-48 17,-192 -19,-202 -9,32 21,3 24,103 0,25 -1,111 -29,111 10,-41 -13,-124 -27,-154 -12,-26 -63,-108 -94,-116 -8,-2 -23,0 -25,9z"/>
 </g>
</svg>
