<?xml version="1.0" encoding="UTF-8"?>
<!DOCTYPE svg PUBLIC "-//W3C//DTD SVG 1.1//EN" "http://www.w3.org/Graphics/SVG/1.1/DTD/svg11.dtd">
<!-- Creator: CorelDRAW X7 -->
<svg xmlns="http://www.w3.org/2000/svg" xml:space="preserve" width="19.35mm" height="17.9468mm" version="1.1" style="shape-rendering:geometricPrecision; text-rendering:geometricPrecision; image-rendering:optimizeQuality; fill-rule:evenodd; clip-rule:evenodd"
viewBox="0 0 405 376"
 xmlns:xlink="http://www.w3.org/1999/xlink">
 <defs>
  <style type="text/css">
   <![CDATA[
    .str0 {stroke:#E6E7E8;stroke-width:4.18939}
    .fil0 {fill:none}
   ]]>
  </style>
 </defs>
 <g id="Layer_x0020_1">
  <metadata id="CorelCorpID_0Corel-Layer"/>
  <path class="fil0 str0" d="M61 9c-6,22 1,13 -6,35 -3,9 -10,30 -10,35 0,11 7,14 5,27 -2,16 -4,12 5,27 27,45 83,47 104,65 -4,14 -20,8 -34,4l-59 -20c-9,-3 -34,-2 -40,2 -5,3 -21,22 -24,33 0,2 7,25 8,35 4,48 34,26 64,34 27,7 29,2 44,-20 7,-11 21,-42 37,-38 -1,7 1,5 0,9 -6,22 -26,49 -31,67 -2,7 -1,1 0,6 27,6 31,-80 56,-78l-3 36c-4,28 -31,47 1,66 26,13 9,27 55,39 12,3 17,-5 23,-13 9,-13 11,-8 22,-16 34,-27 -22,-73 -45,-89 -8,-6 -16,-10 -25,-16 -2,-2 -33,-26 -7,-17l87 35c34,12 47,-19 70,-35 17,-12 13,-17 24,-36 9,-16 16,-8 21,-36 -11,-6 2,-3 -23,-10 -56,-14 -168,25 -190,66l-7 -2c15,-57 103,-110 105,-119 -15,-4 -15,9 -29,20 -10,6 -18,15 -27,24 -12,11 -39,42 -48,57l-3 -1c9,-34 12,-135 -14,-143 -6,23 16,2 17,73 1,18 0,79 -20,79 7,-29 -9,-88 -19,-109 -9,-18 -45,-77 -66,-82 -6,-2 -17,0 -18,6z"/>
 </g>
</svg>
