<?xml version="1.0" encoding="UTF-8"?>
<!DOCTYPE svg PUBLIC "-//W3C//DTD SVG 1.1//EN" "http://www.w3.org/Graphics/SVG/1.1/DTD/svg11.dtd">
<!-- Creator: CorelDRAW X7 -->
<svg xmlns="http://www.w3.org/2000/svg" xml:space="preserve" width="23.6978mm" height="24.3687mm" version="1.1" style="shape-rendering:geometricPrecision; text-rendering:geometricPrecision; image-rendering:optimizeQuality; fill-rule:evenodd; clip-rule:evenodd"
viewBox="0 0 396 407"
 xmlns:xlink="http://www.w3.org/1999/xlink">
 <defs>
  <style type="text/css">
   <![CDATA[
    .str0 {stroke:#E6E7E8;stroke-width:3.34056}
    .fil0 {fill:none}
   ]]>
  </style>
 </defs>
 <g id="Layer_x0020_1">
  <metadata id="CorelCorpID_0Corel-Layer"/>
  <g id="_614015976">
   <path class="fil0 str0" d="M217 131c0,19 1,46 6,63 14,42 6,20 -13,20 -9,0 5,5 -19,3 -21,-1 -47,-4 -67,-1l-59 7c-7,1 -15,-3 -15,10 13,1 9,-2 18,-8 9,-6 78,-7 95,-7 16,0 26,3 41,3 -2,4 -1,3 -1,9 3,1 3,1 6,3 2,2 4,2 5,5 -9,5 -21,6 -32,9 -12,3 -21,5 -33,9 -5,2 -10,3 -15,5 -15,5 -29,11 -44,18 -28,14 -55,32 -76,56 -2,3 -2,4 -5,7 -5,4 -7,5 -7,14 14,9 29,16 44,23 17,8 47,18 68,11 4,-1 2,-1 5,-2 2,-1 4,-2 6,-3l13 -11c17,-18 29,-40 43,-61 2,-3 1,-1 2,-5 4,-8 11,-18 15,-26l12 -21c3,-4 5,-5 5,-11 6,6 24,-9 5,39 -9,21 -37,95 -16,111 12,9 65,8 74,-11 9,-19 3,-42 -3,-61l-8 -21c-5,-14 -12,-27 -21,-39 -2,-3 -3,-6 -4,-11 8,0 11,2 15,6l14 9c5,3 8,6 13,9 3,2 4,3 7,5 5,3 4,1 2,6l2 -1c0,0 1,0 1,-1 3,-1 6,1 11,1 1,-5 3,-5 3,-10 0,-6 -1,-4 -3,-9l-2 1c-5,0 -11,-6 -15,-9 -9,-5 -30,-14 -32,-23 6,-3 35,0 46,0 12,0 24,-3 36,-6 5,0 6,-1 11,-3 9,-2 19,-5 28,-10 24,-15 15,-48 3,-68 -19,-30 -66,10 -83,24 0,0 0,1 0,1l-9 7c0,0 0,1 0,1l-2 1c0,0 0,1 0,1 -5,4 -8,8 -13,13 -10,10 -18,24 -26,24 -5,0 -5,-4 -4,-7 7,-16 19,-29 29,-44 23,-34 66,-84 38,-126l-47 -42c-31,-21 -38,25 -42,46 -5,24 -6,50 -6,78z"/>
   <path class="fil0 str0" d="M126 98c5,10 4,6 8,16 7,22 13,30 24,50 6,10 19,25 28,34 5,5 13,16 20,17 -1,-6 -2,-5 -11,-13 -10,-8 -25,-28 -33,-39l-13 -22c-1,-3 -1,-2 -2,-4l-4 -8c-14,-34 -1,-18 -6,-38 -6,0 -7,0 -11,7z"/>
  </g>
 </g>
</svg>
